<svg xmlns="http://www.w3.org/2000/svg" xmlns:xlink="http://www.w3.org/1999/xlink" width="96" height="96" viewBox="0 0 96 96">
  <defs>
    <filter id="Path_104" x="0" y="0" width="96" height="96" filterUnits="userSpaceOnUse">
      <feOffset dy="3" input="SourceAlpha"/>
      <feGaussianBlur stdDeviation="3" result="blur"/>
      <feFlood flood-opacity="0.161"/>
      <feComposite operator="in" in2="blur"/>
      <feComposite in="SourceGraphic"/>
    </filter>
  </defs>
  <g id="Group_6528" data-name="Group 6528" transform="translate(16436 -13706)">
    <g transform="matrix(1, 0, 0, 1, -16436, 13706)" filter="url(#Path_104)">
      <path id="Path_104-2" data-name="Path 104" d="M39,0A39,39,0,1,1,0,39,39,39,0,0,1,39,0Z" transform="translate(9 6)" fill="#0b0a14"/>
    </g>
    <g id="Group_6527" data-name="Group 6527" transform="translate(-16789.51 13594.322)">
      <g id="Group_6525" data-name="Group 6525" transform="translate(377.509 141.678)">
        <path id="Path_101" data-name="Path 101" d="M381.121,148.729l.218-.058c.177.29.364.575.53.872q4.6,8.228,9.193,16.457c.55.98.9,2.088,2.427,2.109s1.916-1.072,2.457-2.057q4.48-8.146,8.93-16.309c.206-.378.438-.741.658-1.111l.259.108v23.692h3.5V141.82a8.781,8.781,0,0,1-.981-.052c-2.226-.387-3.5.478-4.572,2.56-3.272,6.35-6.816,12.56-10.207,18.74-3.775-6.74-7.567-13.528-11.391-20.3a1.843,1.843,0,0,0-1.079-.931,33.8,33.8,0,0,0-3.552-.045v30.621h3.612Z" transform="translate(-377.509 -141.678)" fill="#e5ea77"/>
        <path id="Path_102" data-name="Path 102" d="M381.121,148.729v23.685h-3.612V141.794a33.8,33.8,0,0,1,3.552.045,1.843,1.843,0,0,1,1.079.931c3.824,6.77,7.616,13.558,11.391,20.3,3.391-6.18,6.935-12.39,10.207-18.74,1.073-2.082,2.346-2.947,4.572-2.56a8.781,8.781,0,0,0,.981.052v30.612h-3.5V148.74l-.259-.108c-.22.37-.451.734-.658,1.111q-4.465,8.156-8.93,16.309c-.541.985-.919,2.079-2.457,2.057s-1.877-1.13-2.427-2.109q-4.607-8.223-9.193-16.457c-.166-.3-.353-.582-.53-.872Z" transform="translate(-377.509 -141.678)" fill="#e5ea77"/>
      </g>
      <g id="Group_6526" data-name="Group 6526" transform="translate(407.911 141.713)">
        <path id="Path_103" data-name="Path 103" d="M406,141.711c3.143.03,6.29.014,9.4.335,3.171.327,5.744,1.924,6.638,5.359a7.081,7.081,0,0,1-3.853,8.584c-.342.171-.7.32-1.21.555.457.163.762.278,1.071.381,2.682.891,4.773,2.381,5.177,5.413a7.928,7.928,0,0,1-3.411,8.169,11.969,11.969,0,0,1-6.821,1.9c-2.351.032-4.7.028-7.057.018m.074-3.462c2.768,0,5.421.125,8.056-.032a5.026,5.026,0,0,0,5.088-4.925c.137-3.031-1.352-4.994-4.629-5.342A81.682,81.682,0,0,0,406,158.6m-.021-3.226c1.763,0,3.425.007,5.086,0a10.815,10.815,0,0,0,1.92-.1,10.561,10.561,0,0,0,2.329-.676c2.1-.943,2.984-2.7,2.749-5.271a4.081,4.081,0,0,0-3.7-3.981c-2.735-.348-5.517-.323-8.381-.464" transform="translate(-405.931 -141.711)" fill="#e5ea77"/>
      </g>
      <line id="Line_20" data-name="Line 20" transform="translate(418.682 167.695)"/>
    </g>
  </g>
</svg>
