<svg xmlns="http://www.w3.org/2000/svg" width="643.854" height="617.88" viewBox="0 0 643.854 617.88">
  <g id="Group_6793" data-name="Group 6793" transform="translate(-17542.146 -13366.12)">
    <g id="Group_6794" data-name="Group 6794">
      <g id="Path_662" data-name="Path 662" transform="translate(17589.555 13447.313) rotate(-9)" fill="none">
        <path d="M219.887,0C71.937,0-48,119.937-48,267.887S71.937,535.774,219.887,535.774c67.012,0,154.418-18.935,200.239-86.826,15.289-13.249,98.9,4.086,98.9,4.086s-62.181-58.641-54.391-76.061a266.741,266.741,0,0,0,23.143-109.086C487.774,119.937,367.837,0,219.887,0Z" stroke="none"/>
        <path d="M 219.8871459960938 10.99993896484375 C 78.23904418945312 10.99993896484375 -37.00003051757812 126.2390441894531 -37.00003051757812 267.8871154785156 C -37.00003051757812 409.5351257324219 78.23904418945312 524.774169921875 219.8871459960938 524.774169921875 C 260.7154541015625 524.774169921875 361.0693969726562 516.7860107421875 411.0082092285156 442.794189453125 L 411.8223876953125 441.5879516601562 L 412.9222106933594 440.6348571777344 C 419.0468139648438 435.3276062011719 429.0211486816406 432.9605407714844 445.2632141113281 432.9597778320312 C 458.2994995117188 432.959228515625 473.6034240722656 434.5618896484375 487.05126953125 436.4373779296875 C 465.1357421875 412.5644226074219 447.9045104980469 387.4308471679688 454.5891418457031 372.4825439453125 C 469.31005859375 339.563720703125 476.7742309570312 304.3726806640625 476.7742309570312 267.8871154785156 C 476.7742309570312 126.2390441894531 361.53515625 10.99993896484375 219.8871459960938 10.99993896484375 M 219.8871459960938 -6.103515625e-05 C 367.8370666503906 -6.103515625e-05 487.7742309570312 119.9371948242188 487.7742309570312 267.8871154785156 C 487.7742309570312 306.7979431152344 479.4783020019531 343.7711791992188 464.6307983398438 376.9730224609375 C 456.8409729003906 394.3928833007812 519.0222778320312 453.0342712402344 519.0222778320312 453.0342712402344 C 519.0222778320312 453.0342712402344 475.2559509277344 443.9584350585938 445.2637329101562 443.9597778320312 C 433.8056945800781 443.9603271484375 424.3522338867188 445.28564453125 420.1258850097656 448.9479370117188 C 374.3046264648438 516.8388671875 286.8992919921875 535.774169921875 219.8871459960938 535.774169921875 C 71.93722534179688 535.774169921875 -48 415.8370361328125 -48 267.8871154785156 C -48 119.9371948242188 71.93722534179688 -6.103515625e-05 219.8871459960938 -6.103515625e-05 Z" stroke="none" fill="#ebe9e0"/>
      </g>
    </g>
  </g>
</svg>
