<svg xmlns="http://www.w3.org/2000/svg" width="22.954" height="822.964" viewBox="0 0 22.954 822.964">
  <g id="Group_6420" data-name="Group 6420" transform="translate(145.954 -2.5) rotate(90)">
    <line id="Line_1" data-name="Line 1" x1="822" transform="translate(2.5 134.5)" fill="none" stroke="#e5ea77" stroke-width="1"/>
    <g id="Path_75" data-name="Path 75" transform="translate(826.5 123) rotate(90)" fill="none" stroke-linecap="round">
      <path d="M11.711,1.036,22.954,20.51a1.068,1.068,0,0,1-.7.3,1.5,1.5,0,0,1-.8-.3l-9.4-18.023H10.963L1.567,20.51a1.53,1.53,0,0,1-.785.3A1.511,1.511,0,0,1,0,20.51L11.219,1.036Z" stroke="none"/>
      <path d="M 11.21858978271484 1.035881042480469 L 11.71061992645264 1.035881042480469 L 22.95409965515137 20.50967025756836 C 22.95409965515137 20.50967025756836 22.66452980041504 20.8125 22.25180053710938 20.8125 C 21.83906936645508 20.8125 21.45354080200195 20.50967025756836 21.45354080200195 20.50967025756836 L 12.0487699508667 2.486690521240234 L 10.96311950683594 2.486690521240234 L 1.566959381103516 20.50967025756836 C 1.566959381103516 20.50967025756836 1.17333984375 20.8125 0.7815990447998047 20.8125 C 0.3898601531982422 20.8125 0 20.50967025756836 0 20.50967025756836 L 11.21858978271484 1.035881042480469 Z" stroke="none" fill="#e5ea77"/>
    </g>
  </g>
</svg>
