<svg xmlns="http://www.w3.org/2000/svg" width="969.385" height="1120.645" viewBox="0 0 969.385 1120.645">
  <g id="Group_6794" data-name="Group 6794" transform="translate(-734.028 -475.438)">
    <g id="Group_6792" data-name="Group 6792" transform="translate(753.857 477.062) rotate(3)" opacity="0.092">
      <path id="Path_653" data-name="Path 653" d="M73.341,67.763S18.126,0,5.577,0s0,33.882,0,33.882" transform="translate(816.253 460.384)" fill="none" stroke="#c4bdbb" stroke-miterlimit="10" stroke-width="10"/>
      <path id="Path_654" data-name="Path 654" d="M127.094,64C100.39,20.078,97.88,0,52.7,0,52.7,0,17.862,2.748,0,30.117" transform="translate(702.617 464.149)" fill="none" stroke="#c4bdbb" stroke-miterlimit="10" stroke-width="10"/>
      <path id="Path_655" data-name="Path 655" d="M74.952,0S35.505,10.644,14.89,49.072c-.043.11-35.89,51.922,3.81,117.079,29.542,43.486,55.967,43.774,81.124,42.084,38.166-3.542,82.9-41.492,86.958-94.708,2.43-69.487-61.93-83.554-61.93-83.554s109,.161,122.263,80.392,25.813-20.158,25.813-20.158" transform="translate(627.959 509.467)" fill="none" stroke="#c4bdbb" stroke-miterlimit="10" stroke-width="10"/>
      <path id="Path_656" data-name="Path 656" d="M22.588,0s-25.1,30.117,0,72.271c14.215,3.265,45.176,8.041,45.176,8.041S89.1,91.606,101.645,114.194c32.627,17.568,91.606,69.018,91.606,69.018s-35.137,42.666-97.88,62.744-67.763,27.607-67.763,27.607,25.1,21.413,55.215,38.314,15.059,16.9,15.059,16.9-50.2,2.51-65.254-15.059S0,281.092,0,271.053s55.215-37.646,55.215-37.646,70.68-45.381,67.967-60.337-67.967-40.053-67.967-40.053-16.313,56.469-13.8,84.077" transform="translate(756.576 736.457)" fill="none" stroke="#c4bdbb" stroke-miterlimit="10" stroke-width="10"/>
      <path id="Path_657" data-name="Path 657" d="M6.89,0S-11.84,66.1,12.463,106.344c17.614,29.169,57.447,43.369,81.669,64.1,51.131,46.6,62.613,111.751,62.613,111.751" transform="translate(0 0)" fill="none" stroke="#c4bdbb" stroke-miterlimit="10" stroke-width="10"/>
      <path id="Path_658" data-name="Path 658" d="M9.255,44.709S-33.411-50.661,64.47,37.18s-12.549,85.332-12.549,85.332" transform="translate(862.77 423.204)" fill="none" stroke="#c4bdbb" stroke-miterlimit="10" stroke-width="10"/>
      <path id="Path_659" data-name="Path 659" d="M52.7,0C87.841,12.549,107.92,173.173,0,130.507" transform="translate(839.398 558.265)" fill="none" stroke="#c4bdbb" stroke-miterlimit="10" stroke-width="10"/>
      <path id="Path_660" data-name="Path 660" d="M277.479,380.227C261.173,322.5,159.141,189.494,159.141,189.494S128,90.351,67.763,27.607C51.836,12.172,36.735,2.668,22.588,0,8.794,4.5.74,11.773,0,22.588" transform="translate(368.819 378.817)" fill="none" stroke="#c4bdbb" stroke-miterlimit="10" stroke-width="10"/>
      <path id="Path_661" data-name="Path 661" d="M182.758,81.118,109.975,40.962S99.936-6.723,62.29.806,0,0,0,0C29.327,5.73,53.505,24.649,53.505,24.649c10.815,8.874,18.093,33.54,56.47,33.882l91.606,51.352c0,20.176,1.147,20.613,15.058,32.725,17.636,3.217,31.262.778,40.174-8.317,0,0,26.927,15.847,39.807,37.179S424.949,478.914,460.086,491.463" transform="translate(167.238 311.503)" fill="none" stroke="#c4bdbb" stroke-miterlimit="10" stroke-width="10"/>
    </g>
  </g>
</svg>
