<svg xmlns="http://www.w3.org/2000/svg" width="1186.973" height="1373.315" viewBox="0 0 1186.973 1373.315">
  <g id="Group_6794" data-name="Group 6794" transform="translate(-743.323 -475.438)">
    <g id="Group_6792" data-name="Group 6792" transform="translate(810.774 718.155) rotate(3)" opacity="0.092">
      <path id="Path_653" data-name="Path 653" d="M533.11,338.905s-67.742-83.137-83.138-83.137,0,41.569,0,41.569" transform="translate(501.492 70.624)" fill="none" stroke="#c4bdbb" stroke-miterlimit="10" stroke-width="10"/>
      <path id="Path_654" data-name="Path 654" d="M622.919,335.787c-32.762-53.885-35.841-78.519-91.266-78.519,0,0-42.748,3.372-64.663,36.95" transform="translate(338.214 73.743)" fill="none" stroke="#c4bdbb" stroke-miterlimit="10" stroke-width="10"/>
      <path id="Path_655" data-name="Path 655" d="M510.913,275.325s-48.4,13.059-73.689,60.206c-.053.135-44.033,63.7,4.675,143.643,36.244,53.352,68.665,53.706,99.53,51.633,46.825-4.346,101.711-50.905,106.687-116.2,2.981-85.252-75.98-102.511-75.98-102.511s133.729.2,150,98.632S753.808,386,753.808,386" transform="translate(294.651 111.286)" fill="none" stroke="#c4bdbb" stroke-miterlimit="10" stroke-width="10"/>
      <path id="Path_656" data-name="Path 656" d="M446.842,365.768s-30.792,36.95,0,88.668c17.44,4.006,55.425,9.866,55.425,9.866s26.173,13.856,41.569,41.569c40.029,21.554,112.39,84.677,112.39,84.677s-43.108,52.346-120.088,76.979S453,701.4,453,701.4s30.792,26.271,67.742,47.007,18.475,20.735,18.475,20.735-61.583,3.079-80.058-18.475-40.029-40.029-40.029-52.346,67.742-46.188,67.742-46.188,86.716-55.677,83.387-74.026-83.387-49.14-83.387-49.14-20.015,69.281-16.936,103.152" transform="translate(452.276 299.333)" fill="none" stroke="#c4bdbb" stroke-miterlimit="10" stroke-width="10"/>
      <path id="Path_657" data-name="Path 657" d="M686.759-88.677S663.779-7.584,693.6,41.794C715.208,77.581,764.078,95,793.8,120.434c62.732,57.167,76.818,137.105,76.818,137.105" transform="translate(-735.13 -149.768)" fill="none" stroke="#c4bdbb" stroke-miterlimit="10" stroke-width="10"/>
      <path id="Path_658" data-name="Path 658" d="M423.36,295.806S371.013,178.8,491.1,286.569s-15.4,104.692-15.4,104.692" transform="translate(589.689 39.823)" fill="none" stroke="#c4bdbb" stroke-miterlimit="10" stroke-width="10"/>
      <path id="Path_659" data-name="Path 659" d="M495.631,294.768c43.108,15.4,67.742,212.463-64.663,160.117" transform="translate(542.051 151.712)" fill="none" stroke="#c4bdbb" stroke-miterlimit="10" stroke-width="10"/>
      <path id="Path_660" data-name="Path 660" d="M880.5,689.762C860.5,618.941,735.317,455.754,735.317,455.754s-38.209-121.636-112.11-198.616c-19.54-18.937-38.068-30.6-55.425-33.871-16.923,5.518-26.8,14.444-27.712,27.712" transform="translate(-144.396 3.051)" fill="none" stroke="#c4bdbb" stroke-miterlimit="10" stroke-width="10"/>
      <path id="Path_661" data-name="Path 661" d="M771.852,295.969l-89.3-49.267s-12.317-58.5-58.5-49.267-76.422-.988-76.422-.988c35.98,7.03,65.645,30.24,65.645,30.24,13.268,10.888,22.2,41.15,69.282,41.569l112.39,63c0,24.753,1.407,25.289,18.475,40.149,21.637,3.948,38.354.955,49.288-10.2,0,0,33.037,19.442,48.839,45.615s157.444,377.2,200.553,392.594" transform="translate(-399.272 -52.715)" fill="none" stroke="#c4bdbb" stroke-miterlimit="10" stroke-width="10"/>
    </g>
  </g>
</svg>
