<svg xmlns="http://www.w3.org/2000/svg" width="448" height="84" viewBox="0 0 448 84">
  <g id="homr_icon" data-name="homr/icon" transform="translate(3)">
    <g id="Group_2" data-name="Group 2" transform="translate(-3)">
      <g id="Group">
        <g id="Symbol_vegetarian" data-name="Symbol/vegetarian" transform="translate(8)">
          <circle id="Oval" cx="31.5" cy="31.5" r="31.5" fill="#f7f7f7"/>
          <g id="vegetarain" transform="translate(18 17)">
            <path id="Path" d="M26.977,9.908a3.614,3.614,0,0,0-3.627-3.6c-.1,0-.189,0-.283.012,0,0,0-.008,0-.012a3.35,3.35,0,0,0-4.945-2.916,4.862,4.862,0,0,0-9.268,0A3.35,3.35,0,0,0,3.91,6.307s0,.008,0,.012c-.093-.007-.187-.012-.283-.012A3.6,3.6,0,0,0,2.3,13.258a4.033,4.033,0,0,0,3.927,5.079,4.068,4.068,0,0,0,3-1.314,4.868,4.868,0,0,0,8.521,0A4.071,4.071,0,0,0,24.816,14.3a4.011,4.011,0,0,0-.138-1.043A3.6,3.6,0,0,0,26.977,9.908Z" transform="translate(0 0.048)" fill="#348021"/>
            <path id="Path-2" data-name="Path" d="M26.977,2a3.564,3.564,0,0,0-.612-2,3.457,3.457,0,0,1-1.874,4.057.3.3,0,0,0-.161.331,3.865,3.865,0,0,1,.077.768,3.925,3.925,0,0,1-6.552,2.88A.3.3,0,0,0,17.4,8.1a4.695,4.695,0,0,1-7.83,0,.3.3,0,0,0-.453-.061,3.925,3.925,0,0,1-6.552-2.88,3.86,3.86,0,0,1,.077-.768.3.3,0,0,0-.161-.331A3.457,3.457,0,0,1,.612,0,3.565,3.565,0,0,0,0,2a3.6,3.6,0,0,0,2.3,3.35A4.014,4.014,0,0,0,2.17,6.672,4.073,4.073,0,0,0,9.228,9.115a4.868,4.868,0,0,0,8.521,0,4.073,4.073,0,0,0,7.057-2.443,4.014,4.014,0,0,0-.128-1.321A3.6,3.6,0,0,0,26.977,2Z" transform="translate(0 7.955)" fill="#2e701b"/>
            <path id="Path-3" data-name="Path" d="M10.035,0A4.821,4.821,0,0,1,7.6,2.166,25.891,25.891,0,0,0,6.089,5.083a.3.3,0,0,1-.549,0A25.891,25.891,0,0,0,4.031,2.166,4.822,4.822,0,0,1,1.593,0,4.033,4.033,0,0,1,0,1.067,32.877,32.877,0,0,1,2.988,11.535a1.165,1.165,0,0,0,1.157,1.023H7.482A1.165,1.165,0,0,0,8.64,11.535,32.877,32.877,0,0,1,11.628,1.067,4.033,4.033,0,0,1,10.035,0Z" transform="translate(7.674 17.257)" fill="#98db7c"/>
          </g>
        </g>
        <text id="Vegetarian" transform="translate(0 71)" font-size="12" font-family="CeraPro-Bold, Cera Pro" font-weight="700"><tspan x="8.792" y="10">Vegetarian</tspan></text>
      </g>
      <g id="Group_Copy_2" data-name="Group Copy 2" transform="translate(189)">
        <g id="Symbol_glutenfree" data-name="Symbol/glutenfree" transform="translate(5)">
          <circle id="Oval-2" data-name="Oval" cx="31.5" cy="31.5" r="31.5" fill="#f7f7f7"/>
          <g id="gluten-free" transform="translate(16 18)">
            <path id="Path-4" data-name="Path" d="M17.821,17.312a8.2,8.2,0,0,0,3.112-1.272,2.373,2.373,0,0,0,.97-2.794A8.23,8.23,0,0,0,25,11.977a2.372,2.372,0,0,0,0-4.009A10.682,10.682,0,0,0,23.52,7.18a4.879,4.879,0,0,0,.842-.665A7.316,7.316,0,0,0,26.11,2.894,2.371,2.371,0,0,0,23.275.059a7.314,7.314,0,0,0-3.621,1.748,4.873,4.873,0,0,0-.664.841A10.69,10.69,0,0,0,18.2,1.176a2.372,2.372,0,0,0-4.009,0,8.23,8.23,0,0,0-1.269,3.093,2.373,2.373,0,0,0-2.794.97A8.205,8.205,0,0,0,8.859,8.35a2.372,2.372,0,0,0-2.8.966,7.315,7.315,0,0,0-1.325,3.8c0,1.93,1.35,3.939,2.135,4.945L.258,24.663a.882.882,0,1,0,1.248,1.248l6.606-6.606c1.005.785,3.016,2.137,4.947,2.137a7.315,7.315,0,0,0,3.8-1.325,2.373,2.373,0,0,0,.966-2.805Z" transform="translate(2.044 1.785)" fill="#98db7c"/>
            <path id="Path-5" data-name="Path" d="M28.494,29.742.258,1.506A.882.882,0,0,1,1.506.258L29.742,28.494a.882.882,0,0,1-1.248,1.248Z" transform="translate(0 0)" fill="#348021"/>
          </g>
        </g>
        <text id="Gluten_free" data-name="Gluten free" transform="translate(0 71)" font-size="12" font-family="CeraPro-Bold, Cera Pro" font-weight="700"><tspan x="4.736" y="10">Gluten free</tspan></text>
      </g>
      <g id="Group_Copy" data-name="Group Copy" transform="translate(96)">
        <g id="Vegan" transform="translate(5)">
          <circle id="Oval-3" data-name="Oval" cx="31.5" cy="31.5" r="31.5" fill="#f7f7f7"/>
          <g id="vegan-2" data-name="vegan" transform="translate(19 17)">
            <path id="Path-6" data-name="Path" d="M5.22,6.814A4.486,4.486,0,0,1,.137,5.427,4.486,4.486,0,0,1,2.314.629C4.786-.532,8.351.2,9.682.547a.463.463,0,0,1,.3.647C9.4,2.438,7.692,5.653,5.22,6.814Z" transform="translate(14.613 18.021)" fill="#98db7c"/>
            <path id="Path-7" data-name="Path" d="M4.559,3.8A3.007,3.007,0,0,1,3.026,6.984a3.007,3.007,0,0,1-2.9-2.02A7.971,7.971,0,0,1,.889.279.467.467,0,0,1,1.6.094,7.971,7.971,0,0,1,4.559,3.8Z" transform="translate(9.496 0)" fill="#98db7c"/>
            <path id="Path-8" data-name="Path" d="M8.213.265c2.311.684,3.429,3.7,3.11,4.774s-2.9,3-5.208,2.312C3.255,6.5.886,3.29.079,2.084a.465.465,0,0,1,.2-.687C1.616.824,5.353-.582,8.213.265Z" transform="translate(0.035 14.305)" fill="#98db7c"/>
            <path id="Path-9" data-name="Path" d="M5.113.763A3.007,3.007,0,0,1,6.165,4.136a3.007,3.007,0,0,1-3.5.5A7.972,7.972,0,0,1,.026.694.467.467,0,0,1,.417.076,7.971,7.971,0,0,1,5.113.763Z" transform="translate(5.071 7.431)" fill="#98db7c"/>
            <path id="Path-10" data-name="Path" d="M3.5,4.568a3.007,3.007,0,0,1-3.408-.93A3.007,3.007,0,0,1,1.551.422,7.971,7.971,0,0,1,6.3.319a.467.467,0,0,1,.311.662A7.971,7.971,0,0,1,3.5,4.568Z" transform="translate(15.104 9.346)" fill="#98db7c"/>
            <g id="Group-2" data-name="Group" transform="translate(3.158 2.456)">
              <path id="Path-11" data-name="Path" d="M.479,6.155A.479.479,0,0,1,.148,5.33,24.974,24.974,0,0,1,9.474.02a.479.479,0,1,1,.268.92A24.383,24.383,0,0,0,.81,6.022.477.477,0,0,1,.479,6.155Z" transform="translate(8.524 17.247)" fill="#348021"/>
              <path id="Path-12" data-name="Path" d="M1.025.046C.7.012.507,0,.507,0A.479.479,0,0,0,.45.957C.456.957.63.968.926,1l.05,0A.479.479,0,0,0,1.025.046Z" transform="translate(0.012 13.955)" fill="#348021"/>
              <path id="Path-13" data-name="Path" d="M1.462.356A.481.481,0,0,0,.876.015Q.592.091.327.181a.479.479,0,1,0,.3.908c.158-.053.321-.1.491-.147A.48.48,0,0,0,1.462.356Z" transform="translate(14.239 8.467)" fill="#348021"/>
              <path id="Path-14" data-name="Path" d="M10.361,9.474A7.1,7.1,0,0,0,8.237,11.58,40.091,40.091,0,0,0,6.374.333a.479.479,0,0,0-.912.292A38.813,38.813,0,0,1,7.22,10.2,11.5,11.5,0,0,0,2.788,6.542a.479.479,0,1,0-.366.885,10.638,10.638,0,0,1,4.867,4.719,43.754,43.754,0,0,1-.274,5.427c-1.366-1.9-4.129-2.84-6.442-3.3a.479.479,0,1,0-.187.939c2.111.42,5.726,1.509,6.4,4.084A37.2,37.2,0,0,1,4.915,26.8a.479.479,0,1,0,.887.362,38.244,38.244,0,0,0,1.942-7.82l0-.015a45.354,45.354,0,0,0,.486-5.447,6.163,6.163,0,0,1,2.646-3.6.479.479,0,0,0-.518-.806Z" transform="translate(2.416 0.025)" fill="#348021"/>
            </g>
          </g>
        </g>
        <text id="Vegan-3" data-name="Vegan" transform="translate(0 71)" font-size="12" font-family="CeraPro-Bold, Cera Pro" font-weight="700"><tspan x="18.914" y="10">Vegan</tspan></text>
      </g>
      <g id="Group_Copy_3" data-name="Group Copy 3" transform="translate(282)">
        <g id="Symbol_lactosefree" data-name="Symbol/lactosefree" transform="translate(5)">
          <circle id="Oval-4" data-name="Oval" cx="31.5" cy="31.5" r="31.5" fill="#f7f7f7"/>
          <g id="lactose-free" transform="translate(16 17)">
            <path id="Path-15" data-name="Path" d="M16.8,11.99a11.161,11.161,0,0,0-2.659-7.241A2.8,2.8,0,0,0,12.114,0H2.752A2.813,2.813,0,0,0,0,2.251l16.8,16.8Z" transform="translate(7.546)" fill="#98db7c"/>
            <path id="Path-16" data-name="Path" d="M29.959,27.311,2.648,0,0,2.648l6.13,6.13a10.715,10.715,0,0,0-.512,3.212V26.214a3.749,3.749,0,0,0,3.745,3.745H20.6a3.748,3.748,0,0,0,3.674-3.041l3.041,3.041,2.648-2.648Z" transform="translate(0)" fill="#98db7c"/>
            <path id="Path_Copy" data-name="Path Copy" d="M2.648,0,0,2.648l6.13,6.13L24.27,26.918l3.041,3.041,2.648-2.648Z" transform="translate(0)" fill="#348021"/>
          </g>
        </g>
        <text id="Lactose_free" data-name="Lactose free" transform="translate(0 71)" font-size="12" font-family="CeraPro-Bold, Cera Pro" font-weight="700"><tspan x="1.718" y="10">Lactose free</tspan></text>
      </g>
      <g id="Group_Copy_4" data-name="Group Copy 4" transform="translate(375)">
        <g id="halal" transform="translate(5)">
          <circle id="Oval-5" data-name="Oval" cx="31.5" cy="31.5" r="31.5" fill="#f7f7f7"/>
          <g id="islam_halal" transform="translate(17 17)">
            <path id="Shape" d="M14.334,29.654,10.469,25.79H5a.88.88,0,0,1-.879-.88V19.444L.257,15.578a.881.881,0,0,1,0-1.244l3.866-3.865V5A.88.88,0,0,1,5,4.123h5.467L14.334.257a.88.88,0,0,1,1.244,0l3.865,3.866h5.467A.88.88,0,0,1,25.79,5v5.467l3.865,3.865a.878.878,0,0,1,0,1.244L25.79,19.444v5.466a.88.88,0,0,1-.88.88H19.444l-3.865,3.865a.878.878,0,0,1-1.244,0Z" transform="translate(0)" fill="#5a984f"/>
            <path id="Path-17" data-name="Path" d="M5.049,1.58a.088.088,0,0,0,.076-.121L4.561.055A.088.088,0,0,0,4.426.018c-.087.065-.187.129-.292.2a2.428,2.428,0,0,0-.607.481.088.088,0,0,0-.01.094,7.264,7.264,0,0,1,.148,3.68c-.034.281-.066.547-.087.787A1.366,1.366,0,0,1,2.131,6.5a1.245,1.245,0,0,1-1.094-.534,1.357,1.357,0,0,1,.14-1.359.088.088,0,0,0-.007-.1A.1.1,0,0,0,1.09,4.47,3.359,3.359,0,0,0,0,6.606c-.024.494.17,1.1,1.224,1.205.094.009.192.013.294.013,1.022,0,2.692-.5,2.818-1.825.019-.195.028-.511.04-.877C4.414,3.984,4.487,1.614,5.049,1.58Z" transform="translate(7.693 11.601)" fill="#5a984f"/>
            <path id="Path-18" data-name="Path" d="M10.042,4.982a2.157,2.157,0,0,1-1.228-.575c-.138-.122-.279-.253-.415-.379A8.845,8.845,0,0,0,7.175,3.018a.608.608,0,0,0-.332-.1A1.672,1.672,0,0,0,5.529,4.181a.359.359,0,0,0,.253.439.089.089,0,0,0,.095-.033c.193-.263.379-.391.568-.391.264,0,.542.245.838.505.123.108.248.218.38.32a10.606,10.606,0,0,1-1.252.085c-.7,0-1.552-.105-1.6-.607a11.532,11.532,0,0,1,.241-2.852c.084-.5.17-1.017.218-1.512A.088.088,0,0,0,5.139.051,3.875,3.875,0,0,0,3.611,2.26a6.985,6.985,0,0,1-.873,1.748A6.228,6.228,0,0,0,.747.022.088.088,0,0,0,.6.069C.568.227.526.384.485.536.274,1.317.076,2.055,1,2.61a.088.088,0,0,0,.133-.067l.01-.106A5.456,5.456,0,0,1,2.1,4.68a5.178,5.178,0,0,1-.95.585A3.783,3.783,0,0,0,.02,6.03a.088.088,0,0,0,0,.114A1.441,1.441,0,0,0,1.091,6.7C2.4,6.7,3.577,4.474,4.113,3.277l-.008.05c-.2,1.3-.41,2.636,1.185,3.056l.019,0c.144.006.3.009.472.009h0c.64,0,3.856-.062,4.332-1.293a.088.088,0,0,0-.071-.119Z" transform="translate(12.784 12.024)" fill="#5a984f"/>
          </g>
        </g>
        <text id="Halal-2" data-name="Halal" transform="translate(0 71)" font-size="12" font-family="CeraPro-Bold, Cera Pro" font-weight="700"><tspan x="22.484" y="10">Halal</tspan></text>
      </g>
    </g>
  </g>
</svg>
