<svg id="menu" xmlns="http://www.w3.org/2000/svg" width="375" height="60" viewBox="0 0 375 60">
  <rect id="Rectangle_1" data-name="Rectangle 1" width="375" height="60" fill="#fff"/>
  <g id="Group_79" data-name="Group 79" transform="translate(0 -511.5)">
    <g id="Group_78" data-name="Group 78" transform="translate(2509.54 -2566.879)">
      <g id="Group" transform="translate(-2471.54 3096.46)">
        <g id="Reservation" transform="translate(6.182 10.234)">
          <path id="Path_2" data-name="Path 2" d="M0,4.25l3.653,3.7L9.715,0" transform="translate(0 0)" fill="none" stroke="#5a984f" stroke-linecap="round" stroke-linejoin="round" stroke-miterlimit="10" stroke-width="1.5"/>
        </g>
        <g id="Shape_Copy" data-name="Shape Copy" transform="translate(0 0)" fill="#5a984f" stroke-miterlimit="10">
          <path d="M 17.75970077514648 21.5797119140625 L 4.320000171661377 21.5797119140625 C 2.213640213012695 21.5797119140625 0.5000002384185791 19.86606025695801 0.5000002384185791 17.75970077514648 L 0.5000002384185791 7.200001239776611 L 0.5000002384185791 6.239701271057129 C 0.5000002384185791 4.133341312408447 2.213640213012695 2.419701099395752 4.320000171661377 2.419701099395752 C 4.510130405426025 2.41930103302002 4.735060214996338 2.41913104057312 4.990490436553955 2.41913104057312 C 5.851990222930908 2.41913104057312 7.035230159759521 2.42107105255127 8.665140151977539 2.424201011657715 C 10.26342010498047 2.427071094512939 11.96088027954102 2.429721117019653 13.5460901260376 2.429721117019653 C 15.32766056060791 2.429721117019653 16.70698928833008 2.426441192626953 17.76289939880371 2.41969108581543 C 19.86606025695801 2.419701099395752 21.5797004699707 4.133341312408447 21.5797004699707 6.239701271057129 L 21.5797004699707 7.200001239776611 L 21.5797004699707 17.75970077514648 C 21.5797004699707 19.86606025695801 19.86606025695801 21.5797119140625 17.75970077514648 21.5797119140625 Z M 5.196600437164307 2.859711170196533 C 2.849500179290771 2.859711170196533 0.9400002360343933 4.745390892028809 0.9400002360343933 7.063200950622559 L 0.9400002360343933 7.885801315307617 L 0.9400002360343933 16.93709182739258 C 0.9400002360343933 19.25442123413086 2.849500179290771 21.13970184326172 5.196600437164307 21.13970184326172 L 16.88310050964355 21.13970184326172 C 19.23019981384277 21.13970184326172 21.13969993591309 19.25442123413086 21.13969993591309 16.93709182739258 L 21.13969993591309 7.885801315307617 L 21.13969993591309 7.063200950622559 C 21.13969993591309 4.745390892028809 19.23019981384277 2.859711170196533 16.88310050964355 2.859711170196533 L 13.96170043945312 2.859711170196533 L 5.614200115203857 2.859711170196533 L 5.196600437164307 2.859711170196533 Z" stroke="none"/>
          <path d="M 17.75970077514648 22.0797119140625 L 4.320000171661377 22.0797119140625 C 1.937940239906311 22.0797119140625 2.349853502892074e-07 20.14176177978516 2.349853502892074e-07 17.75970077514648 L 2.349853502892074e-07 7.200001239776611 L 2.349853502892074e-07 6.239701271057129 C 2.349853502892074e-07 3.857651233673096 1.937940239906311 1.919701099395752 4.320000171661377 1.919701099395752 C 4.50937032699585 1.919301152229309 4.734660148620605 1.91913115978241 4.990490436553955 1.91913115978241 C 5.85243034362793 1.91913115978241 7.035930156707764 1.921071171760559 8.66610050201416 1.924201130867004 C 10.26576995849609 1.927071094512939 11.96413040161133 1.929721117019653 13.5460901260376 1.929721117019653 C 15.32696056365967 1.929721117019653 16.70524978637695 1.926441073417664 17.75970077514648 1.919701099395752 C 20.14175987243652 1.919701099395752 22.0797004699707 3.857651233673096 22.0797004699707 6.239701271057129 L 22.0797004699707 7.200001239776611 L 22.0797004699707 17.75970077514648 C 22.0797004699707 20.14176177978516 20.14175987243652 22.0797119140625 17.75970077514648 22.0797119140625 Z M 5.196600437164307 3.359711170196533 C 3.125200271606445 3.359711170196533 1.440000176429749 5.02108097076416 1.440000176429749 7.063200950622559 L 1.440000176429749 7.885801315307617 L 1.440000176429749 16.93709182739258 C 1.440000176429749 18.97872161865234 3.125200271606445 20.63970184326172 5.196600437164307 20.63970184326172 L 16.88310050964355 20.63970184326172 C 18.95450019836426 20.63970184326172 20.63969993591309 18.97872161865234 20.63969993591309 16.93709182739258 L 20.63969993591309 7.885801315307617 L 20.63969993591309 7.063200950622559 C 20.63969993591309 5.02108097076416 18.95450019836426 3.359711170196533 16.88310050964355 3.359711170196533 L 13.96170043945312 3.359711170196533 L 5.614200115203857 3.359711170196533 L 5.196600437164307 3.359711170196533 Z" stroke="none" fill="#5a984f"/>
        </g>
      </g>
      <path id="Line" d="M1.3.5H20.66" transform="translate(-2471.56 3103.16)" fill="none" stroke="#5a984f" stroke-linecap="square" stroke-miterlimit="10" stroke-width="1.5"/>
    </g>
    <g id="Group_9" data-name="Group 9" transform="translate(132 531.5)">
      <path id="Fill_1" data-name="Fill 1" d="M4.828,15.089h0a38.469,38.469,0,0,1-2.5-3.684C1.194,9.511-.123,6.851.009,4.929A4.864,4.864,0,0,1,4.795,0,4.865,4.865,0,0,1,9.582,4.929c.187,2.03-1.115,4.685-2.241,6.554a33.928,33.928,0,0,1-2.512,3.606Zm0-12.742A2.517,2.517,0,0,0,2.353,4.9,2.518,2.518,0,0,0,4.83,7.449,2.518,2.518,0,0,0,7.307,4.9,2.517,2.517,0,0,0,4.83,2.348Z" transform="translate(4.8 0)"/>
      <path id="Stroke_3" data-name="Stroke 3" d="M4.828,15.089h0a38.469,38.469,0,0,1-2.5-3.684C1.194,9.511-.123,6.851.009,4.929A4.864,4.864,0,0,1,4.795,0,4.865,4.865,0,0,1,9.582,4.929c.187,2.03-1.115,4.685-2.241,6.554a33.928,33.928,0,0,1-2.512,3.606Zm0-12.742A2.517,2.517,0,0,0,2.353,4.9,2.518,2.518,0,0,0,4.83,7.449,2.518,2.518,0,0,0,7.307,4.9,2.517,2.517,0,0,0,4.83,2.348Z" transform="translate(4.8 0)" fill="#5a984f"/>
      <path id="Fill_5" data-name="Fill 5" d="M12.429,1.061,13.144,0C16.969.34,19.2,1.308,19.2,2.45c0,1.425-4.3,2.58-9.6,2.58S0,3.875,0,2.45C0,1.314,2.1.349,5.893.005l.732,1.062c-2.994.173-4.518.663-4.518,1.242,0,.722,3.37,1.308,7.527,1.308s7.527-.585,7.527-1.308c0-.585-1.682-1.081-4.732-1.248" transform="translate(0 15.089)"/>
      <path id="Stroke_7" data-name="Stroke 7" d="M12.429,1.061,13.144,0C16.969.34,19.2,1.308,19.2,2.45c0,1.425-4.3,2.58-9.6,2.58S0,3.875,0,2.45C0,1.314,2.1.349,5.893.005l.732,1.062c-2.994.173-4.518.663-4.518,1.242,0,.722,3.37,1.308,7.527,1.308s7.527-.585,7.527-1.308C17.162,1.724,15.479,1.228,12.429,1.061Z" transform="translate(0 15.089)" fill="#5a984f"/>
    </g>
    <g id="heart" transform="translate(223 531.5)">
      <g id="Shape" transform="translate(0)" fill="none" stroke-miterlimit="10">
        <path d="M11.721,19.851a1.414,1.414,0,0,1-.906-.324c-.965-.8-1.908-1.567-2.666-2.182l0,0a48.665,48.665,0,0,1-5.819-5.2A8.09,8.09,0,0,1,0,6.706,6.782,6.782,0,0,1,1.859,1.943,6.457,6.457,0,0,1,6.549,0a6.087,6.087,0,0,1,3.683,1.21,7.321,7.321,0,0,1,1.49,1.48A7.341,7.341,0,0,1,13.21,1.21,6.088,6.088,0,0,1,16.894,0a6.453,6.453,0,0,1,4.688,1.943,6.779,6.779,0,0,1,1.86,4.763,8.094,8.094,0,0,1-2.325,5.436,48.693,48.693,0,0,1-5.818,5.2l-.066.053c-.789.64-1.682,1.365-2.606,2.134A1.418,1.418,0,0,1,11.721,19.851ZM6.549,1.307A5.066,5.066,0,0,0,2.869,2.828a5.518,5.518,0,0,0-1.5,3.878,6.809,6.809,0,0,0,2.009,4.6,47.694,47.694,0,0,0,5.63,5.02l.023.019,0,0,.129.1c.772.627,1.647,1.337,2.551,2.089.894-.742,1.757-1.443,2.52-2.061l.168-.137.012-.01a47.727,47.727,0,0,0,5.642-5.029,6.813,6.813,0,0,0,2.009-4.6,5.521,5.521,0,0,0-1.5-3.878,5.066,5.066,0,0,0-3.679-1.521,4.705,4.705,0,0,0-2.844.937,6.467,6.467,0,0,0-1.585,1.745.89.89,0,0,1-1.489,0A6.446,6.446,0,0,0,9.392,2.244,4.705,4.705,0,0,0,6.549,1.307Z" stroke="none"/>
        <path d="M 11.72135734558105 19.85086441040039 C 11.38698768615723 19.85086441040039 11.0651273727417 19.73582458496094 10.8150577545166 19.52691459655762 C 9.850527763366699 18.72457504272461 8.90727710723877 17.9595947265625 8.149357795715332 17.34490394592285 L 8.144767761230469 17.34137344360352 C 5.784877300262451 15.4269437789917 3.746837377548218 13.77361392974854 2.325377464294434 12.14143371582031 C 0.7388973236083984 10.32009410858154 -2.654418949532555e-06 8.592894554138184 -2.654418949532555e-06 6.705813884735107 C -2.654418949532555e-06 4.87200403213501 0.6603373289108276 3.180464029312134 1.859387397766113 1.942804098129272 C 3.073267459869385 0.6899741291999817 4.738617420196533 4.112549049750669e-06 6.548657417297363 4.112549049750669e-06 C 7.902167320251465 4.112549049750669e-06 9.141297340393066 0.4071541130542755 10.23164749145508 1.210174083709717 C 10.78134727478027 1.614154100418091 11.28256702423096 2.112194061279297 11.72135734558105 2.690444231033325 C 12.16048717498779 2.111754179000854 12.66193771362305 1.613714098930359 13.2101469039917 1.210174083709717 C 14.30049705505371 0.4071541130542755 15.53994750976562 4.112549049750669e-06 16.89405822753906 4.112549049750669e-06 C 18.70442771911621 4.112549049750669e-06 20.36944770812988 0.6899741291999817 21.58241653442383 1.942804098129272 C 22.78204727172852 3.180134057998657 23.44271659851074 4.871664047241211 23.44271659851074 6.705813884735107 C 23.44271659851074 8.59184455871582 22.70381736755371 10.31904411315918 21.11733818054199 12.14143371582031 C 19.69847679138184 13.7706241607666 17.65976715087891 15.42450428009033 15.29912757873535 17.33952331542969 L 15.23333740234375 17.39289474487305 C 14.44476699829102 18.0327033996582 13.55095767974854 18.75788497924805 12.62765693664551 19.52691459655762 C 12.37666702270508 19.73582458496094 12.05480766296387 19.85086441040039 11.72135734558105 19.85086441040039 Z M 6.548657417297363 1.307264089584351 C 5.126427173614502 1.307264089584351 3.819747447967529 1.847394108772278 2.869337320327759 2.828144073486328 C 1.904547333717346 3.824494123458862 1.373207330703735 5.201603889465332 1.373207330703735 6.705813884735107 C 1.373207330703735 8.293563842773438 1.992777347564697 9.712703704833984 3.38211727142334 11.30729389190674 C 4.720527172088623 12.84503364562988 6.709287166595459 14.45890426635742 9.012087821960449 16.32760429382324 L 9.035477638244629 16.34658432006836 L 9.040077209472656 16.3501148223877 L 9.168737411499023 16.45453453063965 C 9.940917015075684 17.08111381530762 10.81588745117188 17.79111480712891 11.71952724456787 18.54360389709473 C 12.61320781707764 17.80202484130859 13.47696781158447 17.10086441040039 14.23903751373291 16.48223495483398 L 14.40723705291748 16.34569358825684 L 14.41905689239502 16.33611488342285 C 16.72689819335938 14.46420383453369 18.71996688842773 12.84759426116943 20.06060791015625 11.30729389190674 C 21.44993782043457 9.711653709411621 22.06950759887695 8.292513847351074 22.06950759887695 6.705813884735107 C 22.06950759887695 5.202564239501953 21.53816795349121 3.825444221496582 20.57337760925293 2.828144073486328 C 19.62296676635742 1.847394108772278 18.31628799438477 1.307264089584351 16.89405822753906 1.307264089584351 C 15.85200691223145 1.307264089584351 14.89526748657227 1.622374057769775 14.05040740966797 2.243804216384888 C 13.30043697357178 2.79582405090332 12.77446746826172 3.497474193572998 12.46529769897461 3.988884210586548 C 12.30778694152832 4.240923881530762 12.02967739105225 4.391394138336182 11.72135734558105 4.391394138336182 C 11.41246700286865 4.391394138336182 11.13401699066162 4.240923881530762 10.97650718688965 3.988884210586548 C 10.66912746429443 3.498854160308838 10.14475727081299 2.798324108123779 9.392317771911621 2.243804216384888 C 8.547447204589844 1.622374057769775 7.590707302093506 1.307264089584351 6.548657417297363 1.307264089584351 Z" stroke="none" fill="#5a984f"/>
      </g>
    </g>
    <g id="Group_75" data-name="Group 75" transform="translate(2839 -2581.5)">
      <g id="Ellipse_7" data-name="Ellipse 7" transform="translate(-2515.952 3113)" fill="none" stroke="#5a984f" stroke-width="1.25">
        <ellipse cx="5.052" cy="4.786" rx="5.052" ry="4.786" stroke="none"/>
        <ellipse cx="5.052" cy="4.786" rx="4.427" ry="4.161" fill="none"/>
      </g>
      <g id="Path_12" data-name="Path 12" transform="translate(-2520 3121.375)" fill="none">
        <path d="M9.028,0a9,9,0,0,1,9.028,8.973c0,4.956-4.042,2.2-9.028,2.2S0,13.929,0,8.973A9,9,0,0,1,9.028,0Z" stroke="none"/>
        <path d="M 9.027595520019531 1.249998092651367 C 4.739015579223633 1.249998092651367 1.249996185302734 4.71469783782959 1.249996185302734 8.973398208618164 C 1.249996185302734 10.03873825073242 1.465524673461914 10.38806819915771 1.558195114135742 10.48881816864014 C 1.679235458374023 10.6204080581665 1.95860481262207 10.68713855743408 2.388545989990234 10.68713855743408 C 3.011225700378418 10.68713855743408 3.814525604248047 10.54897880554199 4.744665145874023 10.38900852203369 C 6.015665054321289 10.17040824890137 7.456245422363281 9.922648429870605 9.027595520019531 9.922648429870605 C 10.59915542602539 9.922648429870605 12.03971481323242 10.17041778564453 13.31070518493652 10.38901805877686 C 14.24075508117676 10.54898834228516 15.04397583007812 10.68713855743408 15.66664505004883 10.68713855743408 C 16.09642601013184 10.68713855743408 16.37575531005859 10.62036800384521 16.49687576293945 10.48868846893311 C 16.58957481384277 10.38790798187256 16.80519485473633 10.03850841522217 16.80519485473633 8.973398208618164 C 16.80519485473633 4.71469783782959 13.31617546081543 1.249998092651367 9.027595520019531 1.249998092651367 M 9.027595520019531 -1.9073486328125e-06 C 14.01339530944824 -1.9073486328125e-06 18.05519485473633 4.017528533935547 18.05519485473633 8.973398208618164 C 18.05519485473633 11.31915283203125 17.14918327331543 11.93714141845703 15.66664409637451 11.93714141845703 C 14.01702117919922 11.93714141845703 11.65347862243652 11.17264842987061 9.027595520019531 11.17264842987061 C 6.402016639709473 11.17264842987061 4.038145065307617 11.93714141845703 2.388546943664551 11.93714141845703 C 0.9056663513183594 11.93714141845703 -3.814697265625e-06 11.31945610046387 -3.814697265625e-06 8.973398208618164 C -3.814697265625e-06 4.017528533935547 4.04179573059082 -1.9073486328125e-06 9.027595520019531 -1.9073486328125e-06 Z" stroke="none" fill="#5a984f"/>
      </g>
    </g>
  </g>
</svg>
