<svg xmlns="http://www.w3.org/2000/svg" width="316.213" height="38" viewBox="0 0 316.213 38">
  <g id="Group_76" data-name="Group 76" transform="translate(2776 -3088.5)">
    <g id="symbol_map" data-name="symbol/map" transform="translate(-2776 3092.5)">
      <rect id="Rectangle" width="24" height="24" fill="rgba(255,255,255,0)"/>
      <g id="Group_9" data-name="Group 9" transform="translate(2.88 2.88)">
        <path id="Fill_1" data-name="Fill 1" d="M4.828,14.4h0a36.714,36.714,0,0,1-2.5-3.516C1.194,9.077-.123,6.538.009,4.7A4.751,4.751,0,0,1,4.795,0,4.751,4.751,0,0,1,9.582,4.7c.187,1.937-1.115,4.471-2.241,6.255A32.433,32.433,0,0,1,4.829,14.4Zm0-12.16A2.459,2.459,0,0,0,2.353,4.674a2.477,2.477,0,0,0,4.954,0A2.459,2.459,0,0,0,4.83,2.24Z" transform="translate(4.8 0)"/>
        <path id="Stroke_3" data-name="Stroke 3" d="M4.828,14.4h0a36.714,36.714,0,0,1-2.5-3.516C1.194,9.077-.123,6.538.009,4.7A4.751,4.751,0,0,1,4.795,0,4.751,4.751,0,0,1,9.582,4.7c.187,1.937-1.115,4.471-2.241,6.255A32.433,32.433,0,0,1,4.829,14.4Zm0-12.16A2.459,2.459,0,0,0,2.353,4.674a2.477,2.477,0,0,0,4.954,0A2.459,2.459,0,0,0,4.83,2.24Z" transform="translate(4.8 0)" fill="#5a984f"/>
        <path id="Fill_5" data-name="Fill 5" d="M12.429,1.013,13.144,0C16.969.324,19.2,1.248,19.2,2.338,19.2,3.7,14.9,4.8,9.6,4.8S0,3.7,0,2.338C0,1.254,2.1.333,5.893,0l.732,1.014c-2.994.165-4.518.633-4.518,1.185,0,.689,3.37,1.248,7.527,1.248s7.527-.559,7.527-1.248c0-.559-1.682-1.031-4.732-1.191" transform="translate(0 14.4)"/>
        <path id="Stroke_7" data-name="Stroke 7" d="M12.429,1.013,13.144,0C16.969.324,19.2,1.248,19.2,2.338,19.2,3.7,14.9,4.8,9.6,4.8S0,3.7,0,2.338C0,1.254,2.1.333,5.893,0l.732,1.014c-2.994.165-4.518.633-4.518,1.185,0,.689,3.37,1.248,7.527,1.248s7.527-.559,7.527-1.248C17.162,1.645,15.479,1.172,12.429,1.013Z" transform="translate(0 14.4)" fill="#5a984f"/>
      </g>
    </g>
    <g id="symbol_events" data-name="symbol/events" transform="translate(-2709 3088.5)">
      <text id="E" fill="#5a984f" font-size="27" font-family="Kefa-Bold, Kefa" font-weight="700"><tspan x="4.148" y="25">E</tspan></text>
    </g>
    <g id="symbol_Reservation" data-name="symbol/Reservation" transform="translate(-2630.5 3091.5)">
      <rect id="Rectangle-2" data-name="Rectangle" width="24" height="24" fill="rgba(255,255,255,0)"/>
      <g id="Group" transform="translate(0.96 0.96)">
        <g id="Reservation" transform="translate(6.182 10.234)">
          <path id="Path_2" data-name="Path 2" d="M0,4.25l3.653,3.7L9.715,0" transform="translate(0 0)" fill="none" stroke="#5a984f" stroke-linecap="round" stroke-linejoin="round" stroke-miterlimit="10" stroke-width="2"/>
        </g>
        <g id="Shape_Copy" data-name="Shape Copy" transform="translate(0 0)" fill="#5a984f" stroke-miterlimit="10">
          <path d="M 17.7603816986084 21.58038139343262 L 4.320001602172852 21.58038139343262 C 2.21364164352417 21.58038139343262 0.5000016689300537 19.86674118041992 0.5000016689300537 17.7603816986084 L 0.5000016689300537 7.199711799621582 L 0.5000016689300537 6.239811420440674 C 0.5000016689300537 4.133451461791992 2.21364164352417 2.419811725616455 4.320001602172852 2.419811725616455 L 4.800381660461426 2.419811725616455 L 5.760291576385498 2.419811725616455 L 6.220191478729248 2.419811725616455 L 6.720191478729248 2.419811725616455 L 14.40029144287109 2.419811725616455 L 15.36019134521484 2.419811725616455 L 15.82010173797607 2.419811725616455 L 16.32010078430176 2.419811725616455 L 17.7603816986084 2.419811725616455 C 19.86674118041992 2.419811725616455 21.58038139343262 4.133451461791992 21.58038139343262 6.239811420440674 L 21.58038139343262 7.199711799621582 L 21.58038139343262 17.7603816986084 C 21.58038139343262 19.86674118041992 19.86674118041992 21.58038139343262 17.7603816986084 21.58038139343262 Z M 5.196091651916504 2.860091686248779 C 2.849431753158569 2.860091686248779 0.9402916431427002 4.745601654052734 0.9402916431427002 7.063201427459717 L 0.9402916431427002 7.88573169708252 L 0.9402916431427002 16.93699073791504 C 0.9402916431427002 19.25459098815918 2.849431753158569 21.14010238647461 5.196091651916504 21.14010238647461 L 16.88342094421387 21.14010238647461 C 19.23056221008301 21.14010238647461 21.14010238647461 19.25459098815918 21.14010238647461 16.93699073791504 L 21.14010238647461 7.88573169708252 L 21.14010238647461 7.063201427459717 C 21.14010238647461 4.745601654052734 19.23056221008301 2.860091686248779 16.88342094421387 2.860091686248779 L 13.96137142181396 2.860091686248779 L 5.614271640777588 2.860091686248779 L 5.196091651916504 2.860091686248779 Z" stroke="none"/>
          <path d="M 17.7603816986084 22.08038139343262 L 4.320001602172852 22.08038139343262 C 1.937941670417786 22.08038139343262 1.650390572649485e-06 20.14244079589844 1.650390572649485e-06 17.7603816986084 L 1.650390572649485e-06 7.199711799621582 L 1.650390572649485e-06 6.239811420440674 C 1.650390572649485e-06 3.857751607894897 1.937941670417786 1.919811606407166 4.320001602172852 1.919811606407166 L 4.800381660461426 1.919811606407166 L 5.760291576385498 1.919811606407166 L 5.760291576385498 0.4803816378116608 C 5.760291576385498 0.2155016511678696 5.975391864776611 1.650390572649485e-06 6.239811420440674 1.650390572649485e-06 C 6.504691600799561 1.650390572649485e-06 6.720191478729248 0.2155016511678696 6.720191478729248 0.4803816378116608 L 6.720191478729248 1.919811606407166 L 14.40029144287109 1.919811606407166 L 15.36019134521484 1.919811606407166 L 15.36019134521484 0.4803816378116608 C 15.36019134521484 0.2155016511678696 15.57530212402344 1.650390572649485e-06 15.83971118927002 1.650390572649485e-06 C 16.10459136962891 1.650390572649485e-06 16.32010078430176 0.2155016511678696 16.32010078430176 0.4803816378116608 L 16.32010078430176 1.919811606407166 L 17.7603816986084 1.919811606407166 C 20.14244079589844 1.919811606407166 22.08038139343262 3.857751607894897 22.08038139343262 6.239811420440674 L 22.08038139343262 7.199711799621582 L 22.08038139343262 17.7603816986084 C 22.08038139343262 20.14244079589844 20.14244079589844 22.08038139343262 17.7603816986084 22.08038139343262 Z M 5.196091651916504 3.360091686248779 C 3.125141620635986 3.360091686248779 1.4402916431427 5.021301746368408 1.4402916431427 7.063201427459717 L 1.4402916431427 7.88573169708252 L 1.4402916431427 16.93699073791504 C 1.4402916431427 18.97889137268066 3.125141620635986 20.64010238647461 5.196091651916504 20.64010238647461 L 16.88342094421387 20.64010238647461 C 18.95486259460449 20.64010238647461 20.64010238647461 18.97889137268066 20.64010238647461 16.93699073791504 L 20.64010238647461 7.88573169708252 L 20.64010238647461 7.063201427459717 C 20.64010238647461 5.021301746368408 18.95486259460449 3.360091686248779 16.88342094421387 3.360091686248779 L 13.96137142181396 3.360091686248779 L 5.614271640777588 3.360091686248779 L 5.196091651916504 3.360091686248779 Z" stroke="none" fill="#5a984f"/>
        </g>
      </g>
      <path id="Line" d="M.5.5H20.66" transform="translate(0.94 7.66)" fill="none" stroke="#5a984f" stroke-linecap="square" stroke-miterlimit="10" stroke-width="1"/>
    </g>
    <g id="symbol_favourites" data-name="symbol/favourites" transform="translate(-2553 3093.5)">
      <g id="heart" transform="translate(0.942 1.885)">
        <g id="Shape" transform="translate(0)" fill="none" stroke-miterlimit="10">
          <path d="M10.837,19.072A1.277,1.277,0,0,1,10,18.761c-.892-.771-1.764-1.506-2.465-2.1l0,0a45.633,45.633,0,0,1-5.38-5A7.929,7.929,0,0,1,0,6.443,6.658,6.658,0,0,1,1.719,1.867,5.859,5.859,0,0,1,6.054,0,5.487,5.487,0,0,1,9.459,1.163a6.9,6.9,0,0,1,1.377,1.422,6.924,6.924,0,0,1,1.376-1.422A5.489,5.489,0,0,1,15.619,0a5.855,5.855,0,0,1,4.335,1.867,6.655,6.655,0,0,1,1.72,4.576,7.933,7.933,0,0,1-2.15,5.222,45.658,45.658,0,0,1-5.379,4.994l-.061.051c-.729.615-1.555,1.311-2.409,2.05A1.281,1.281,0,0,1,10.837,19.072ZM6.054,1.256a4.6,4.6,0,0,0-3.4,1.461A5.418,5.418,0,0,0,1.27,6.443a6.671,6.671,0,0,0,1.857,4.421,44.717,44.717,0,0,0,5.205,4.823l.022.018,0,0,.119.1c.714.6,1.523,1.284,2.358,2.007.826-.712,1.625-1.386,2.329-1.981l.155-.131.011-.009a44.748,44.748,0,0,0,5.216-4.832A6.674,6.674,0,0,0,20.4,6.443a5.421,5.421,0,0,0-1.383-3.726,4.6,4.6,0,0,0-3.4-1.461,4.242,4.242,0,0,0-2.629.9,6.139,6.139,0,0,0-1.465,1.677.806.806,0,0,1-1.376,0A6.12,6.12,0,0,0,8.683,2.156,4.242,4.242,0,0,0,6.054,1.256Z" stroke="none"/>
          <path d="M 10.83672714233398 19.07240104675293 C 10.52759742736816 19.07240104675293 10.2300271987915 18.96187210083008 9.99882698059082 18.76116180419922 C 9.107096672058105 17.99028205871582 8.235027313232422 17.25529098510742 7.534317016601562 16.66471099853516 L 7.530066967010498 16.66132164001465 C 5.348287105560303 14.82196140289307 3.464057207107544 13.23347187042236 2.149877071380615 11.66530132293701 C 0.6831371188163757 9.91538143157959 -2.857666004274506e-06 8.255921363830566 -2.857666004274506e-06 6.442841529846191 C -2.857666004274506e-06 4.680941581726074 0.6105071306228638 3.055741548538208 1.719057083129883 1.866621494293213 C 2.84132719039917 0.6629114747047424 4.380987167358398 1.477050773246447e-06 6.054417133331299 1.477050773246447e-06 C 7.305777072906494 1.477050773246447e-06 8.451387405395508 0.3911914825439453 9.459446907043457 1.162711501121521 C 9.967667579650879 1.550851464271545 10.43105697631836 2.029361486434937 10.83672714233398 2.584941387176514 C 11.24270725250244 2.02894139289856 11.70631694793701 1.550431489944458 12.21315670013428 1.162711501121521 C 13.22121715545654 0.3911914825439453 14.36711692810059 1.477050773246447e-06 15.61903667449951 1.477050773246447e-06 C 17.29276657104492 1.477050773246447e-06 18.83213806152344 0.6629114747047424 19.95355796813965 1.866621494293213 C 21.06264686584473 3.055421590805054 21.6734561920166 4.68062162399292 21.6734561920166 6.442841529846191 C 21.6734561920166 8.254911422729492 20.99031639099121 9.91438102722168 19.5235767364502 11.66530132293701 C 18.21180725097656 13.23060131072998 16.32695770263672 14.81962108612061 14.14447689056396 16.65954208374023 L 14.08365726470947 16.7108211517334 C 13.3545970916748 17.32554054260254 12.52824687957764 18.02228164672852 11.67462730407715 18.76116180419922 C 11.44258689880371 18.96187210083008 11.14501667022705 19.07240104675293 10.83672714233398 19.07240104675293 Z M 6.054417133331299 1.256001472473145 C 4.739527225494385 1.256001472473145 3.531467199325562 1.774951457977295 2.652787208557129 2.717241525650024 C 1.760807156562805 3.674511432647705 1.269567131996155 4.997621536254883 1.269567131996155 6.442841529846191 C 1.269567131996155 7.968321323394775 1.842377185821533 9.331811904907227 3.126857042312622 10.86386108398438 C 4.364257335662842 12.34131145477295 6.202927112579346 13.89189147949219 8.331936836242676 15.68730163574219 L 8.353557586669922 15.70554161071777 L 8.357807159423828 15.7089319229126 L 8.476757049560547 15.80926132202148 C 9.190657615661621 16.4112720489502 9.999587059020996 17.09342193603516 10.83503723144531 17.8164005279541 C 11.66126728057861 17.10390090942383 12.45983695983887 16.43024063110352 13.16439723968506 15.83588123321533 L 13.31989669799805 15.70469188690186 L 13.33082675933838 15.695481300354 C 15.46448707580566 13.89697170257568 17.30713653564453 12.34377193450928 18.54659652709961 10.86386108398438 C 19.83107757568359 9.330811500549316 20.40388679504395 7.967311382293701 20.40388679504395 6.442841529846191 C 20.40388679504395 4.998541355133057 19.91264724731445 3.675421476364136 19.02066802978516 2.717241525650024 C 18.14198684692383 1.774951457977295 16.93392753601074 1.256001472473145 15.61903667449951 1.256001472473145 C 14.65562725067139 1.256001472473145 13.77109718322754 1.558751463890076 12.98999691009521 2.155811548233032 C 12.29663753509521 2.686181545257568 11.81035709381104 3.360321521759033 11.52451705932617 3.832461595535278 C 11.37889671325684 4.074611663818359 11.12177753448486 4.219181537628174 10.83672714233398 4.219181537628174 C 10.55115699768066 4.219181537628174 10.29371738433838 4.074611663818359 10.14808750152588 3.832461595535278 C 9.863906860351562 3.361641407012939 9.379117012023926 2.688581466674805 8.683457374572754 2.155811548233032 C 7.90235710144043 1.558751463890076 7.017827033996582 1.256001472473145 6.054417133331299 1.256001472473145 Z" stroke="none" fill="#5a984f"/>
        </g>
      </g>
      <rect id="Rectangle-3" data-name="Rectangle" width="24.5" height="24.5" fill="rgba(216,216,216,0)"/>
    </g>
    <g id="Group_75" data-name="Group 75" transform="translate(44.213 -19)">
      <g id="Ellipse_7" data-name="Ellipse 7" transform="translate(-2516.413 3113)" fill="none" stroke="#5a984f" stroke-width="1.25">
        <circle cx="4.477" cy="4.477" r="4.477" stroke="none"/>
        <circle cx="4.477" cy="4.477" r="3.852" fill="none"/>
      </g>
      <g id="Path_12" data-name="Path 12" transform="translate(-2520 3120.834)" fill="none">
        <path d="M8,0a8.2,8.2,0,0,1,8,8.394c0,4.636-3.582,2.057-8,2.057S0,13.029,0,8.394A8.2,8.2,0,0,1,8,0Z" stroke="none"/>
        <path d="M 8 1.250003814697266 C 4.278039932250977 1.250003814697266 1.25 4.454644203186035 1.25 8.393684387207031 C 1.25 9.406794548034668 1.447429656982422 9.712094306945801 1.507940292358398 9.781534194946289 C 1.60474967956543 9.892623901367188 1.892399787902832 9.91594409942627 2.116660118103027 9.91594409942627 C 2.650480270385742 9.91594409942627 3.354209899902344 9.78818416595459 4.169059753417969 9.640264511108398 C 5.303600311279297 9.434293746948242 6.589529991149902 9.200843811035156 8 9.200843811035156 C 9.410659790039062 9.200843811035156 10.69655990600586 9.434304237365723 11.83110046386719 9.640274047851562 C 12.64587020874023 9.78819465637207 13.34953022003174 9.91594409942627 13.88333988189697 9.91594409942627 C 14.10750961303711 9.91594409942627 14.39505958557129 9.892603874206543 14.49195003509521 9.781424522399902 C 14.55247974395752 9.711954116821289 14.75 9.406574249267578 14.75 8.393684387207031 C 14.75 4.454644203186035 11.72196006774902 1.250003814697266 8 1.250003814697266 M 8 3.814697265625e-06 C 12.41827964782715 3.814697265625e-06 16 3.757984161376953 16 8.393684387207031 C 16 10.58788871765137 15.19712448120117 11.16594886779785 13.88334083557129 11.16594886779785 C 12.42149353027344 11.16594886779785 10.32698631286621 10.45084381103516 8 10.45084381103516 C 5.673283576965332 10.45084381103516 3.578484535217285 11.16594886779785 2.116659164428711 11.16594886779785 C 0.8025741577148438 11.16594886779785 0 10.58817195892334 0 8.393684387207031 C 0 3.757984161376953 3.581720352172852 3.814697265625e-06 8 3.814697265625e-06 Z" stroke="none" fill="#5a984f"/>
      </g>
    </g>
  </g>
</svg>
