<svg xmlns="http://www.w3.org/2000/svg" xmlns:xlink="http://www.w3.org/1999/xlink" width="666" height="666" viewBox="0 0 666 666">
  <defs>
    <clipPath id="clip-path">
      <circle id="Ellipse_8" data-name="Ellipse 8" cx="333" cy="333" r="333" transform="translate(-9521 506)" fill="#fff" stroke="#707070" stroke-width="1"/>
    </clipPath>
    <clipPath id="clip-path-2">
      <path id="Clip_2" data-name="Clip 2" d="M0,0H198.315V492.425H0Z" fill="none"/>
    </clipPath>
    <clipPath id="clip-path-3">
      <path id="a" d="M.234,0,116.573,1.044V46.989H0Z" transform="translate(0.352 0.787)" fill="none"/>
    </clipPath>
  </defs>
  <g id="Mask_Group_2" data-name="Mask Group 2" transform="translate(9521 -506)" clip-path="url(#clip-path)">
    <g id="Group_77" data-name="Group 77">
      <circle id="Oval" cx="332.5" cy="332.5" r="332.5" transform="translate(-9521 506.5)" fill="#5a984f"/>
      <g id="Group_3" data-name="Group 3" transform="translate(-9247 528.5)">
        <path id="Clip_2-2" data-name="Clip 2" d="M0,0H118V293H0Z" fill="none"/>
        <g id="Group_3-2" data-name="Group 3" transform="translate(-40.315 -57.425)" clip-path="url(#clip-path-2)">
          <path id="Fill_1" data-name="Fill 1" d="M198.315,193.987c0-49.032-7.806-123.754-14.589-191.077A3.455,3.455,0,0,0,180.14,0H160.991a3.423,3.423,0,0,0-3.6,3.21V186.055a4.128,4.128,0,0,1-3.518,3.882c-3.855.774-5.221,1.473-9.172,2.092-2.7.425-5.182-1.457-5.182-3.9V3.21a3.423,3.423,0,0,0-3.6-3.21H112.426a3.423,3.423,0,0,0-3.6,3.21V191.636a4.18,4.18,0,0,1-4.309,3.944q-2.46.049-4.928.048c-2.311,0-2.047-.028-4.314-.081a4.206,4.206,0,0,1-4.321-3.953V3.21A3.425,3.425,0,0,0,87.352,0H63.128a3.422,3.422,0,0,0-3.6,3.21V185.184c0,3.45-3.464,6.057-7.291,5.537-4.505-.61-3.06-1.3-7.073-2.076a4.109,4.109,0,0,1-3.511-3.879V3.21A3.432,3.432,0,0,0,38.057,0H18.175a3.455,3.455,0,0,0-3.586,2.91C7.809,70.233,0,144.954,0,193.987c0,29.843,14.882,72.953,44.645,107.77,16.742,19.9,31.626,59.689,31.626,116.06l-1.759,70.572a4.2,4.2,0,0,0,4.428,4.036h40.44a4.192,4.192,0,0,0,4.425-4.032l-1.759-70.577c0-56.371,14.882-96.164,31.626-116.06,29.763-34.817,44.643-77.927,44.643-107.77" fill="#fff"/>
        </g>
      </g>
      <g id="Clipped" transform="translate(-9247 985.5)">
        <g id="Clipped-2" data-name="Clipped" clip-path="url(#clip-path-3)">
          <path id="Combined_Shape" data-name="Combined Shape" d="M109.243,39.572h0l-.252-.87a2.708,2.708,0,0,0,.887-.5,3.1,3.1,0,0,0,.852-1.154.765.765,0,0,0,.081-.247.938.938,0,0,0-.068-.27l-2.064-5.246h1.106l1.222,3.363c.131.389.267.835.357,1.165h.023c.034-.114.07-.239.109-.372.074-.257.157-.544.248-.816l1.108-3.34h1.072L112.4,35.336c-.778,2.089-1.261,2.989-1.915,3.566a2.682,2.682,0,0,1-1.244.671Zm-17.68-.27h-1V33.137c0-.716-.022-1.288-.047-1.858h.911l.047.976h.022a2.2,2.2,0,0,1,1.984-1.105,2.164,2.164,0,0,1,1.687.8,3.269,3.269,0,0,1,.676,2.1c0,2.112-1.274,3.058-2.537,3.058a1.945,1.945,0,0,1-1.717-.895h-.022V39.3h0Zm.07-6.048a1.739,1.739,0,0,0-.069.423v.978a2.332,2.332,0,0,0,.046.423,1.569,1.569,0,0,0,1.522,1.211c1.046,0,1.7-.842,1.7-2.2,0-1.463-.834-2.118-1.661-2.118A1.627,1.627,0,0,0,91.633,33.254ZM23.235,39.3h-1V33.137c0-.709-.023-1.3-.044-1.813l0-.044H23.1l.045.976h.024a2.262,2.262,0,0,1,3.669-.307,3.264,3.264,0,0,1,.677,2.1c0,2.112-1.274,3.058-2.537,3.058a1.943,1.943,0,0,1-1.717-.895h-.023V39.3h0Zm.07-6.048a1.731,1.731,0,0,0-.069.423v.978a2.3,2.3,0,0,0,.047.423A1.566,1.566,0,0,0,24.8,36.289c1.045,0,1.695-.842,1.695-2.2,0-1.463-.833-2.118-1.659-2.118A1.63,1.63,0,0,0,23.306,33.254Zm50.58.918a3.129,3.129,0,0,1,.8-2.226,2.73,2.73,0,0,1,4.651,2.131A2.751,2.751,0,0,1,76.56,37.1,2.689,2.689,0,0,1,73.885,34.172Zm1.026-.034c0,1.267.713,2.187,1.7,2.187s1.695-.931,1.695-2.212c0-1.054-.523-2.188-1.67-2.188C75.443,31.925,74.911,33.036,74.911,34.138ZM55.6,34.172a3.125,3.125,0,0,1,.8-2.226,2.729,2.729,0,0,1,4.649,2.131A2.749,2.749,0,0,1,58.271,37.1,2.689,2.689,0,0,1,55.6,34.172Zm1.025-.034c0,1.267.713,2.187,1.7,2.187s1.7-.931,1.7-2.212c0-1.054-.524-2.188-1.674-2.188C57.153,31.925,56.622,33.036,56.622,34.138Zm-20.988.069a3.278,3.278,0,0,1,.854-2.366,2.314,2.314,0,0,1,1.649-.691,1.853,1.853,0,0,1,1.683.871h.023v-3.4h1.014V35.5c0,.358.005,1.027.045,1.471h-.911l-.047-.987h-.022a2.052,2.052,0,0,1-1.9,1.117C36.637,37.1,35.634,35.884,35.634,34.207Zm1.027-.047c0,1.279.646,2.106,1.648,2.106A1.539,1.539,0,0,0,39.8,35.031a1.835,1.835,0,0,0,.047-.447V33.6a1.949,1.949,0,0,0-.047-.436,1.51,1.51,0,0,0-1.46-1.2h0C37.332,31.961,36.661,32.845,36.661,34.16Zm60.186,1.306c0-1.365,1.174-2.118,3.308-2.118h.046v-.117a1.157,1.157,0,0,0-1.269-1.318,2.743,2.743,0,0,0-1.451.423l-.232-.682a3.4,3.4,0,0,1,1.835-.5c1.752,0,2.12,1.266,2.12,2.328v2.129a8.167,8.167,0,0,0,.092,1.364h-.923l-.08-.717h-.034a2.067,2.067,0,0,1-1.707.846A1.6,1.6,0,0,1,96.846,35.466Zm1.714-1.154a1.077,1.077,0,0,0-.7,1.036.912.912,0,0,0,.958.988,1.4,1.4,0,0,0,1.349-.952,1.12,1.12,0,0,0,.058-.329v-.988l-.163,0A3.731,3.731,0,0,0,98.561,34.313ZM69.385,36.291a2.976,2.976,0,0,1-.759-2.106,3.076,3.076,0,0,1,.816-2.17,2.955,2.955,0,0,1,2.182-.854,3.324,3.324,0,0,1,1.408.294l-.231.8a2.3,2.3,0,0,0-1.176-.27,1.957,1.957,0,0,0-1.971,2.153,1.93,1.93,0,0,0,1.938,2.128,2.868,2.868,0,0,0,1.245-.281l.173.775a3.669,3.669,0,0,1-1.6.331A2.706,2.706,0,0,1,69.385,36.291Zm-18.506.41.255-.787a2.621,2.621,0,0,0,1.336.41c.669,0,1.084-.324,1.084-.846,0-.483-.272-.758-1.037-1.047-.967-.351-1.477-.908-1.477-1.611a1.733,1.733,0,0,1,1.926-1.67,2.757,2.757,0,0,1,1.372.352l-.254.753a2.136,2.136,0,0,0-1.137-.328c-.467,0-.939.239-.939.775,0,.472.327.68,1.061.966,1.025.4,1.463.912,1.463,1.717,0,1.036-.819,1.7-2.085,1.7A3.143,3.143,0,0,1,50.879,36.7Zm34.387.272h-.991v-3.41c0-.981-.436-1.566-1.165-1.566a1.385,1.385,0,0,0-1.256,1.036,1.45,1.45,0,0,0-.081.506v3.434h-.992V32.82c0-.638-.014-1.1-.046-1.541h.888l.046.917H81.7a1.918,1.918,0,0,1,1.751-1.047,1.659,1.659,0,0,1,1.579,1.141h.023a2.356,2.356,0,0,1,.622-.742,1.894,1.894,0,0,1,1.235-.4c.886,0,1.833.649,1.833,2.47v3.351h-.992V33.749c0-1.147-.419-1.753-1.211-1.753a1.326,1.326,0,0,0-1.2.942,1.7,1.7,0,0,0-.08.517v3.517h0Zm-56.864,0,2.641-7.929h1.21L34.9,36.97l-1.073,0L33,34.479H30.246l-.806,2.493H28.4Zm2.814-5.587-.76,2.294H32.8L32.035,31.4c-.163-.485-.274-.929-.382-1.359l-.022-.087h-.023C31.492,30.434,31.36,30.916,31.217,31.385Zm75.523,2.3c0-.628-.168-1.682-1.291-1.682a1.442,1.442,0,0,0-1.361,1.058,1.544,1.544,0,0,0-.069.483v3.422h-1.013V32.82c0-.621-.014-1.1-.047-1.541h.9l.058.941h.024a2.056,2.056,0,0,1,1.842-1.07c.329,0,1.973.117,1.973,2.423v3.4h-1.015ZM63.494,36.972h-1V33.055c0-.718-.015-1.283-.047-1.778h.887l.036,1.118h.045a1.682,1.682,0,0,1,1.546-1.247,1.042,1.042,0,0,1,.287.036v.976a1.472,1.472,0,0,0-.322-.035H64.9a1.439,1.439,0,0,0-1.362,1.33,2.879,2.879,0,0,0-.046.482v3.034h0Zm-14.07,0H48.411V31.28h1.014v5.692h0Zm-4.325,0h-.967L42.011,31.28H43.1l1.1,3.2a15.235,15.235,0,0,1,.449,1.46h.034c.121-.449.271-.891.472-1.458l1.084-3.2h1.061L45.1,36.971h0Zm-24.712,0H19.373V31.28h1.015v5.692h0ZM2.309,35.108c0-1.359,1.172-2.108,3.3-2.108h.046v-.116A1.152,1.152,0,0,0,4.39,31.572a2.735,2.735,0,0,0-1.448.421l-.23-.679a3.42,3.42,0,0,1,1.827-.5c1.748,0,2.115,1.26,2.115,2.318v2.119a7.972,7.972,0,0,0,.091,1.359H5.827l-.08-.715H5.711a2.053,2.053,0,0,1-1.7.842A1.593,1.593,0,0,1,2.309,35.108ZM4.02,33.96a1.072,1.072,0,0,0-.7,1.031.908.908,0,0,0,.955.983,1.394,1.394,0,0,0,1.345-.948,1.085,1.085,0,0,0,.057-.328v-.984l-.163,0A3.7,3.7,0,0,0,4.02,33.96Zm12.91,2.648h-1v-3.9c0-.734-.014-1.279-.046-1.769h.885l.036,1.112h.045a1.676,1.676,0,0,1,1.54-1.241,1.058,1.058,0,0,1,.287.036v.971a1.462,1.462,0,0,0-.32-.035h-.023a1.433,1.433,0,0,0-1.356,1.324,3.049,3.049,0,0,0-.046.48v3.02h0Zm-3.84,0H12.079V29.583H9.723v-.867h5.735v.867H13.09v7.024h0Zm35.8-6.294a.593.593,0,0,1-.43-.184.654.654,0,0,1,.461-1.1.66.66,0,0,1,.459,1.093.66.66,0,0,1-.482.189Zm-29.038,0a.593.593,0,0,1-.43-.184.654.654,0,0,1,.462-1.1.659.659,0,0,1,.458,1.093.661.661,0,0,1-.482.189Zm-15.9-6.205A5.228,5.228,0,0,1,2.48,20.12v-9.3H0v-2.9H2.48V3H6.251V7.922h5.192v2.9H6.251v8.59c0,1.7.563,2.428,1.884,2.428a5.966,5.966,0,0,0,2.647-.776l.959,2.965a8.331,8.331,0,0,1-4.333,1.313A4.93,4.93,0,0,1,3.952,24.108ZM66.73,22.782a9,9,0,0,1-2.551-6.571,9,9,0,0,1,2.551-6.584,9.995,9.995,0,0,1,13.258,0,9.015,9.015,0,0,1,2.546,6.584,9.008,9.008,0,0,1-2.546,6.571,9.959,9.959,0,0,1-13.259,0Zm2.758-10.724a6,6,0,0,0-1.5,4.187,6.051,6.051,0,0,0,1.5,4.216,5.453,5.453,0,0,0,7.745,0,6.071,6.071,0,0,0,1.5-4.216c0-3.413-2.2-5.8-5.358-5.8A5.163,5.163,0,0,0,69.488,12.057ZM34.5,16.244a9.158,9.158,0,0,1,2.489-6.587,8.819,8.819,0,0,1,6.407-2.545,7.982,7.982,0,0,1,6.116,2.266c1.672,1.8,2.385,4.595,2.119,8.315H38.333a5.387,5.387,0,0,0,5.458,4.482,6.786,6.786,0,0,0,4.96-2.089l2.018,2.191a8.768,8.768,0,0,1-3.141,2.236,10.548,10.548,0,0,1-4.135.8C38.111,25.309,34.5,21.666,34.5,16.244Zm5.469-4.781a5.619,5.619,0,0,0-1.7,3.4H48.32a4.564,4.564,0,0,0-4.894-4.651A5.053,5.053,0,0,0,39.965,11.463Zm61.4,13.712h-3.8v-25h3.8v15.1l7.772-8.02H113.5l-6.516,6.942L114,25.173l-4.5,0-5.161-8.223-2.976,3.2v5.02h0Zm-82.455,0h-3.8v-25h3.8V10.752a6.189,6.189,0,0,1,2.6-2.767,8.15,8.15,0,0,1,3.916-.873,6.406,6.406,0,0,1,4.811,1.849,7.207,7.207,0,0,1,1.736,5.06V25.174h-3.8V15.1a4.459,4.459,0,0,0-1.124-3.184,4.205,4.205,0,0,0-3.109-1.163c-3.007.032-5.027,2.281-5.027,5.594v8.829h0Zm70.176,0h-3.8V7.247h3.8v3.572a6.375,6.375,0,0,1,6.086-3.707v3.707c-.148-.008-.3-.014-.459-.014a5.689,5.689,0,0,0-3.934,1.4,5.5,5.5,0,0,0-1.693,3.6v9.368h0Zm-29.768,0H55.549V10.818H53.232V7.92h2.315V6.169a6.041,6.041,0,0,1,1.886-4.651A6.19,6.19,0,0,1,61.6,0a6.64,6.64,0,0,1,3.968,1.247L64.113,4.214A4.222,4.222,0,0,0,61.7,3.371a2.427,2.427,0,0,0-1.674.581A2.41,2.41,0,0,0,59.317,5.8V7.921h4.6v2.9h-4.6V25.174h0Z" transform="translate(3 8.204)" fill="#fff"/>
        </g>
      </g>
    </g>
  </g>
</svg>
