<svg xmlns="http://www.w3.org/2000/svg" width="249.979" height="435.535" viewBox="0 0 249.979 435.535">
  <g id="Group_397" data-name="Group 397" transform="translate(14456.892 -5183.607) rotate(-90)">
    <g id="bg_wallpaper_gray-02" data-name="bg wallpaper gray-02" transform="translate(-5783 -14479)">
      <path id="Path_25508" data-name="Path 25508" d="M651.437,232.7c14.218,31.362-41.977,70.578-76.334,68.3-111.223-7.375-114.716-137.748,0-136.6C612.3,164.772,645.516,219.627,651.437,232.7Z" transform="translate(-326.513 -127.83)" fill="#90949c" opacity="0.25" style="isolation: isolate"/>
      <path id="Path_25509" data-name="Path 25509" d="M654.943,242.952c12.573,27.759-37.156,62.471-67.567,60.445-98.456-6.53-101.547-121.931,0-120.916C620.3,182.823,649.7,231.389,654.943,242.952Z" transform="translate(-339.209 -138.265)" fill="none" stroke="#1a1a1a" stroke-miterlimit="10" stroke-width="1" opacity="0.25"/>
      <path id="Path_25510" data-name="Path 25510" d="M657.684,249.791c11.587,25.573-34.225,57.54-62.234,55.683-90.679-6.014-93.529-112.3,0-111.363C625.772,194.416,652.854,239.142,657.684,249.791Z" transform="translate(-347.287 -144.977)" fill="none" stroke="#1a1a1a" stroke-miterlimit="10" stroke-width="1" opacity="0.25"/>
      <path id="Path_25511" data-name="Path 25511" d="M660.253,259.214c10.226,22.562-30.191,50.778-54.922,49.137-80.021-5.3-82.534-99.1,0-98.278C632.092,210.343,655.99,249.817,660.253,259.214Z" transform="translate(-357.676 -154.189)" fill="none" stroke="#1a1a1a" stroke-miterlimit="10" stroke-width="1" opacity="0.25"/>
      <path id="Path_25512" data-name="Path 25512" d="M664.665,273.161c8.06,17.762-23.792,40.007-43.267,38.717-63.038-4.182-65-78.08,0-77.433C642.488,234.643,661.319,265.743,664.665,273.161Z" transform="translate(-374.419 -168.254)" fill="none" stroke="#1a1a1a" stroke-miterlimit="10" stroke-width="1" opacity="0.25"/>
      <path id="Path_25513" data-name="Path 25513" d="M667.3,278.413c7.32,16.151-21.615,36.34-39.3,35.169-57.274-3.806-59.071-70.929,0-70.337C647.148,243.414,664.238,271.668,667.3,278.413Z" transform="translate(-380.759 -173.333)" fill="none" stroke="#1a1a1a" stroke-miterlimit="10" stroke-width="1" opacity="0.25"/>
      <path id="Path_25514" data-name="Path 25514" d="M669.883,286.788c5.959,13.148-17.593,29.582-31.992,28.626-46.612-3.091-48.08-57.73,0-57.248C653.487,258.322,667.4,281.315,669.883,286.788Z" transform="translate(-391.153 -181.944)" fill="none" stroke="#1a1a1a" stroke-miterlimit="10" stroke-width="1" opacity="0.25"/>
      <path id="Path_25515" data-name="Path 25515" d="M673.027,295.873c4.559,10.057-13.465,22.634-24.482,21.9-35.672-2.364-36.792-44.176,0-43.808C660.471,274.085,671.116,291.682,673.027,295.873Z" transform="translate(-402.113 -191.064)" fill="none" stroke="#1a1a1a" stroke-miterlimit="10" stroke-width="1" opacity="0.25"/>
      <path id="Path_25516" data-name="Path 25516" d="M676.136,304.954c3.163,6.974-9.329,15.69-16.971,15.182-24.727-1.637-25.5-30.622,0-30.369C667.454,289.865,674.838,302.049,676.136,304.954Z" transform="translate(-413.054 -200.183)" fill="none" stroke="#1a1a1a" stroke-miterlimit="10" stroke-width="1" opacity="0.25"/>
      <path id="Path_25517" data-name="Path 25517" d="M679.083,313.1c2.094,4.618-6.179,10.391-11.236,10.057-16.375-1.087-16.891-20.3,0-20.109C673.323,303.1,678.211,311.181,679.083,313.1Z" transform="translate(-421.735 -207.847)" fill="none" stroke="#1a1a1a" stroke-miterlimit="10" stroke-width="1" opacity="0.25"/>
      <path id="Path_25518" data-name="Path 25518" d="M662.677,266.818c9.025,19.91-26.643,44.828-48.465,43.36-70.625-4.682-72.836-87.452,0-86.725C637.8,223.682,658.9,258.508,662.677,266.818Z" transform="translate(-366.933 -161.911)" fill="none" stroke="#1a1a1a" stroke-miterlimit="10" stroke-width="1" opacity="0.25"/>
      <path id="Path_25548" data-name="Path 25548" d="M1015.12,525.636c-20.917,26.6-54.753,36.792-96.984,25.34-51.564-14-68.155-49.454-50.325-86.695,15.225-31.806,47.479-34.843,96.984-25.34C1020.516,449.611,1044.9,487.749,1015.12,525.636Z" transform="translate(-540.341 -283.536)" fill="#90949c" opacity="0.25" style="isolation: isolate"/>
      <path id="Path_25549" data-name="Path 25549" d="M1017.611,530.038c-19.284,24.528-50.477,33.934-89.41,23.365-47.538-12.907-62.835-45.6-46.384-79.928,14.053-29.32,43.758-32.141,89.431-23.365C1022.589,459.976,1045.07,495.124,1017.611,530.038Z" transform="translate(-548.732 -290.192)" fill="none" stroke="#1a1a1a" stroke-miterlimit="10" stroke-width="1" opacity="0.25"/>
      <path id="Path_25550" data-name="Path 25550" d="M1023.465,536.274c-16.683,21.217-43.673,29.358-77.353,20.211-41.127-11.165-54.36-39.444-40.129-69.149,12.154-25.374,37.871-27.793,77.353-20.215C1027.771,475.634,1047.22,506.083,1023.465,536.274Z" transform="translate(-563.175 -300.352)" fill="none" stroke="#1a1a1a" stroke-miterlimit="10" stroke-width="1" opacity="0.25"/>
      <path id="Path_25551" data-name="Path 25551" d="M1027.08,539.579c-15.351,19.521-40.176,27.011-71.17,18.608-37.841-10.276-50.017-36.293-36.924-63.625,11.186-23.344,34.843-25.569,71.17-18.608C1031.038,483.8,1048.948,511.782,1027.08,539.579Z" transform="translate(-570.934 -305.628)" fill="none" stroke="#1a1a1a" stroke-miterlimit="10" stroke-width="1" opacity="0.25"/>
      <path id="Path_25552" data-name="Path 25552" d="M1030.913,546.4c-12.64,16.07-33.088,22.245-58.606,15.318-31.164-8.458-41.186-29.886-30.407-52.393,9.211-19.225,28.694-21.056,58.61-15.318C1034.174,500.465,1048.912,523.514,1030.913,546.4Z" transform="translate(-584.676 -316.396)" fill="none" stroke="#1a1a1a" stroke-miterlimit="10" stroke-width="1" opacity="0.25"/>
      <path id="Path_25553" data-name="Path 25553" d="M1036.037,553.464c-10.073,12.805-26.359,17.719-46.688,12.2-24.833-6.766-32.809-23.805-24.22-41.736,7.337-15.313,22.837-16.772,46.684-12.2C1038.633,516.87,1050.365,535.229,1036.037,553.464Z" transform="translate(-598.571 -326.961)" fill="none" stroke="#1a1a1a" stroke-miterlimit="10" stroke-width="1" opacity="0.25"/>
      <path id="Path_25554" data-name="Path 25554" d="M1042.327,561.376c-6.982,8.881-18.269,12.264-32.356,8.458-17.2-4.652-22.739-16.493-16.785-28.922,5.075-10.615,15.842-11.626,32.356-8.458C1044.125,536.023,1052.249,548.744,1042.327,561.376Z" transform="translate(-615.353 -339.326)" fill="none" stroke="#1a1a1a" stroke-miterlimit="10" stroke-width="1" opacity="0.25"/>
      <path id="Path_25555" data-name="Path 25555" d="M1046.724,566.52c-4.762,6.052-12.459,8.378-22.067,5.768-11.735-3.184-15.508-11.253-11.448-19.728,3.468-7.236,10.8-7.929,22.067-5.764C1047.95,549.219,1053.5,557.906,1046.724,566.52Z" transform="translate(-627.333 -347.891)" fill="none" stroke="#1a1a1a" stroke-miterlimit="10" stroke-width="1" opacity="0.25"/>
      <path id="Path_25556" data-name="Path 25556" d="M1053.667,571.342c-2.6,3.3-6.8,4.572-12.048,3.146-6.411-1.738-8.458-6.145-6.255-10.771,1.895-3.954,5.921-4.331,12.053-3.151C1054.339,561.895,1057.372,566.635,1053.667,571.342Z" transform="translate(-640.534 -356.122)" fill="none" stroke="#1a1a1a" stroke-miterlimit="10" stroke-width="1" opacity="0.25"/>
      <path id="Path_25565" data-name="Path 25565" d="M1315.3,190.982c24.486,38.535-26.842,49.573-68.933,56.457-53.023,8.669-76.262,8.234-68.933-56.457,3.929-34.678,25.141-73.982,68.933-56.457C1279.011,147.588,1302.609,171.021,1315.3,190.982Z" transform="translate(-722.253 -108.105)" fill="#90949c" opacity="0.25" style="isolation: isolate"/>
      <path id="Path_25566" data-name="Path 25566" d="M1317.2,196.113c23.061,36.293-25.281,46.688-64.924,53.171-49.94,8.166-71.826,7.756-64.924-53.171,3.7-32.665,23.682-69.682,64.924-53.176C1283.028,155.243,1305.256,177.31,1317.2,196.113Z" transform="translate(-728.025 -113.104)" fill="none" stroke="#1a1a1a" stroke-miterlimit="10" stroke-width="1" opacity="0.25"/>
      <path id="Path_25567" data-name="Path 25567" d="M1319.775,202.706c21.052,33.13-23.078,42.62-59.261,48.536-45.589,7.456-65.55,7.079-59.266-48.536,3.383-29.819,21.615-63.6,59.266-48.536C1288.582,165.38,1308.852,185.54,1319.775,202.706Z" transform="translate(-736.108 -119.79)" fill="none" stroke="#1a1a1a" stroke-miterlimit="10" stroke-width="1" opacity="0.25"/>
      <path id="Path_25568" data-name="Path 25568" d="M1323.139,209.508c19.031,29.908-20.832,38.484-53.506,43.821-41.157,6.728-59.206,6.394-53.506-43.821,3.049-26.922,19.517-57.426,53.506-43.825C1294.986,175.824,1313.294,194.013,1323.139,209.508Z" transform="translate(-744.754 -126.643)" fill="none" stroke="#1a1a1a" stroke-miterlimit="10" stroke-width="1" opacity="0.25"/>
      <path id="Path_25569" data-name="Path 25569" d="M1325.969,218.49c16.519,25.992-18.1,33.439-46.494,38.061-35.765,5.849-51.437,5.553-46.519-38.061,2.651-23.391,16.958-49.9,46.519-38.061C1301.5,189.221,1317.414,205.025,1325.969,218.49Z" transform="translate(-754.549 -135.4)" fill="none" stroke="#1a1a1a" stroke-miterlimit="10" stroke-width="1" opacity="0.25"/>
      <path id="Path_25570" data-name="Path 25570" d="M1328.071,225.182c14.594,22.968-16,29.548-41.085,33.65-31.608,5.168-45.458,4.91-41.089-33.65,2.343-20.671,14.983-44.1,41.089-33.65A88.894,88.894,0,0,1,1328.071,225.182Z" transform="translate(-762.072 -142.008)" fill="none" stroke="#1a1a1a" stroke-miterlimit="10" stroke-width="1" opacity="0.25"/>
      <path id="Path_25571" data-name="Path 25571" d="M1331.326,234.766c11.841,18.608-12.958,23.928-33.274,27.252-25.6,4.187-36.793,3.975-33.274-27.252,1.895-16.743,12.133-35.714,33.274-27.256A72.13,72.13,0,0,1,1331.326,234.766Z" transform="translate(-773.058 -151.512)" fill="none" stroke="#1a1a1a" stroke-miterlimit="10" stroke-width="1" opacity="0.25"/>
      <path id="Path_25572" data-name="Path 25572" d="M1334.676,242.236c9.6,15.106-10.522,19.453-27.024,22.135-20.79,3.383-29.9,3.227-27.027-22.135,1.543-13.6,9.858-29.007,27.027-22.135A58.506,58.506,0,0,1,1334.676,242.236Z" transform="translate(-782.269 -159.003)" fill="none" stroke="#1a1a1a" stroke-miterlimit="10" stroke-width="1" opacity="0.25"/>
      <path id="Path_25573" data-name="Path 25573" d="M1339.008,249.41c7.189,11.321-7.887,14.565-20.257,16.586-15.58,2.537-22.414,2.423-20.253-16.586,1.155-10.192,7.388-21.741,20.253-16.59A43.882,43.882,0,0,1,1339.008,249.41Z" transform="translate(-792.657 -166.588)" fill="none" stroke="#1a1a1a" stroke-miterlimit="10" stroke-width="1" opacity="0.25"/>
      <path id="Path_25574" data-name="Path 25574" d="M1342.041,257.681c4.563,7.189-5,9.236-12.844,10.522-9.879,1.616-14.209,1.535-12.844-10.522.732-6.462,4.686-13.782,12.844-10.518A27.8,27.8,0,0,1,1342.041,257.681Z" transform="translate(-803.045 -175.133)" fill="none" stroke="#1a1a1a" stroke-miterlimit="10" stroke-width="1" opacity="0.25"/>
    </g>
  </g>
</svg>
