<svg xmlns="http://www.w3.org/2000/svg" xmlns:xlink="http://www.w3.org/1999/xlink" width="1920" height="1079" viewBox="0 0 1920 1079">
  <defs>
    <clipPath id="clip-Bg-desktop-2_1">
      <rect width="1920" height="1079"/>
    </clipPath>
  </defs>
  <g id="Bg-desktop-2_1" data-name="Bg-desktop-2 – 1" clip-path="url(#clip-Bg-desktop-2_1)">
    <g id="Group_399" data-name="Group 399" transform="translate(-19 -112)">
      <path id="Path_25549" data-name="Path 25549" d="M1255.9,671.33c-51.6,65.638-135.078,90.806-239.26,62.525C889.429,699.317,848.5,611.838,892.518,519.968c37.606-78.459,117.1-86.008,239.317-62.525C1269.221,483.844,1329.381,577.9,1255.9,671.33Z" transform="translate(-886.184 -353.683)" fill="none" stroke="#1a1a1a" stroke-miterlimit="10" stroke-width="3" opacity="0.25"/>
      <path id="Path_25550" data-name="Path 25550" d="M1229.621,658.51c-44.645,56.776-116.869,78.561-207,54.083C912.569,682.716,877.159,607.041,915.24,527.552c32.524-67.9,101.342-74.374,207-54.094C1241.141,496.238,1293.188,577.719,1229.621,658.51Z" transform="translate(-882.888 -351.364)" fill="none" stroke="#1a1a1a" stroke-miterlimit="10" stroke-width="3" opacity="0.25"/>
      <path id="Path_25551" data-name="Path 25551" d="M1216.76,652.032c-41.08,52.238-107.51,72.281-190.451,49.794-101.263-27.5-133.844-97.121-98.807-170.261,29.933-62.469,93.239-68.421,190.451-49.794C1227.353,502.775,1275.279,577.647,1216.76,652.032Z" transform="translate(-881.118 -350.16)" fill="none" stroke="#1a1a1a" stroke-miterlimit="10" stroke-width="3" opacity="0.25"/>
      <path id="Path_25552" data-name="Path 25552" d="M1187.109,639.005c-33.826,43-88.543,59.526-156.828,40.99-83.394-22.634-110.214-79.976-81.368-140.2,24.648-51.446,76.785-56.346,156.84-40.99C1195.834,516.094,1235.273,577.77,1187.109,639.005Z" transform="translate(-877.982 -347.704)" fill="none" stroke="#1a1a1a" stroke-miterlimit="10" stroke-width="3" opacity="0.25"/>
      <path id="Path_25553" data-name="Path 25553" d="M1160.468,627.236c-26.957,34.267-70.538,47.417-124.938,32.649-66.452-18.107-87.8-63.7-64.812-111.686,19.635-40.978,61.111-44.883,124.926-32.649C1167.416,529.311,1198.809,578.438,1160.468,627.236Z" transform="translate(-874.812 -345.293)" fill="none" stroke="#1a1a1a" stroke-miterlimit="10" stroke-width="3" opacity="0.25"/>
      <path id="Path_25555" data-name="Path 25555" d="M1105.536,601.388c-12.743,16.194-33.339,22.419-59.051,15.436-31.4-8.522-41.5-30.114-30.635-52.793,9.28-19.363,28.9-21.219,59.051-15.425C1108.818,555.091,1123.666,578.336,1105.536,601.388Z" transform="translate(-868.249 -340.518)" fill="none" stroke="#1a1a1a" stroke-miterlimit="10" stroke-width="3" opacity="0.25"/>
      <path id="Path_25556" data-name="Path 25556" d="M1085.775,590.388c-6.948,8.838-18.209,12.234-32.242,8.42-17.156-4.651-22.634-16.443-16.738-28.824,5.07-10.581,15.844-11.588,32.253-8.431C1087.575,565.107,1095.689,577.793,1085.775,590.388Z" transform="translate(-865.236 -338.639)" fill="none" stroke="#1a1a1a" stroke-miterlimit="10" stroke-width="3" opacity="0.25"/>
    </g>
    <g id="Group_427" data-name="Group 427" transform="translate(1075 -138)">
      <path id="Path_25549-2" data-name="Path 25549" d="M1255.9,671.33c-51.6,65.638-135.078,90.806-239.26,62.525C889.429,699.317,848.5,611.838,892.518,519.968c37.606-78.459,117.1-86.008,239.317-62.525C1269.221,483.844,1329.381,577.9,1255.9,671.33Z" transform="translate(-886.184 -353.683)" fill="none" stroke="#1a1a1a" stroke-miterlimit="10" stroke-width="3" opacity="0.25"/>
      <path id="Path_25550-2" data-name="Path 25550" d="M1229.621,658.51c-44.645,56.776-116.869,78.561-207,54.083C912.569,682.716,877.159,607.041,915.24,527.552c32.524-67.9,101.342-74.374,207-54.094C1241.141,496.238,1293.188,577.719,1229.621,658.51Z" transform="translate(-882.888 -351.364)" fill="none" stroke="#1a1a1a" stroke-miterlimit="10" stroke-width="3" opacity="0.25"/>
      <path id="Path_25551-2" data-name="Path 25551" d="M1216.76,652.032c-41.08,52.238-107.51,72.281-190.451,49.794-101.263-27.5-133.844-97.121-98.807-170.261,29.933-62.469,93.239-68.421,190.451-49.794C1227.353,502.775,1275.279,577.647,1216.76,652.032Z" transform="translate(-881.118 -350.16)" fill="none" stroke="#1a1a1a" stroke-miterlimit="10" stroke-width="3" opacity="0.25"/>
      <path id="Path_25552-2" data-name="Path 25552" d="M1187.109,639.005c-33.826,43-88.543,59.526-156.828,40.99-83.394-22.634-110.214-79.976-81.368-140.2,24.648-51.446,76.785-56.346,156.84-40.99C1195.834,516.094,1235.273,577.77,1187.109,639.005Z" transform="translate(-877.982 -347.704)" fill="none" stroke="#1a1a1a" stroke-miterlimit="10" stroke-width="3" opacity="0.25"/>
      <path id="Path_25553-2" data-name="Path 25553" d="M1160.468,627.236c-26.957,34.267-70.538,47.417-124.938,32.649-66.452-18.107-87.8-63.7-64.812-111.686,19.635-40.978,61.111-44.883,124.926-32.649C1167.416,529.311,1198.809,578.438,1160.468,627.236Z" transform="translate(-874.812 -345.293)" fill="none" stroke="#1a1a1a" stroke-miterlimit="10" stroke-width="3" opacity="0.25"/>
      <path id="Path_25555-2" data-name="Path 25555" d="M1105.536,601.388c-12.743,16.194-33.339,22.419-59.051,15.436-31.4-8.522-41.5-30.114-30.635-52.793,9.28-19.363,28.9-21.219,59.051-15.425C1108.818,555.091,1123.666,578.336,1105.536,601.388Z" transform="translate(-868.249 -340.518)" fill="none" stroke="#1a1a1a" stroke-miterlimit="10" stroke-width="3" opacity="0.25"/>
      <path id="Path_25556-2" data-name="Path 25556" d="M1085.775,590.388c-6.948,8.838-18.209,12.234-32.242,8.42-17.156-4.651-22.634-16.443-16.738-28.824,5.07-10.581,15.844-11.588,32.253-8.431C1087.575,565.107,1095.689,577.793,1085.775,590.388Z" transform="translate(-865.236 -338.639)" fill="none" stroke="#1a1a1a" stroke-miterlimit="10" stroke-width="3" opacity="0.25"/>
    </g>
    <g id="Group_404" data-name="Group 404" transform="translate(274.693 38)">
      <path id="Path_25549-3" data-name="Path 25549" d="M1255.9,671.33c-51.6,65.638-135.078,90.806-239.26,62.525C889.429,699.317,848.5,611.838,892.518,519.968c37.606-78.459,117.1-86.008,239.317-62.525C1269.221,483.844,1329.381,577.9,1255.9,671.33Z" transform="translate(-886.184 -353.683)" fill="none" stroke="#1a1a1a" stroke-miterlimit="10" stroke-width="3" opacity="0.25"/>
      <path id="Path_25550-3" data-name="Path 25550" d="M1229.621,658.51c-44.645,56.776-116.869,78.561-207,54.083C912.569,682.716,877.159,607.041,915.24,527.552c32.524-67.9,101.342-74.374,207-54.094C1241.141,496.238,1293.188,577.719,1229.621,658.51Z" transform="translate(-882.888 -351.364)" fill="none" stroke="#1a1a1a" stroke-miterlimit="10" stroke-width="3" opacity="0.25"/>
      <path id="Path_25551-3" data-name="Path 25551" d="M1216.76,652.032c-41.08,52.238-107.51,72.281-190.451,49.794-101.263-27.5-133.844-97.121-98.807-170.261,29.933-62.469,93.239-68.421,190.451-49.794C1227.353,502.775,1275.279,577.647,1216.76,652.032Z" transform="translate(-881.118 -350.16)" fill="none" stroke="#1a1a1a" stroke-miterlimit="10" stroke-width="3" opacity="0.25"/>
      <path id="Path_25552-3" data-name="Path 25552" d="M1187.109,639.005c-33.826,43-88.543,59.526-156.828,40.99-83.394-22.634-110.214-79.976-81.368-140.2,24.648-51.446,76.785-56.346,156.84-40.99C1195.834,516.094,1235.273,577.77,1187.109,639.005Z" transform="translate(-877.982 -347.704)" fill="none" stroke="#1a1a1a" stroke-miterlimit="10" stroke-width="3" opacity="0.25"/>
      <path id="Path_25553-3" data-name="Path 25553" d="M1160.468,627.236c-26.957,34.267-70.538,47.417-124.938,32.649-66.452-18.107-87.8-63.7-64.812-111.686,19.635-40.978,61.111-44.883,124.926-32.649C1167.416,529.311,1198.809,578.438,1160.468,627.236Z" transform="translate(-874.812 -345.293)" fill="none" stroke="#1a1a1a" stroke-miterlimit="10" stroke-width="3" opacity="0.25"/>
      <path id="Path_25555-3" data-name="Path 25555" d="M1105.536,601.388c-12.743,16.194-33.339,22.419-59.051,15.436-31.4-8.522-41.5-30.114-30.635-52.793,9.28-19.363,28.9-21.219,59.051-15.425C1108.818,555.091,1123.666,578.336,1105.536,601.388Z" transform="translate(-868.249 -340.518)" fill="none" stroke="#1a1a1a" stroke-miterlimit="10" stroke-width="3" opacity="0.25"/>
      <path id="Path_25556-3" data-name="Path 25556" d="M1085.775,590.388c-6.948,8.838-18.209,12.234-32.242,8.42-17.156-4.651-22.634-16.443-16.738-28.824,5.07-10.581,15.844-11.588,32.253-8.431C1087.575,565.107,1095.689,577.793,1085.775,590.388Z" transform="translate(-865.236 -338.639)" fill="none" stroke="#1a1a1a" stroke-miterlimit="10" stroke-width="3" opacity="0.25"/>
    </g>
    <g id="Group_422" data-name="Group 422" transform="translate(1368.693 12)">
      <path id="Path_25549-4" data-name="Path 25549" d="M1255.9,671.33c-51.6,65.638-135.078,90.806-239.26,62.525C889.429,699.317,848.5,611.838,892.518,519.968c37.606-78.459,117.1-86.008,239.317-62.525C1269.221,483.844,1329.381,577.9,1255.9,671.33Z" transform="translate(-886.184 -353.683)" fill="none" stroke="#1a1a1a" stroke-miterlimit="10" stroke-width="3" opacity="0.25"/>
      <path id="Path_25550-4" data-name="Path 25550" d="M1229.621,658.51c-44.645,56.776-116.869,78.561-207,54.083C912.569,682.716,877.159,607.041,915.24,527.552c32.524-67.9,101.342-74.374,207-54.094C1241.141,496.238,1293.188,577.719,1229.621,658.51Z" transform="translate(-882.888 -351.364)" fill="none" stroke="#1a1a1a" stroke-miterlimit="10" stroke-width="3" opacity="0.25"/>
      <path id="Path_25551-4" data-name="Path 25551" d="M1216.76,652.032c-41.08,52.238-107.51,72.281-190.451,49.794-101.263-27.5-133.844-97.121-98.807-170.261,29.933-62.469,93.239-68.421,190.451-49.794C1227.353,502.775,1275.279,577.647,1216.76,652.032Z" transform="translate(-881.118 -350.16)" fill="none" stroke="#1a1a1a" stroke-miterlimit="10" stroke-width="3" opacity="0.25"/>
      <path id="Path_25552-4" data-name="Path 25552" d="M1187.109,639.005c-33.826,43-88.543,59.526-156.828,40.99-83.394-22.634-110.214-79.976-81.368-140.2,24.648-51.446,76.785-56.346,156.84-40.99C1195.834,516.094,1235.273,577.77,1187.109,639.005Z" transform="translate(-877.982 -347.704)" fill="none" stroke="#1a1a1a" stroke-miterlimit="10" stroke-width="3" opacity="0.25"/>
      <path id="Path_25553-4" data-name="Path 25553" d="M1160.468,627.236c-26.957,34.267-70.538,47.417-124.938,32.649-66.452-18.107-87.8-63.7-64.812-111.686,19.635-40.978,61.111-44.883,124.926-32.649C1167.416,529.311,1198.809,578.438,1160.468,627.236Z" transform="translate(-874.812 -345.293)" fill="none" stroke="#1a1a1a" stroke-miterlimit="10" stroke-width="3" opacity="0.25"/>
      <path id="Path_25555-4" data-name="Path 25555" d="M1105.536,601.388c-12.743,16.194-33.339,22.419-59.051,15.436-31.4-8.522-41.5-30.114-30.635-52.793,9.28-19.363,28.9-21.219,59.051-15.425C1108.818,555.091,1123.666,578.336,1105.536,601.388Z" transform="translate(-868.249 -340.518)" fill="none" stroke="#1a1a1a" stroke-miterlimit="10" stroke-width="3" opacity="0.25"/>
      <path id="Path_25556-4" data-name="Path 25556" d="M1085.775,590.388c-6.948,8.838-18.209,12.234-32.242,8.42-17.156-4.651-22.634-16.443-16.738-28.824,5.07-10.581,15.844-11.588,32.253-8.431C1087.575,565.107,1095.689,577.793,1085.775,590.388Z" transform="translate(-865.236 -338.639)" fill="none" stroke="#1a1a1a" stroke-miterlimit="10" stroke-width="3" opacity="0.25"/>
    </g>
    <g id="Group_408" data-name="Group 408" transform="translate(538.693 -112)">
      <path id="Path_25549-5" data-name="Path 25549" d="M1255.9,671.33c-51.6,65.638-135.078,90.806-239.26,62.525C889.429,699.317,848.5,611.838,892.518,519.968c37.606-78.459,117.1-86.008,239.317-62.525C1269.221,483.844,1329.381,577.9,1255.9,671.33Z" transform="translate(-886.184 -353.683)" fill="none" stroke="#1a1a1a" stroke-miterlimit="10" stroke-width="3" opacity="0.25"/>
      <path id="Path_25550-5" data-name="Path 25550" d="M1229.621,658.51c-44.645,56.776-116.869,78.561-207,54.083C912.569,682.716,877.159,607.041,915.24,527.552c32.524-67.9,101.342-74.374,207-54.094C1241.141,496.238,1293.188,577.719,1229.621,658.51Z" transform="translate(-882.888 -351.364)" fill="none" stroke="#1a1a1a" stroke-miterlimit="10" stroke-width="3" opacity="0.25"/>
      <path id="Path_25551-5" data-name="Path 25551" d="M1216.76,652.032c-41.08,52.238-107.51,72.281-190.451,49.794-101.263-27.5-133.844-97.121-98.807-170.261,29.933-62.469,93.239-68.421,190.451-49.794C1227.353,502.775,1275.279,577.647,1216.76,652.032Z" transform="translate(-881.118 -350.16)" fill="none" stroke="#1a1a1a" stroke-miterlimit="10" stroke-width="3" opacity="0.25"/>
      <path id="Path_25552-5" data-name="Path 25552" d="M1187.109,639.005c-33.826,43-88.543,59.526-156.828,40.99-83.394-22.634-110.214-79.976-81.368-140.2,24.648-51.446,76.785-56.346,156.84-40.99C1195.834,516.094,1235.273,577.77,1187.109,639.005Z" transform="translate(-877.982 -347.704)" fill="none" stroke="#1a1a1a" stroke-miterlimit="10" stroke-width="3" opacity="0.25"/>
      <path id="Path_25553-5" data-name="Path 25553" d="M1160.468,627.236c-26.957,34.267-70.538,47.417-124.938,32.649-66.452-18.107-87.8-63.7-64.812-111.686,19.635-40.978,61.111-44.883,124.926-32.649C1167.416,529.311,1198.809,578.438,1160.468,627.236Z" transform="translate(-874.812 -345.293)" fill="none" stroke="#1a1a1a" stroke-miterlimit="10" stroke-width="3" opacity="0.25"/>
      <path id="Path_25555-5" data-name="Path 25555" d="M1105.536,601.388c-12.743,16.194-33.339,22.419-59.051,15.436-31.4-8.522-41.5-30.114-30.635-52.793,9.28-19.363,28.9-21.219,59.051-15.425C1108.818,555.091,1123.666,578.336,1105.536,601.388Z" transform="translate(-868.249 -340.518)" fill="none" stroke="#1a1a1a" stroke-miterlimit="10" stroke-width="3" opacity="0.25"/>
      <path id="Path_25556-5" data-name="Path 25556" d="M1085.775,590.388c-6.948,8.838-18.209,12.234-32.242,8.42-17.156-4.651-22.634-16.443-16.738-28.824,5.07-10.581,15.844-11.588,32.253-8.431C1087.575,565.107,1095.689,577.793,1085.775,590.388Z" transform="translate(-865.236 -338.639)" fill="none" stroke="#1a1a1a" stroke-miterlimit="10" stroke-width="3" opacity="0.25"/>
    </g>
    <g id="Group_423" data-name="Group 423" transform="translate(1632.693 -138)">
      <path id="Path_25549-6" data-name="Path 25549" d="M1255.9,671.33c-51.6,65.638-135.078,90.806-239.26,62.525C889.429,699.317,848.5,611.838,892.518,519.968c37.606-78.459,117.1-86.008,239.317-62.525C1269.221,483.844,1329.381,577.9,1255.9,671.33Z" transform="translate(-886.184 -353.683)" fill="none" stroke="#1a1a1a" stroke-miterlimit="10" stroke-width="3" opacity="0.25"/>
      <path id="Path_25550-6" data-name="Path 25550" d="M1229.621,658.51c-44.645,56.776-116.869,78.561-207,54.083C912.569,682.716,877.159,607.041,915.24,527.552c32.524-67.9,101.342-74.374,207-54.094C1241.141,496.238,1293.188,577.719,1229.621,658.51Z" transform="translate(-882.888 -351.364)" fill="none" stroke="#1a1a1a" stroke-miterlimit="10" stroke-width="3" opacity="0.25"/>
      <path id="Path_25551-6" data-name="Path 25551" d="M1216.76,652.032c-41.08,52.238-107.51,72.281-190.451,49.794-101.263-27.5-133.844-97.121-98.807-170.261,29.933-62.469,93.239-68.421,190.451-49.794C1227.353,502.775,1275.279,577.647,1216.76,652.032Z" transform="translate(-881.118 -350.16)" fill="none" stroke="#1a1a1a" stroke-miterlimit="10" stroke-width="3" opacity="0.25"/>
      <path id="Path_25552-6" data-name="Path 25552" d="M1187.109,639.005c-33.826,43-88.543,59.526-156.828,40.99-83.394-22.634-110.214-79.976-81.368-140.2,24.648-51.446,76.785-56.346,156.84-40.99C1195.834,516.094,1235.273,577.77,1187.109,639.005Z" transform="translate(-877.982 -347.704)" fill="none" stroke="#1a1a1a" stroke-miterlimit="10" stroke-width="3" opacity="0.25"/>
      <path id="Path_25553-6" data-name="Path 25553" d="M1160.468,627.236c-26.957,34.267-70.538,47.417-124.938,32.649-66.452-18.107-87.8-63.7-64.812-111.686,19.635-40.978,61.111-44.883,124.926-32.649C1167.416,529.311,1198.809,578.438,1160.468,627.236Z" transform="translate(-874.812 -345.293)" fill="none" stroke="#1a1a1a" stroke-miterlimit="10" stroke-width="3" opacity="0.25"/>
      <path id="Path_25555-6" data-name="Path 25555" d="M1105.536,601.388c-12.743,16.194-33.339,22.419-59.051,15.436-31.4-8.522-41.5-30.114-30.635-52.793,9.28-19.363,28.9-21.219,59.051-15.425C1108.818,555.091,1123.666,578.336,1105.536,601.388Z" transform="translate(-868.249 -340.518)" fill="none" stroke="#1a1a1a" stroke-miterlimit="10" stroke-width="3" opacity="0.25"/>
      <path id="Path_25556-6" data-name="Path 25556" d="M1085.775,590.388c-6.948,8.838-18.209,12.234-32.242,8.42-17.156-4.651-22.634-16.443-16.738-28.824,5.07-10.581,15.844-11.588,32.253-8.431C1087.575,565.107,1095.689,577.793,1085.775,590.388Z" transform="translate(-865.236 -338.639)" fill="none" stroke="#1a1a1a" stroke-miterlimit="10" stroke-width="3" opacity="0.25"/>
    </g>
    <g id="Group_414" data-name="Group 414" transform="translate(801.693 38)">
      <path id="Path_25549-7" data-name="Path 25549" d="M1255.9,671.33c-51.6,65.638-135.078,90.806-239.26,62.525C889.429,699.317,848.5,611.838,892.518,519.968c37.606-78.459,117.1-86.008,239.317-62.525C1269.221,483.844,1329.381,577.9,1255.9,671.33Z" transform="translate(-886.184 -353.683)" fill="none" stroke="#1a1a1a" stroke-miterlimit="10" stroke-width="3" opacity="0.25"/>
      <path id="Path_25550-7" data-name="Path 25550" d="M1229.621,658.51c-44.645,56.776-116.869,78.561-207,54.083C912.569,682.716,877.159,607.041,915.24,527.552c32.524-67.9,101.342-74.374,207-54.094C1241.141,496.238,1293.188,577.719,1229.621,658.51Z" transform="translate(-882.888 -351.364)" fill="none" stroke="#1a1a1a" stroke-miterlimit="10" stroke-width="3" opacity="0.25"/>
      <path id="Path_25551-7" data-name="Path 25551" d="M1216.76,652.032c-41.08,52.238-107.51,72.281-190.451,49.794-101.263-27.5-133.844-97.121-98.807-170.261,29.933-62.469,93.239-68.421,190.451-49.794C1227.353,502.775,1275.279,577.647,1216.76,652.032Z" transform="translate(-881.118 -350.16)" fill="none" stroke="#1a1a1a" stroke-miterlimit="10" stroke-width="3" opacity="0.25"/>
      <path id="Path_25552-7" data-name="Path 25552" d="M1187.109,639.005c-33.826,43-88.543,59.526-156.828,40.99-83.394-22.634-110.214-79.976-81.368-140.2,24.648-51.446,76.785-56.346,156.84-40.99C1195.834,516.094,1235.273,577.77,1187.109,639.005Z" transform="translate(-877.982 -347.704)" fill="none" stroke="#1a1a1a" stroke-miterlimit="10" stroke-width="3" opacity="0.25"/>
      <path id="Path_25553-7" data-name="Path 25553" d="M1160.468,627.236c-26.957,34.267-70.538,47.417-124.938,32.649-66.452-18.107-87.8-63.7-64.812-111.686,19.635-40.978,61.111-44.883,124.926-32.649C1167.416,529.311,1198.809,578.438,1160.468,627.236Z" transform="translate(-874.812 -345.293)" fill="none" stroke="#1a1a1a" stroke-miterlimit="10" stroke-width="3" opacity="0.25"/>
      <path id="Path_25555-7" data-name="Path 25555" d="M1105.536,601.388c-12.743,16.194-33.339,22.419-59.051,15.436-31.4-8.522-41.5-30.114-30.635-52.793,9.28-19.363,28.9-21.219,59.051-15.425C1108.818,555.091,1123.666,578.336,1105.536,601.388Z" transform="translate(-868.249 -340.518)" fill="none" stroke="#1a1a1a" stroke-miterlimit="10" stroke-width="3" opacity="0.25"/>
      <path id="Path_25556-7" data-name="Path 25556" d="M1085.775,590.388c-6.948,8.838-18.209,12.234-32.242,8.42-17.156-4.651-22.634-16.443-16.738-28.824,5.07-10.581,15.844-11.588,32.253-8.431C1087.575,565.107,1095.689,577.793,1085.775,590.388Z" transform="translate(-865.236 -338.639)" fill="none" stroke="#1a1a1a" stroke-miterlimit="10" stroke-width="3" opacity="0.25"/>
    </g>
    <g id="Group_417" data-name="Group 417" transform="translate(1895.693 12)">
      <path id="Path_25549-8" data-name="Path 25549" d="M1255.9,671.33c-51.6,65.638-135.078,90.806-239.26,62.525C889.429,699.317,848.5,611.838,892.518,519.968c37.606-78.459,117.1-86.008,239.317-62.525C1269.221,483.844,1329.381,577.9,1255.9,671.33Z" transform="translate(-886.184 -353.683)" fill="none" stroke="#1a1a1a" stroke-miterlimit="10" stroke-width="3" opacity="0.25"/>
      <path id="Path_25550-8" data-name="Path 25550" d="M1229.621,658.51c-44.645,56.776-116.869,78.561-207,54.083C912.569,682.716,877.159,607.041,915.24,527.552c32.524-67.9,101.342-74.374,207-54.094C1241.141,496.238,1293.188,577.719,1229.621,658.51Z" transform="translate(-882.888 -351.364)" fill="none" stroke="#1a1a1a" stroke-miterlimit="10" stroke-width="3" opacity="0.25"/>
      <path id="Path_25551-8" data-name="Path 25551" d="M1216.76,652.032c-41.08,52.238-107.51,72.281-190.451,49.794-101.263-27.5-133.844-97.121-98.807-170.261,29.933-62.469,93.239-68.421,190.451-49.794C1227.353,502.775,1275.279,577.647,1216.76,652.032Z" transform="translate(-881.118 -350.16)" fill="none" stroke="#1a1a1a" stroke-miterlimit="10" stroke-width="3" opacity="0.25"/>
      <path id="Path_25552-8" data-name="Path 25552" d="M1187.109,639.005c-33.826,43-88.543,59.526-156.828,40.99-83.394-22.634-110.214-79.976-81.368-140.2,24.648-51.446,76.785-56.346,156.84-40.99C1195.834,516.094,1235.273,577.77,1187.109,639.005Z" transform="translate(-877.982 -347.704)" fill="none" stroke="#1a1a1a" stroke-miterlimit="10" stroke-width="3" opacity="0.25"/>
      <path id="Path_25553-8" data-name="Path 25553" d="M1160.468,627.236c-26.957,34.267-70.538,47.417-124.938,32.649-66.452-18.107-87.8-63.7-64.812-111.686,19.635-40.978,61.111-44.883,124.926-32.649C1167.416,529.311,1198.809,578.438,1160.468,627.236Z" transform="translate(-874.812 -345.293)" fill="none" stroke="#1a1a1a" stroke-miterlimit="10" stroke-width="3" opacity="0.25"/>
      <path id="Path_25555-8" data-name="Path 25555" d="M1105.536,601.388c-12.743,16.194-33.339,22.419-59.051,15.436-31.4-8.522-41.5-30.114-30.635-52.793,9.28-19.363,28.9-21.219,59.051-15.425C1108.818,555.091,1123.666,578.336,1105.536,601.388Z" transform="translate(-868.249 -340.518)" fill="none" stroke="#1a1a1a" stroke-miterlimit="10" stroke-width="3" opacity="0.25"/>
      <path id="Path_25556-8" data-name="Path 25556" d="M1085.775,590.388c-6.948,8.838-18.209,12.234-32.242,8.42-17.156-4.651-22.634-16.443-16.738-28.824,5.07-10.581,15.844-11.588,32.253-8.431C1087.575,565.107,1095.689,577.793,1085.775,590.388Z" transform="translate(-865.236 -338.639)" fill="none" stroke="#1a1a1a" stroke-miterlimit="10" stroke-width="3" opacity="0.25"/>
    </g>
    <g id="Group_400" data-name="Group 400" transform="translate(-19 188)">
      <path id="Path_25549-9" data-name="Path 25549" d="M1255.9,671.33c-51.6,65.638-135.078,90.806-239.26,62.525C889.429,699.317,848.5,611.838,892.518,519.968c37.606-78.459,117.1-86.008,239.317-62.525C1269.221,483.844,1329.381,577.9,1255.9,671.33Z" transform="translate(-886.184 -353.683)" fill="none" stroke="#1a1a1a" stroke-miterlimit="10" stroke-width="3" opacity="0.25"/>
      <path id="Path_25550-9" data-name="Path 25550" d="M1229.621,658.51c-44.645,56.776-116.869,78.561-207,54.083C912.569,682.716,877.159,607.041,915.24,527.552c32.524-67.9,101.342-74.374,207-54.094C1241.141,496.238,1293.188,577.719,1229.621,658.51Z" transform="translate(-882.888 -351.364)" fill="none" stroke="#1a1a1a" stroke-miterlimit="10" stroke-width="3" opacity="0.25"/>
      <path id="Path_25551-9" data-name="Path 25551" d="M1216.76,652.032c-41.08,52.238-107.51,72.281-190.451,49.794-101.263-27.5-133.844-97.121-98.807-170.261,29.933-62.469,93.239-68.421,190.451-49.794C1227.353,502.775,1275.279,577.647,1216.76,652.032Z" transform="translate(-881.118 -350.16)" fill="none" stroke="#1a1a1a" stroke-miterlimit="10" stroke-width="3" opacity="0.25"/>
      <path id="Path_25552-9" data-name="Path 25552" d="M1187.109,639.005c-33.826,43-88.543,59.526-156.828,40.99-83.394-22.634-110.214-79.976-81.368-140.2,24.648-51.446,76.785-56.346,156.84-40.99C1195.834,516.094,1235.273,577.77,1187.109,639.005Z" transform="translate(-877.982 -347.704)" fill="none" stroke="#1a1a1a" stroke-miterlimit="10" stroke-width="3" opacity="0.25"/>
      <path id="Path_25553-9" data-name="Path 25553" d="M1160.468,627.236c-26.957,34.267-70.538,47.417-124.938,32.649-66.452-18.107-87.8-63.7-64.812-111.686,19.635-40.978,61.111-44.883,124.926-32.649C1167.416,529.311,1198.809,578.438,1160.468,627.236Z" transform="translate(-874.812 -345.293)" fill="none" stroke="#1a1a1a" stroke-miterlimit="10" stroke-width="3" opacity="0.25"/>
      <path id="Path_25555-9" data-name="Path 25555" d="M1105.536,601.388c-12.743,16.194-33.339,22.419-59.051,15.436-31.4-8.522-41.5-30.114-30.635-52.793,9.28-19.363,28.9-21.219,59.051-15.425C1108.818,555.091,1123.666,578.336,1105.536,601.388Z" transform="translate(-868.249 -340.518)" fill="none" stroke="#1a1a1a" stroke-miterlimit="10" stroke-width="3" opacity="0.25"/>
      <path id="Path_25556-9" data-name="Path 25556" d="M1085.775,590.388c-6.948,8.838-18.209,12.234-32.242,8.42-17.156-4.651-22.634-16.443-16.738-28.824,5.07-10.581,15.844-11.588,32.253-8.431C1087.575,565.107,1095.689,577.793,1085.775,590.388Z" transform="translate(-865.236 -338.639)" fill="none" stroke="#1a1a1a" stroke-miterlimit="10" stroke-width="3" opacity="0.25"/>
    </g>
    <g id="Group_428" data-name="Group 428" transform="translate(1075 162)">
      <path id="Path_25549-10" data-name="Path 25549" d="M1255.9,671.33c-51.6,65.638-135.078,90.806-239.26,62.525C889.429,699.317,848.5,611.838,892.518,519.968c37.606-78.459,117.1-86.008,239.317-62.525C1269.221,483.844,1329.381,577.9,1255.9,671.33Z" transform="translate(-886.184 -353.683)" fill="none" stroke="#1a1a1a" stroke-miterlimit="10" stroke-width="3" opacity="0.25"/>
      <path id="Path_25550-10" data-name="Path 25550" d="M1229.621,658.51c-44.645,56.776-116.869,78.561-207,54.083C912.569,682.716,877.159,607.041,915.24,527.552c32.524-67.9,101.342-74.374,207-54.094C1241.141,496.238,1293.188,577.719,1229.621,658.51Z" transform="translate(-882.888 -351.364)" fill="none" stroke="#1a1a1a" stroke-miterlimit="10" stroke-width="3" opacity="0.25"/>
      <path id="Path_25551-10" data-name="Path 25551" d="M1216.76,652.032c-41.08,52.238-107.51,72.281-190.451,49.794-101.263-27.5-133.844-97.121-98.807-170.261,29.933-62.469,93.239-68.421,190.451-49.794C1227.353,502.775,1275.279,577.647,1216.76,652.032Z" transform="translate(-881.118 -350.16)" fill="none" stroke="#1a1a1a" stroke-miterlimit="10" stroke-width="3" opacity="0.25"/>
      <path id="Path_25552-10" data-name="Path 25552" d="M1187.109,639.005c-33.826,43-88.543,59.526-156.828,40.99-83.394-22.634-110.214-79.976-81.368-140.2,24.648-51.446,76.785-56.346,156.84-40.99C1195.834,516.094,1235.273,577.77,1187.109,639.005Z" transform="translate(-877.982 -347.704)" fill="none" stroke="#1a1a1a" stroke-miterlimit="10" stroke-width="3" opacity="0.25"/>
      <path id="Path_25553-10" data-name="Path 25553" d="M1160.468,627.236c-26.957,34.267-70.538,47.417-124.938,32.649-66.452-18.107-87.8-63.7-64.812-111.686,19.635-40.978,61.111-44.883,124.926-32.649C1167.416,529.311,1198.809,578.438,1160.468,627.236Z" transform="translate(-874.812 -345.293)" fill="none" stroke="#1a1a1a" stroke-miterlimit="10" stroke-width="3" opacity="0.25"/>
      <path id="Path_25555-10" data-name="Path 25555" d="M1105.536,601.388c-12.743,16.194-33.339,22.419-59.051,15.436-31.4-8.522-41.5-30.114-30.635-52.793,9.28-19.363,28.9-21.219,59.051-15.425C1108.818,555.091,1123.666,578.336,1105.536,601.388Z" transform="translate(-868.249 -340.518)" fill="none" stroke="#1a1a1a" stroke-miterlimit="10" stroke-width="3" opacity="0.25"/>
      <path id="Path_25556-10" data-name="Path 25556" d="M1085.775,590.388c-6.948,8.838-18.209,12.234-32.242,8.42-17.156-4.651-22.634-16.443-16.738-28.824,5.07-10.581,15.844-11.588,32.253-8.431C1087.575,565.107,1095.689,577.793,1085.775,590.388Z" transform="translate(-865.236 -338.639)" fill="none" stroke="#1a1a1a" stroke-miterlimit="10" stroke-width="3" opacity="0.25"/>
    </g>
    <g id="Group_405" data-name="Group 405" transform="translate(274.693 338)">
      <path id="Path_25549-11" data-name="Path 25549" d="M1255.9,671.33c-51.6,65.638-135.078,90.806-239.26,62.525C889.429,699.317,848.5,611.838,892.518,519.968c37.606-78.459,117.1-86.008,239.317-62.525C1269.221,483.844,1329.381,577.9,1255.9,671.33Z" transform="translate(-886.184 -353.683)" fill="none" stroke="#1a1a1a" stroke-miterlimit="10" stroke-width="3" opacity="0.25"/>
      <path id="Path_25550-11" data-name="Path 25550" d="M1229.621,658.51c-44.645,56.776-116.869,78.561-207,54.083C912.569,682.716,877.159,607.041,915.24,527.552c32.524-67.9,101.342-74.374,207-54.094C1241.141,496.238,1293.188,577.719,1229.621,658.51Z" transform="translate(-882.888 -351.364)" fill="none" stroke="#1a1a1a" stroke-miterlimit="10" stroke-width="3" opacity="0.25"/>
      <path id="Path_25551-11" data-name="Path 25551" d="M1216.76,652.032c-41.08,52.238-107.51,72.281-190.451,49.794-101.263-27.5-133.844-97.121-98.807-170.261,29.933-62.469,93.239-68.421,190.451-49.794C1227.353,502.775,1275.279,577.647,1216.76,652.032Z" transform="translate(-881.118 -350.16)" fill="none" stroke="#1a1a1a" stroke-miterlimit="10" stroke-width="3" opacity="0.25"/>
      <path id="Path_25552-11" data-name="Path 25552" d="M1187.109,639.005c-33.826,43-88.543,59.526-156.828,40.99-83.394-22.634-110.214-79.976-81.368-140.2,24.648-51.446,76.785-56.346,156.84-40.99C1195.834,516.094,1235.273,577.77,1187.109,639.005Z" transform="translate(-877.982 -347.704)" fill="none" stroke="#1a1a1a" stroke-miterlimit="10" stroke-width="3" opacity="0.25"/>
      <path id="Path_25553-11" data-name="Path 25553" d="M1160.468,627.236c-26.957,34.267-70.538,47.417-124.938,32.649-66.452-18.107-87.8-63.7-64.812-111.686,19.635-40.978,61.111-44.883,124.926-32.649C1167.416,529.311,1198.809,578.438,1160.468,627.236Z" transform="translate(-874.812 -345.293)" fill="none" stroke="#1a1a1a" stroke-miterlimit="10" stroke-width="3" opacity="0.25"/>
      <path id="Path_25555-11" data-name="Path 25555" d="M1105.536,601.388c-12.743,16.194-33.339,22.419-59.051,15.436-31.4-8.522-41.5-30.114-30.635-52.793,9.28-19.363,28.9-21.219,59.051-15.425C1108.818,555.091,1123.666,578.336,1105.536,601.388Z" transform="translate(-868.249 -340.518)" fill="none" stroke="#1a1a1a" stroke-miterlimit="10" stroke-width="3" opacity="0.25"/>
      <path id="Path_25556-11" data-name="Path 25556" d="M1085.775,590.388c-6.948,8.838-18.209,12.234-32.242,8.42-17.156-4.651-22.634-16.443-16.738-28.824,5.07-10.581,15.844-11.588,32.253-8.431C1087.575,565.107,1095.689,577.793,1085.775,590.388Z" transform="translate(-865.236 -338.639)" fill="none" stroke="#1a1a1a" stroke-miterlimit="10" stroke-width="3" opacity="0.25"/>
    </g>
    <g id="Group_424" data-name="Group 424" transform="translate(1368.693 312)">
      <path id="Path_25549-12" data-name="Path 25549" d="M1255.9,671.33c-51.6,65.638-135.078,90.806-239.26,62.525C889.429,699.317,848.5,611.838,892.518,519.968c37.606-78.459,117.1-86.008,239.317-62.525C1269.221,483.844,1329.381,577.9,1255.9,671.33Z" transform="translate(-886.184 -353.683)" fill="none" stroke="#1a1a1a" stroke-miterlimit="10" stroke-width="3" opacity="0.25"/>
      <path id="Path_25550-12" data-name="Path 25550" d="M1229.621,658.51c-44.645,56.776-116.869,78.561-207,54.083C912.569,682.716,877.159,607.041,915.24,527.552c32.524-67.9,101.342-74.374,207-54.094C1241.141,496.238,1293.188,577.719,1229.621,658.51Z" transform="translate(-882.888 -351.364)" fill="none" stroke="#1a1a1a" stroke-miterlimit="10" stroke-width="3" opacity="0.25"/>
      <path id="Path_25551-12" data-name="Path 25551" d="M1216.76,652.032c-41.08,52.238-107.51,72.281-190.451,49.794-101.263-27.5-133.844-97.121-98.807-170.261,29.933-62.469,93.239-68.421,190.451-49.794C1227.353,502.775,1275.279,577.647,1216.76,652.032Z" transform="translate(-881.118 -350.16)" fill="none" stroke="#1a1a1a" stroke-miterlimit="10" stroke-width="3" opacity="0.25"/>
      <path id="Path_25552-12" data-name="Path 25552" d="M1187.109,639.005c-33.826,43-88.543,59.526-156.828,40.99-83.394-22.634-110.214-79.976-81.368-140.2,24.648-51.446,76.785-56.346,156.84-40.99C1195.834,516.094,1235.273,577.77,1187.109,639.005Z" transform="translate(-877.982 -347.704)" fill="none" stroke="#1a1a1a" stroke-miterlimit="10" stroke-width="3" opacity="0.25"/>
      <path id="Path_25553-12" data-name="Path 25553" d="M1160.468,627.236c-26.957,34.267-70.538,47.417-124.938,32.649-66.452-18.107-87.8-63.7-64.812-111.686,19.635-40.978,61.111-44.883,124.926-32.649C1167.416,529.311,1198.809,578.438,1160.468,627.236Z" transform="translate(-874.812 -345.293)" fill="none" stroke="#1a1a1a" stroke-miterlimit="10" stroke-width="3" opacity="0.25"/>
      <path id="Path_25555-12" data-name="Path 25555" d="M1105.536,601.388c-12.743,16.194-33.339,22.419-59.051,15.436-31.4-8.522-41.5-30.114-30.635-52.793,9.28-19.363,28.9-21.219,59.051-15.425C1108.818,555.091,1123.666,578.336,1105.536,601.388Z" transform="translate(-868.249 -340.518)" fill="none" stroke="#1a1a1a" stroke-miterlimit="10" stroke-width="3" opacity="0.25"/>
      <path id="Path_25556-12" data-name="Path 25556" d="M1085.775,590.388c-6.948,8.838-18.209,12.234-32.242,8.42-17.156-4.651-22.634-16.443-16.738-28.824,5.07-10.581,15.844-11.588,32.253-8.431C1087.575,565.107,1095.689,577.793,1085.775,590.388Z" transform="translate(-865.236 -338.639)" fill="none" stroke="#1a1a1a" stroke-miterlimit="10" stroke-width="3" opacity="0.25"/>
    </g>
    <g id="Group_409" data-name="Group 409" transform="translate(538.693 188)">
      <path id="Path_25549-13" data-name="Path 25549" d="M1255.9,671.33c-51.6,65.638-135.078,90.806-239.26,62.525C889.429,699.317,848.5,611.838,892.518,519.968c37.606-78.459,117.1-86.008,239.317-62.525C1269.221,483.844,1329.381,577.9,1255.9,671.33Z" transform="translate(-886.184 -353.683)" fill="none" stroke="#1a1a1a" stroke-miterlimit="10" stroke-width="3" opacity="0.25"/>
      <path id="Path_25550-13" data-name="Path 25550" d="M1229.621,658.51c-44.645,56.776-116.869,78.561-207,54.083C912.569,682.716,877.159,607.041,915.24,527.552c32.524-67.9,101.342-74.374,207-54.094C1241.141,496.238,1293.188,577.719,1229.621,658.51Z" transform="translate(-882.888 -351.364)" fill="none" stroke="#1a1a1a" stroke-miterlimit="10" stroke-width="3" opacity="0.25"/>
      <path id="Path_25551-13" data-name="Path 25551" d="M1216.76,652.032c-41.08,52.238-107.51,72.281-190.451,49.794-101.263-27.5-133.844-97.121-98.807-170.261,29.933-62.469,93.239-68.421,190.451-49.794C1227.353,502.775,1275.279,577.647,1216.76,652.032Z" transform="translate(-881.118 -350.16)" fill="none" stroke="#1a1a1a" stroke-miterlimit="10" stroke-width="3" opacity="0.25"/>
      <path id="Path_25552-13" data-name="Path 25552" d="M1187.109,639.005c-33.826,43-88.543,59.526-156.828,40.99-83.394-22.634-110.214-79.976-81.368-140.2,24.648-51.446,76.785-56.346,156.84-40.99C1195.834,516.094,1235.273,577.77,1187.109,639.005Z" transform="translate(-877.982 -347.704)" fill="none" stroke="#1a1a1a" stroke-miterlimit="10" stroke-width="3" opacity="0.25"/>
      <path id="Path_25553-13" data-name="Path 25553" d="M1160.468,627.236c-26.957,34.267-70.538,47.417-124.938,32.649-66.452-18.107-87.8-63.7-64.812-111.686,19.635-40.978,61.111-44.883,124.926-32.649C1167.416,529.311,1198.809,578.438,1160.468,627.236Z" transform="translate(-874.812 -345.293)" fill="none" stroke="#1a1a1a" stroke-miterlimit="10" stroke-width="3" opacity="0.25"/>
      <path id="Path_25555-13" data-name="Path 25555" d="M1105.536,601.388c-12.743,16.194-33.339,22.419-59.051,15.436-31.4-8.522-41.5-30.114-30.635-52.793,9.28-19.363,28.9-21.219,59.051-15.425C1108.818,555.091,1123.666,578.336,1105.536,601.388Z" transform="translate(-868.249 -340.518)" fill="none" stroke="#1a1a1a" stroke-miterlimit="10" stroke-width="3" opacity="0.25"/>
      <path id="Path_25556-13" data-name="Path 25556" d="M1085.775,590.388c-6.948,8.838-18.209,12.234-32.242,8.42-17.156-4.651-22.634-16.443-16.738-28.824,5.07-10.581,15.844-11.588,32.253-8.431C1087.575,565.107,1095.689,577.793,1085.775,590.388Z" transform="translate(-865.236 -338.639)" fill="none" stroke="#1a1a1a" stroke-miterlimit="10" stroke-width="3" opacity="0.25"/>
    </g>
    <g id="Group_418" data-name="Group 418" transform="translate(1632.693 162)">
      <path id="Path_25549-14" data-name="Path 25549" d="M1255.9,671.33c-51.6,65.638-135.078,90.806-239.26,62.525C889.429,699.317,848.5,611.838,892.518,519.968c37.606-78.459,117.1-86.008,239.317-62.525C1269.221,483.844,1329.381,577.9,1255.9,671.33Z" transform="translate(-886.184 -353.683)" fill="none" stroke="#1a1a1a" stroke-miterlimit="10" stroke-width="3" opacity="0.25"/>
      <path id="Path_25550-14" data-name="Path 25550" d="M1229.621,658.51c-44.645,56.776-116.869,78.561-207,54.083C912.569,682.716,877.159,607.041,915.24,527.552c32.524-67.9,101.342-74.374,207-54.094C1241.141,496.238,1293.188,577.719,1229.621,658.51Z" transform="translate(-882.888 -351.364)" fill="none" stroke="#1a1a1a" stroke-miterlimit="10" stroke-width="3" opacity="0.25"/>
      <path id="Path_25551-14" data-name="Path 25551" d="M1216.76,652.032c-41.08,52.238-107.51,72.281-190.451,49.794-101.263-27.5-133.844-97.121-98.807-170.261,29.933-62.469,93.239-68.421,190.451-49.794C1227.353,502.775,1275.279,577.647,1216.76,652.032Z" transform="translate(-881.118 -350.16)" fill="none" stroke="#1a1a1a" stroke-miterlimit="10" stroke-width="3" opacity="0.25"/>
      <path id="Path_25552-14" data-name="Path 25552" d="M1187.109,639.005c-33.826,43-88.543,59.526-156.828,40.99-83.394-22.634-110.214-79.976-81.368-140.2,24.648-51.446,76.785-56.346,156.84-40.99C1195.834,516.094,1235.273,577.77,1187.109,639.005Z" transform="translate(-877.982 -347.704)" fill="none" stroke="#1a1a1a" stroke-miterlimit="10" stroke-width="3" opacity="0.25"/>
      <path id="Path_25553-14" data-name="Path 25553" d="M1160.468,627.236c-26.957,34.267-70.538,47.417-124.938,32.649-66.452-18.107-87.8-63.7-64.812-111.686,19.635-40.978,61.111-44.883,124.926-32.649C1167.416,529.311,1198.809,578.438,1160.468,627.236Z" transform="translate(-874.812 -345.293)" fill="none" stroke="#1a1a1a" stroke-miterlimit="10" stroke-width="3" opacity="0.25"/>
      <path id="Path_25555-14" data-name="Path 25555" d="M1105.536,601.388c-12.743,16.194-33.339,22.419-59.051,15.436-31.4-8.522-41.5-30.114-30.635-52.793,9.28-19.363,28.9-21.219,59.051-15.425C1108.818,555.091,1123.666,578.336,1105.536,601.388Z" transform="translate(-868.249 -340.518)" fill="none" stroke="#1a1a1a" stroke-miterlimit="10" stroke-width="3" opacity="0.25"/>
      <path id="Path_25556-14" data-name="Path 25556" d="M1085.775,590.388c-6.948,8.838-18.209,12.234-32.242,8.42-17.156-4.651-22.634-16.443-16.738-28.824,5.07-10.581,15.844-11.588,32.253-8.431C1087.575,565.107,1095.689,577.793,1085.775,590.388Z" transform="translate(-865.236 -338.639)" fill="none" stroke="#1a1a1a" stroke-miterlimit="10" stroke-width="3" opacity="0.25"/>
    </g>
    <g id="Group_412" data-name="Group 412" transform="translate(801.693 338)">
      <path id="Path_25549-15" data-name="Path 25549" d="M1255.9,671.33c-51.6,65.638-135.078,90.806-239.26,62.525C889.429,699.317,848.5,611.838,892.518,519.968c37.606-78.459,117.1-86.008,239.317-62.525C1269.221,483.844,1329.381,577.9,1255.9,671.33Z" transform="translate(-886.184 -353.683)" fill="none" stroke="#1a1a1a" stroke-miterlimit="10" stroke-width="3" opacity="0.25"/>
      <path id="Path_25550-15" data-name="Path 25550" d="M1229.621,658.51c-44.645,56.776-116.869,78.561-207,54.083C912.569,682.716,877.159,607.041,915.24,527.552c32.524-67.9,101.342-74.374,207-54.094C1241.141,496.238,1293.188,577.719,1229.621,658.51Z" transform="translate(-882.888 -351.364)" fill="none" stroke="#1a1a1a" stroke-miterlimit="10" stroke-width="3" opacity="0.25"/>
      <path id="Path_25551-15" data-name="Path 25551" d="M1216.76,652.032c-41.08,52.238-107.51,72.281-190.451,49.794-101.263-27.5-133.844-97.121-98.807-170.261,29.933-62.469,93.239-68.421,190.451-49.794C1227.353,502.775,1275.279,577.647,1216.76,652.032Z" transform="translate(-881.118 -350.16)" fill="none" stroke="#1a1a1a" stroke-miterlimit="10" stroke-width="3" opacity="0.25"/>
      <path id="Path_25552-15" data-name="Path 25552" d="M1187.109,639.005c-33.826,43-88.543,59.526-156.828,40.99-83.394-22.634-110.214-79.976-81.368-140.2,24.648-51.446,76.785-56.346,156.84-40.99C1195.834,516.094,1235.273,577.77,1187.109,639.005Z" transform="translate(-877.982 -347.704)" fill="none" stroke="#1a1a1a" stroke-miterlimit="10" stroke-width="3" opacity="0.25"/>
      <path id="Path_25553-15" data-name="Path 25553" d="M1160.468,627.236c-26.957,34.267-70.538,47.417-124.938,32.649-66.452-18.107-87.8-63.7-64.812-111.686,19.635-40.978,61.111-44.883,124.926-32.649C1167.416,529.311,1198.809,578.438,1160.468,627.236Z" transform="translate(-874.812 -345.293)" fill="none" stroke="#1a1a1a" stroke-miterlimit="10" stroke-width="3" opacity="0.25"/>
      <path id="Path_25555-15" data-name="Path 25555" d="M1105.536,601.388c-12.743,16.194-33.339,22.419-59.051,15.436-31.4-8.522-41.5-30.114-30.635-52.793,9.28-19.363,28.9-21.219,59.051-15.425C1108.818,555.091,1123.666,578.336,1105.536,601.388Z" transform="translate(-868.249 -340.518)" fill="none" stroke="#1a1a1a" stroke-miterlimit="10" stroke-width="3" opacity="0.25"/>
      <path id="Path_25556-15" data-name="Path 25556" d="M1085.775,590.388c-6.948,8.838-18.209,12.234-32.242,8.42-17.156-4.651-22.634-16.443-16.738-28.824,5.07-10.581,15.844-11.588,32.253-8.431C1087.575,565.107,1095.689,577.793,1085.775,590.388Z" transform="translate(-865.236 -338.639)" fill="none" stroke="#1a1a1a" stroke-miterlimit="10" stroke-width="3" opacity="0.25"/>
    </g>
    <g id="Group_419" data-name="Group 419" transform="translate(1895.693 312)">
      <path id="Path_25549-16" data-name="Path 25549" d="M1255.9,671.33c-51.6,65.638-135.078,90.806-239.26,62.525C889.429,699.317,848.5,611.838,892.518,519.968c37.606-78.459,117.1-86.008,239.317-62.525C1269.221,483.844,1329.381,577.9,1255.9,671.33Z" transform="translate(-886.184 -353.683)" fill="none" stroke="#1a1a1a" stroke-miterlimit="10" stroke-width="3" opacity="0.25"/>
      <path id="Path_25550-16" data-name="Path 25550" d="M1229.621,658.51c-44.645,56.776-116.869,78.561-207,54.083C912.569,682.716,877.159,607.041,915.24,527.552c32.524-67.9,101.342-74.374,207-54.094C1241.141,496.238,1293.188,577.719,1229.621,658.51Z" transform="translate(-882.888 -351.364)" fill="none" stroke="#1a1a1a" stroke-miterlimit="10" stroke-width="3" opacity="0.25"/>
      <path id="Path_25551-16" data-name="Path 25551" d="M1216.76,652.032c-41.08,52.238-107.51,72.281-190.451,49.794-101.263-27.5-133.844-97.121-98.807-170.261,29.933-62.469,93.239-68.421,190.451-49.794C1227.353,502.775,1275.279,577.647,1216.76,652.032Z" transform="translate(-881.118 -350.16)" fill="none" stroke="#1a1a1a" stroke-miterlimit="10" stroke-width="3" opacity="0.25"/>
      <path id="Path_25552-16" data-name="Path 25552" d="M1187.109,639.005c-33.826,43-88.543,59.526-156.828,40.99-83.394-22.634-110.214-79.976-81.368-140.2,24.648-51.446,76.785-56.346,156.84-40.99C1195.834,516.094,1235.273,577.77,1187.109,639.005Z" transform="translate(-877.982 -347.704)" fill="none" stroke="#1a1a1a" stroke-miterlimit="10" stroke-width="3" opacity="0.25"/>
      <path id="Path_25553-16" data-name="Path 25553" d="M1160.468,627.236c-26.957,34.267-70.538,47.417-124.938,32.649-66.452-18.107-87.8-63.7-64.812-111.686,19.635-40.978,61.111-44.883,124.926-32.649C1167.416,529.311,1198.809,578.438,1160.468,627.236Z" transform="translate(-874.812 -345.293)" fill="none" stroke="#1a1a1a" stroke-miterlimit="10" stroke-width="3" opacity="0.25"/>
      <path id="Path_25555-16" data-name="Path 25555" d="M1105.536,601.388c-12.743,16.194-33.339,22.419-59.051,15.436-31.4-8.522-41.5-30.114-30.635-52.793,9.28-19.363,28.9-21.219,59.051-15.425C1108.818,555.091,1123.666,578.336,1105.536,601.388Z" transform="translate(-868.249 -340.518)" fill="none" stroke="#1a1a1a" stroke-miterlimit="10" stroke-width="3" opacity="0.25"/>
      <path id="Path_25556-16" data-name="Path 25556" d="M1085.775,590.388c-6.948,8.838-18.209,12.234-32.242,8.42-17.156-4.651-22.634-16.443-16.738-28.824,5.07-10.581,15.844-11.588,32.253-8.431C1087.575,565.107,1095.689,577.793,1085.775,590.388Z" transform="translate(-865.236 -338.639)" fill="none" stroke="#1a1a1a" stroke-miterlimit="10" stroke-width="3" opacity="0.25"/>
    </g>
    <g id="Group_401" data-name="Group 401" transform="translate(-19 488)">
      <path id="Path_25549-17" data-name="Path 25549" d="M1255.9,671.33c-51.6,65.638-135.078,90.806-239.26,62.525C889.429,699.317,848.5,611.838,892.518,519.968c37.606-78.459,117.1-86.008,239.317-62.525C1269.221,483.844,1329.381,577.9,1255.9,671.33Z" transform="translate(-886.184 -353.683)" fill="none" stroke="#1a1a1a" stroke-miterlimit="10" stroke-width="3" opacity="0.25"/>
      <path id="Path_25550-17" data-name="Path 25550" d="M1229.621,658.51c-44.645,56.776-116.869,78.561-207,54.083C912.569,682.716,877.159,607.041,915.24,527.552c32.524-67.9,101.342-74.374,207-54.094C1241.141,496.238,1293.188,577.719,1229.621,658.51Z" transform="translate(-882.888 -351.364)" fill="none" stroke="#1a1a1a" stroke-miterlimit="10" stroke-width="3" opacity="0.25"/>
      <path id="Path_25551-17" data-name="Path 25551" d="M1216.76,652.032c-41.08,52.238-107.51,72.281-190.451,49.794-101.263-27.5-133.844-97.121-98.807-170.261,29.933-62.469,93.239-68.421,190.451-49.794C1227.353,502.775,1275.279,577.647,1216.76,652.032Z" transform="translate(-881.118 -350.16)" fill="none" stroke="#1a1a1a" stroke-miterlimit="10" stroke-width="3" opacity="0.25"/>
      <path id="Path_25552-17" data-name="Path 25552" d="M1187.109,639.005c-33.826,43-88.543,59.526-156.828,40.99-83.394-22.634-110.214-79.976-81.368-140.2,24.648-51.446,76.785-56.346,156.84-40.99C1195.834,516.094,1235.273,577.77,1187.109,639.005Z" transform="translate(-877.982 -347.704)" fill="none" stroke="#1a1a1a" stroke-miterlimit="10" stroke-width="3" opacity="0.25"/>
      <path id="Path_25553-17" data-name="Path 25553" d="M1160.468,627.236c-26.957,34.267-70.538,47.417-124.938,32.649-66.452-18.107-87.8-63.7-64.812-111.686,19.635-40.978,61.111-44.883,124.926-32.649C1167.416,529.311,1198.809,578.438,1160.468,627.236Z" transform="translate(-874.812 -345.293)" fill="none" stroke="#1a1a1a" stroke-miterlimit="10" stroke-width="3" opacity="0.25"/>
      <path id="Path_25555-17" data-name="Path 25555" d="M1105.536,601.388c-12.743,16.194-33.339,22.419-59.051,15.436-31.4-8.522-41.5-30.114-30.635-52.793,9.28-19.363,28.9-21.219,59.051-15.425C1108.818,555.091,1123.666,578.336,1105.536,601.388Z" transform="translate(-868.249 -340.518)" fill="none" stroke="#1a1a1a" stroke-miterlimit="10" stroke-width="3" opacity="0.25"/>
      <path id="Path_25556-17" data-name="Path 25556" d="M1085.775,590.388c-6.948,8.838-18.209,12.234-32.242,8.42-17.156-4.651-22.634-16.443-16.738-28.824,5.07-10.581,15.844-11.588,32.253-8.431C1087.575,565.107,1095.689,577.793,1085.775,590.388Z" transform="translate(-865.236 -338.639)" fill="none" stroke="#1a1a1a" stroke-miterlimit="10" stroke-width="3" opacity="0.25"/>
    </g>
    <g id="Group_429" data-name="Group 429" transform="translate(1075 462)">
      <path id="Path_25549-18" data-name="Path 25549" d="M1255.9,671.33c-51.6,65.638-135.078,90.806-239.26,62.525C889.429,699.317,848.5,611.838,892.518,519.968c37.606-78.459,117.1-86.008,239.317-62.525C1269.221,483.844,1329.381,577.9,1255.9,671.33Z" transform="translate(-886.184 -353.683)" fill="none" stroke="#1a1a1a" stroke-miterlimit="10" stroke-width="3" opacity="0.25"/>
      <path id="Path_25550-18" data-name="Path 25550" d="M1229.621,658.51c-44.645,56.776-116.869,78.561-207,54.083C912.569,682.716,877.159,607.041,915.24,527.552c32.524-67.9,101.342-74.374,207-54.094C1241.141,496.238,1293.188,577.719,1229.621,658.51Z" transform="translate(-882.888 -351.364)" fill="none" stroke="#1a1a1a" stroke-miterlimit="10" stroke-width="3" opacity="0.25"/>
      <path id="Path_25551-18" data-name="Path 25551" d="M1216.76,652.032c-41.08,52.238-107.51,72.281-190.451,49.794-101.263-27.5-133.844-97.121-98.807-170.261,29.933-62.469,93.239-68.421,190.451-49.794C1227.353,502.775,1275.279,577.647,1216.76,652.032Z" transform="translate(-881.118 -350.16)" fill="none" stroke="#1a1a1a" stroke-miterlimit="10" stroke-width="3" opacity="0.25"/>
      <path id="Path_25552-18" data-name="Path 25552" d="M1187.109,639.005c-33.826,43-88.543,59.526-156.828,40.99-83.394-22.634-110.214-79.976-81.368-140.2,24.648-51.446,76.785-56.346,156.84-40.99C1195.834,516.094,1235.273,577.77,1187.109,639.005Z" transform="translate(-877.982 -347.704)" fill="none" stroke="#1a1a1a" stroke-miterlimit="10" stroke-width="3" opacity="0.25"/>
      <path id="Path_25553-18" data-name="Path 25553" d="M1160.468,627.236c-26.957,34.267-70.538,47.417-124.938,32.649-66.452-18.107-87.8-63.7-64.812-111.686,19.635-40.978,61.111-44.883,124.926-32.649C1167.416,529.311,1198.809,578.438,1160.468,627.236Z" transform="translate(-874.812 -345.293)" fill="none" stroke="#1a1a1a" stroke-miterlimit="10" stroke-width="3" opacity="0.25"/>
      <path id="Path_25555-18" data-name="Path 25555" d="M1105.536,601.388c-12.743,16.194-33.339,22.419-59.051,15.436-31.4-8.522-41.5-30.114-30.635-52.793,9.28-19.363,28.9-21.219,59.051-15.425C1108.818,555.091,1123.666,578.336,1105.536,601.388Z" transform="translate(-868.249 -340.518)" fill="none" stroke="#1a1a1a" stroke-miterlimit="10" stroke-width="3" opacity="0.25"/>
      <path id="Path_25556-18" data-name="Path 25556" d="M1085.775,590.388c-6.948,8.838-18.209,12.234-32.242,8.42-17.156-4.651-22.634-16.443-16.738-28.824,5.07-10.581,15.844-11.588,32.253-8.431C1087.575,565.107,1095.689,577.793,1085.775,590.388Z" transform="translate(-865.236 -338.639)" fill="none" stroke="#1a1a1a" stroke-miterlimit="10" stroke-width="3" opacity="0.25"/>
    </g>
    <g id="Group_406" data-name="Group 406" transform="translate(274.693 638)">
      <path id="Path_25549-19" data-name="Path 25549" d="M1255.9,671.33c-51.6,65.638-135.078,90.806-239.26,62.525C889.429,699.317,848.5,611.838,892.518,519.968c37.606-78.459,117.1-86.008,239.317-62.525C1269.221,483.844,1329.381,577.9,1255.9,671.33Z" transform="translate(-886.184 -353.683)" fill="none" stroke="#1a1a1a" stroke-miterlimit="10" stroke-width="3" opacity="0.25"/>
      <path id="Path_25550-19" data-name="Path 25550" d="M1229.621,658.51c-44.645,56.776-116.869,78.561-207,54.083C912.569,682.716,877.159,607.041,915.24,527.552c32.524-67.9,101.342-74.374,207-54.094C1241.141,496.238,1293.188,577.719,1229.621,658.51Z" transform="translate(-882.888 -351.364)" fill="none" stroke="#1a1a1a" stroke-miterlimit="10" stroke-width="3" opacity="0.25"/>
      <path id="Path_25551-19" data-name="Path 25551" d="M1216.76,652.032c-41.08,52.238-107.51,72.281-190.451,49.794-101.263-27.5-133.844-97.121-98.807-170.261,29.933-62.469,93.239-68.421,190.451-49.794C1227.353,502.775,1275.279,577.647,1216.76,652.032Z" transform="translate(-881.118 -350.16)" fill="none" stroke="#1a1a1a" stroke-miterlimit="10" stroke-width="3" opacity="0.25"/>
      <path id="Path_25552-19" data-name="Path 25552" d="M1187.109,639.005c-33.826,43-88.543,59.526-156.828,40.99-83.394-22.634-110.214-79.976-81.368-140.2,24.648-51.446,76.785-56.346,156.84-40.99C1195.834,516.094,1235.273,577.77,1187.109,639.005Z" transform="translate(-877.982 -347.704)" fill="none" stroke="#1a1a1a" stroke-miterlimit="10" stroke-width="3" opacity="0.25"/>
      <path id="Path_25553-19" data-name="Path 25553" d="M1160.468,627.236c-26.957,34.267-70.538,47.417-124.938,32.649-66.452-18.107-87.8-63.7-64.812-111.686,19.635-40.978,61.111-44.883,124.926-32.649C1167.416,529.311,1198.809,578.438,1160.468,627.236Z" transform="translate(-874.812 -345.293)" fill="none" stroke="#1a1a1a" stroke-miterlimit="10" stroke-width="3" opacity="0.25"/>
      <path id="Path_25555-19" data-name="Path 25555" d="M1105.536,601.388c-12.743,16.194-33.339,22.419-59.051,15.436-31.4-8.522-41.5-30.114-30.635-52.793,9.28-19.363,28.9-21.219,59.051-15.425C1108.818,555.091,1123.666,578.336,1105.536,601.388Z" transform="translate(-868.249 -340.518)" fill="none" stroke="#1a1a1a" stroke-miterlimit="10" stroke-width="3" opacity="0.25"/>
      <path id="Path_25556-19" data-name="Path 25556" d="M1085.775,590.388c-6.948,8.838-18.209,12.234-32.242,8.42-17.156-4.651-22.634-16.443-16.738-28.824,5.07-10.581,15.844-11.588,32.253-8.431C1087.575,565.107,1095.689,577.793,1085.775,590.388Z" transform="translate(-865.236 -338.639)" fill="none" stroke="#1a1a1a" stroke-miterlimit="10" stroke-width="3" opacity="0.25"/>
    </g>
    <g id="Group_425" data-name="Group 425" transform="translate(1368.693 612)">
      <path id="Path_25549-20" data-name="Path 25549" d="M1255.9,671.33c-51.6,65.638-135.078,90.806-239.26,62.525C889.429,699.317,848.5,611.838,892.518,519.968c37.606-78.459,117.1-86.008,239.317-62.525C1269.221,483.844,1329.381,577.9,1255.9,671.33Z" transform="translate(-886.184 -353.683)" fill="none" stroke="#1a1a1a" stroke-miterlimit="10" stroke-width="3" opacity="0.25"/>
      <path id="Path_25550-20" data-name="Path 25550" d="M1229.621,658.51c-44.645,56.776-116.869,78.561-207,54.083C912.569,682.716,877.159,607.041,915.24,527.552c32.524-67.9,101.342-74.374,207-54.094C1241.141,496.238,1293.188,577.719,1229.621,658.51Z" transform="translate(-882.888 -351.364)" fill="none" stroke="#1a1a1a" stroke-miterlimit="10" stroke-width="3" opacity="0.25"/>
      <path id="Path_25551-20" data-name="Path 25551" d="M1216.76,652.032c-41.08,52.238-107.51,72.281-190.451,49.794-101.263-27.5-133.844-97.121-98.807-170.261,29.933-62.469,93.239-68.421,190.451-49.794C1227.353,502.775,1275.279,577.647,1216.76,652.032Z" transform="translate(-881.118 -350.16)" fill="none" stroke="#1a1a1a" stroke-miterlimit="10" stroke-width="3" opacity="0.25"/>
      <path id="Path_25552-20" data-name="Path 25552" d="M1187.109,639.005c-33.826,43-88.543,59.526-156.828,40.99-83.394-22.634-110.214-79.976-81.368-140.2,24.648-51.446,76.785-56.346,156.84-40.99C1195.834,516.094,1235.273,577.77,1187.109,639.005Z" transform="translate(-877.982 -347.704)" fill="none" stroke="#1a1a1a" stroke-miterlimit="10" stroke-width="3" opacity="0.25"/>
      <path id="Path_25553-20" data-name="Path 25553" d="M1160.468,627.236c-26.957,34.267-70.538,47.417-124.938,32.649-66.452-18.107-87.8-63.7-64.812-111.686,19.635-40.978,61.111-44.883,124.926-32.649C1167.416,529.311,1198.809,578.438,1160.468,627.236Z" transform="translate(-874.812 -345.293)" fill="none" stroke="#1a1a1a" stroke-miterlimit="10" stroke-width="3" opacity="0.25"/>
      <path id="Path_25555-20" data-name="Path 25555" d="M1105.536,601.388c-12.743,16.194-33.339,22.419-59.051,15.436-31.4-8.522-41.5-30.114-30.635-52.793,9.28-19.363,28.9-21.219,59.051-15.425C1108.818,555.091,1123.666,578.336,1105.536,601.388Z" transform="translate(-868.249 -340.518)" fill="none" stroke="#1a1a1a" stroke-miterlimit="10" stroke-width="3" opacity="0.25"/>
      <path id="Path_25556-20" data-name="Path 25556" d="M1085.775,590.388c-6.948,8.838-18.209,12.234-32.242,8.42-17.156-4.651-22.634-16.443-16.738-28.824,5.07-10.581,15.844-11.588,32.253-8.431C1087.575,565.107,1095.689,577.793,1085.775,590.388Z" transform="translate(-865.236 -338.639)" fill="none" stroke="#1a1a1a" stroke-miterlimit="10" stroke-width="3" opacity="0.25"/>
    </g>
    <g id="Group_410" data-name="Group 410" transform="translate(538.693 488)">
      <path id="Path_25549-21" data-name="Path 25549" d="M1255.9,671.33c-51.6,65.638-135.078,90.806-239.26,62.525C889.429,699.317,848.5,611.838,892.518,519.968c37.606-78.459,117.1-86.008,239.317-62.525C1269.221,483.844,1329.381,577.9,1255.9,671.33Z" transform="translate(-886.184 -353.683)" fill="none" stroke="#1a1a1a" stroke-miterlimit="10" stroke-width="3" opacity="0.25"/>
      <path id="Path_25550-21" data-name="Path 25550" d="M1229.621,658.51c-44.645,56.776-116.869,78.561-207,54.083C912.569,682.716,877.159,607.041,915.24,527.552c32.524-67.9,101.342-74.374,207-54.094C1241.141,496.238,1293.188,577.719,1229.621,658.51Z" transform="translate(-882.888 -351.364)" fill="none" stroke="#1a1a1a" stroke-miterlimit="10" stroke-width="3" opacity="0.25"/>
      <path id="Path_25551-21" data-name="Path 25551" d="M1216.76,652.032c-41.08,52.238-107.51,72.281-190.451,49.794-101.263-27.5-133.844-97.121-98.807-170.261,29.933-62.469,93.239-68.421,190.451-49.794C1227.353,502.775,1275.279,577.647,1216.76,652.032Z" transform="translate(-881.118 -350.16)" fill="none" stroke="#1a1a1a" stroke-miterlimit="10" stroke-width="3" opacity="0.25"/>
      <path id="Path_25552-21" data-name="Path 25552" d="M1187.109,639.005c-33.826,43-88.543,59.526-156.828,40.99-83.394-22.634-110.214-79.976-81.368-140.2,24.648-51.446,76.785-56.346,156.84-40.99C1195.834,516.094,1235.273,577.77,1187.109,639.005Z" transform="translate(-877.982 -347.704)" fill="none" stroke="#1a1a1a" stroke-miterlimit="10" stroke-width="3" opacity="0.25"/>
      <path id="Path_25553-21" data-name="Path 25553" d="M1160.468,627.236c-26.957,34.267-70.538,47.417-124.938,32.649-66.452-18.107-87.8-63.7-64.812-111.686,19.635-40.978,61.111-44.883,124.926-32.649C1167.416,529.311,1198.809,578.438,1160.468,627.236Z" transform="translate(-874.812 -345.293)" fill="none" stroke="#1a1a1a" stroke-miterlimit="10" stroke-width="3" opacity="0.25"/>
      <path id="Path_25555-21" data-name="Path 25555" d="M1105.536,601.388c-12.743,16.194-33.339,22.419-59.051,15.436-31.4-8.522-41.5-30.114-30.635-52.793,9.28-19.363,28.9-21.219,59.051-15.425C1108.818,555.091,1123.666,578.336,1105.536,601.388Z" transform="translate(-868.249 -340.518)" fill="none" stroke="#1a1a1a" stroke-miterlimit="10" stroke-width="3" opacity="0.25"/>
      <path id="Path_25556-21" data-name="Path 25556" d="M1085.775,590.388c-6.948,8.838-18.209,12.234-32.242,8.42-17.156-4.651-22.634-16.443-16.738-28.824,5.07-10.581,15.844-11.588,32.253-8.431C1087.575,565.107,1095.689,577.793,1085.775,590.388Z" transform="translate(-865.236 -338.639)" fill="none" stroke="#1a1a1a" stroke-miterlimit="10" stroke-width="3" opacity="0.25"/>
    </g>
    <g id="Group_420" data-name="Group 420" transform="translate(1632.693 462)">
      <path id="Path_25549-22" data-name="Path 25549" d="M1255.9,671.33c-51.6,65.638-135.078,90.806-239.26,62.525C889.429,699.317,848.5,611.838,892.518,519.968c37.606-78.459,117.1-86.008,239.317-62.525C1269.221,483.844,1329.381,577.9,1255.9,671.33Z" transform="translate(-886.184 -353.683)" fill="none" stroke="#1a1a1a" stroke-miterlimit="10" stroke-width="3" opacity="0.25"/>
      <path id="Path_25550-22" data-name="Path 25550" d="M1229.621,658.51c-44.645,56.776-116.869,78.561-207,54.083C912.569,682.716,877.159,607.041,915.24,527.552c32.524-67.9,101.342-74.374,207-54.094C1241.141,496.238,1293.188,577.719,1229.621,658.51Z" transform="translate(-882.888 -351.364)" fill="none" stroke="#1a1a1a" stroke-miterlimit="10" stroke-width="3" opacity="0.25"/>
      <path id="Path_25551-22" data-name="Path 25551" d="M1216.76,652.032c-41.08,52.238-107.51,72.281-190.451,49.794-101.263-27.5-133.844-97.121-98.807-170.261,29.933-62.469,93.239-68.421,190.451-49.794C1227.353,502.775,1275.279,577.647,1216.76,652.032Z" transform="translate(-881.118 -350.16)" fill="none" stroke="#1a1a1a" stroke-miterlimit="10" stroke-width="3" opacity="0.25"/>
      <path id="Path_25552-22" data-name="Path 25552" d="M1187.109,639.005c-33.826,43-88.543,59.526-156.828,40.99-83.394-22.634-110.214-79.976-81.368-140.2,24.648-51.446,76.785-56.346,156.84-40.99C1195.834,516.094,1235.273,577.77,1187.109,639.005Z" transform="translate(-877.982 -347.704)" fill="none" stroke="#1a1a1a" stroke-miterlimit="10" stroke-width="3" opacity="0.25"/>
      <path id="Path_25553-22" data-name="Path 25553" d="M1160.468,627.236c-26.957,34.267-70.538,47.417-124.938,32.649-66.452-18.107-87.8-63.7-64.812-111.686,19.635-40.978,61.111-44.883,124.926-32.649C1167.416,529.311,1198.809,578.438,1160.468,627.236Z" transform="translate(-874.812 -345.293)" fill="none" stroke="#1a1a1a" stroke-miterlimit="10" stroke-width="3" opacity="0.25"/>
      <path id="Path_25555-22" data-name="Path 25555" d="M1105.536,601.388c-12.743,16.194-33.339,22.419-59.051,15.436-31.4-8.522-41.5-30.114-30.635-52.793,9.28-19.363,28.9-21.219,59.051-15.425C1108.818,555.091,1123.666,578.336,1105.536,601.388Z" transform="translate(-868.249 -340.518)" fill="none" stroke="#1a1a1a" stroke-miterlimit="10" stroke-width="3" opacity="0.25"/>
      <path id="Path_25556-22" data-name="Path 25556" d="M1085.775,590.388c-6.948,8.838-18.209,12.234-32.242,8.42-17.156-4.651-22.634-16.443-16.738-28.824,5.07-10.581,15.844-11.588,32.253-8.431C1087.575,565.107,1095.689,577.793,1085.775,590.388Z" transform="translate(-865.236 -338.639)" fill="none" stroke="#1a1a1a" stroke-miterlimit="10" stroke-width="3" opacity="0.25"/>
    </g>
    <g id="Group_413" data-name="Group 413" transform="translate(801.693 638)">
      <path id="Path_25549-23" data-name="Path 25549" d="M1255.9,671.33c-51.6,65.638-135.078,90.806-239.26,62.525C889.429,699.317,848.5,611.838,892.518,519.968c37.606-78.459,117.1-86.008,239.317-62.525C1269.221,483.844,1329.381,577.9,1255.9,671.33Z" transform="translate(-886.184 -353.683)" fill="none" stroke="#1a1a1a" stroke-miterlimit="10" stroke-width="3" opacity="0.25"/>
      <path id="Path_25550-23" data-name="Path 25550" d="M1229.621,658.51c-44.645,56.776-116.869,78.561-207,54.083C912.569,682.716,877.159,607.041,915.24,527.552c32.524-67.9,101.342-74.374,207-54.094C1241.141,496.238,1293.188,577.719,1229.621,658.51Z" transform="translate(-882.888 -351.364)" fill="none" stroke="#1a1a1a" stroke-miterlimit="10" stroke-width="3" opacity="0.25"/>
      <path id="Path_25551-23" data-name="Path 25551" d="M1216.76,652.032c-41.08,52.238-107.51,72.281-190.451,49.794-101.263-27.5-133.844-97.121-98.807-170.261,29.933-62.469,93.239-68.421,190.451-49.794C1227.353,502.775,1275.279,577.647,1216.76,652.032Z" transform="translate(-881.118 -350.16)" fill="none" stroke="#1a1a1a" stroke-miterlimit="10" stroke-width="3" opacity="0.25"/>
      <path id="Path_25552-23" data-name="Path 25552" d="M1187.109,639.005c-33.826,43-88.543,59.526-156.828,40.99-83.394-22.634-110.214-79.976-81.368-140.2,24.648-51.446,76.785-56.346,156.84-40.99C1195.834,516.094,1235.273,577.77,1187.109,639.005Z" transform="translate(-877.982 -347.704)" fill="none" stroke="#1a1a1a" stroke-miterlimit="10" stroke-width="3" opacity="0.25"/>
      <path id="Path_25553-23" data-name="Path 25553" d="M1160.468,627.236c-26.957,34.267-70.538,47.417-124.938,32.649-66.452-18.107-87.8-63.7-64.812-111.686,19.635-40.978,61.111-44.883,124.926-32.649C1167.416,529.311,1198.809,578.438,1160.468,627.236Z" transform="translate(-874.812 -345.293)" fill="none" stroke="#1a1a1a" stroke-miterlimit="10" stroke-width="3" opacity="0.25"/>
      <path id="Path_25555-23" data-name="Path 25555" d="M1105.536,601.388c-12.743,16.194-33.339,22.419-59.051,15.436-31.4-8.522-41.5-30.114-30.635-52.793,9.28-19.363,28.9-21.219,59.051-15.425C1108.818,555.091,1123.666,578.336,1105.536,601.388Z" transform="translate(-868.249 -340.518)" fill="none" stroke="#1a1a1a" stroke-miterlimit="10" stroke-width="3" opacity="0.25"/>
      <path id="Path_25556-23" data-name="Path 25556" d="M1085.775,590.388c-6.948,8.838-18.209,12.234-32.242,8.42-17.156-4.651-22.634-16.443-16.738-28.824,5.07-10.581,15.844-11.588,32.253-8.431C1087.575,565.107,1095.689,577.793,1085.775,590.388Z" transform="translate(-865.236 -338.639)" fill="none" stroke="#1a1a1a" stroke-miterlimit="10" stroke-width="3" opacity="0.25"/>
    </g>
    <g id="Group_415" data-name="Group 415" transform="translate(1895.693 612)">
      <path id="Path_25549-24" data-name="Path 25549" d="M1255.9,671.33c-51.6,65.638-135.078,90.806-239.26,62.525C889.429,699.317,848.5,611.838,892.518,519.968c37.606-78.459,117.1-86.008,239.317-62.525C1269.221,483.844,1329.381,577.9,1255.9,671.33Z" transform="translate(-886.184 -353.683)" fill="none" stroke="#1a1a1a" stroke-miterlimit="10" stroke-width="3" opacity="0.25"/>
      <path id="Path_25550-24" data-name="Path 25550" d="M1229.621,658.51c-44.645,56.776-116.869,78.561-207,54.083C912.569,682.716,877.159,607.041,915.24,527.552c32.524-67.9,101.342-74.374,207-54.094C1241.141,496.238,1293.188,577.719,1229.621,658.51Z" transform="translate(-882.888 -351.364)" fill="none" stroke="#1a1a1a" stroke-miterlimit="10" stroke-width="3" opacity="0.25"/>
      <path id="Path_25551-24" data-name="Path 25551" d="M1216.76,652.032c-41.08,52.238-107.51,72.281-190.451,49.794-101.263-27.5-133.844-97.121-98.807-170.261,29.933-62.469,93.239-68.421,190.451-49.794C1227.353,502.775,1275.279,577.647,1216.76,652.032Z" transform="translate(-881.118 -350.16)" fill="none" stroke="#1a1a1a" stroke-miterlimit="10" stroke-width="3" opacity="0.25"/>
      <path id="Path_25552-24" data-name="Path 25552" d="M1187.109,639.005c-33.826,43-88.543,59.526-156.828,40.99-83.394-22.634-110.214-79.976-81.368-140.2,24.648-51.446,76.785-56.346,156.84-40.99C1195.834,516.094,1235.273,577.77,1187.109,639.005Z" transform="translate(-877.982 -347.704)" fill="none" stroke="#1a1a1a" stroke-miterlimit="10" stroke-width="3" opacity="0.25"/>
      <path id="Path_25553-24" data-name="Path 25553" d="M1160.468,627.236c-26.957,34.267-70.538,47.417-124.938,32.649-66.452-18.107-87.8-63.7-64.812-111.686,19.635-40.978,61.111-44.883,124.926-32.649C1167.416,529.311,1198.809,578.438,1160.468,627.236Z" transform="translate(-874.812 -345.293)" fill="none" stroke="#1a1a1a" stroke-miterlimit="10" stroke-width="3" opacity="0.25"/>
      <path id="Path_25555-24" data-name="Path 25555" d="M1105.536,601.388c-12.743,16.194-33.339,22.419-59.051,15.436-31.4-8.522-41.5-30.114-30.635-52.793,9.28-19.363,28.9-21.219,59.051-15.425C1108.818,555.091,1123.666,578.336,1105.536,601.388Z" transform="translate(-868.249 -340.518)" fill="none" stroke="#1a1a1a" stroke-miterlimit="10" stroke-width="3" opacity="0.25"/>
      <path id="Path_25556-24" data-name="Path 25556" d="M1085.775,590.388c-6.948,8.838-18.209,12.234-32.242,8.42-17.156-4.651-22.634-16.443-16.738-28.824,5.07-10.581,15.844-11.588,32.253-8.431C1087.575,565.107,1095.689,577.793,1085.775,590.388Z" transform="translate(-865.236 -338.639)" fill="none" stroke="#1a1a1a" stroke-miterlimit="10" stroke-width="3" opacity="0.25"/>
    </g>
    <g id="Group_402" data-name="Group 402" transform="translate(-19 788)">
      <path id="Path_25549-25" data-name="Path 25549" d="M1255.9,671.33c-51.6,65.638-135.078,90.806-239.26,62.525C889.429,699.317,848.5,611.838,892.518,519.968c37.606-78.459,117.1-86.008,239.317-62.525C1269.221,483.844,1329.381,577.9,1255.9,671.33Z" transform="translate(-886.184 -353.683)" fill="none" stroke="#1a1a1a" stroke-miterlimit="10" stroke-width="3" opacity="0.25"/>
      <path id="Path_25550-25" data-name="Path 25550" d="M1229.621,658.51c-44.645,56.776-116.869,78.561-207,54.083C912.569,682.716,877.159,607.041,915.24,527.552c32.524-67.9,101.342-74.374,207-54.094C1241.141,496.238,1293.188,577.719,1229.621,658.51Z" transform="translate(-882.888 -351.364)" fill="none" stroke="#1a1a1a" stroke-miterlimit="10" stroke-width="3" opacity="0.25"/>
      <path id="Path_25551-25" data-name="Path 25551" d="M1216.76,652.032c-41.08,52.238-107.51,72.281-190.451,49.794-101.263-27.5-133.844-97.121-98.807-170.261,29.933-62.469,93.239-68.421,190.451-49.794C1227.353,502.775,1275.279,577.647,1216.76,652.032Z" transform="translate(-881.118 -350.16)" fill="none" stroke="#1a1a1a" stroke-miterlimit="10" stroke-width="3" opacity="0.25"/>
      <path id="Path_25552-25" data-name="Path 25552" d="M1187.109,639.005c-33.826,43-88.543,59.526-156.828,40.99-83.394-22.634-110.214-79.976-81.368-140.2,24.648-51.446,76.785-56.346,156.84-40.99C1195.834,516.094,1235.273,577.77,1187.109,639.005Z" transform="translate(-877.982 -347.704)" fill="none" stroke="#1a1a1a" stroke-miterlimit="10" stroke-width="3" opacity="0.25"/>
      <path id="Path_25553-25" data-name="Path 25553" d="M1160.468,627.236c-26.957,34.267-70.538,47.417-124.938,32.649-66.452-18.107-87.8-63.7-64.812-111.686,19.635-40.978,61.111-44.883,124.926-32.649C1167.416,529.311,1198.809,578.438,1160.468,627.236Z" transform="translate(-874.812 -345.293)" fill="none" stroke="#1a1a1a" stroke-miterlimit="10" stroke-width="3" opacity="0.25"/>
      <path id="Path_25555-25" data-name="Path 25555" d="M1105.536,601.388c-12.743,16.194-33.339,22.419-59.051,15.436-31.4-8.522-41.5-30.114-30.635-52.793,9.28-19.363,28.9-21.219,59.051-15.425C1108.818,555.091,1123.666,578.336,1105.536,601.388Z" transform="translate(-868.249 -340.518)" fill="none" stroke="#1a1a1a" stroke-miterlimit="10" stroke-width="3" opacity="0.25"/>
      <path id="Path_25556-25" data-name="Path 25556" d="M1085.775,590.388c-6.948,8.838-18.209,12.234-32.242,8.42-17.156-4.651-22.634-16.443-16.738-28.824,5.07-10.581,15.844-11.588,32.253-8.431C1087.575,565.107,1095.689,577.793,1085.775,590.388Z" transform="translate(-865.236 -338.639)" fill="none" stroke="#1a1a1a" stroke-miterlimit="10" stroke-width="3" opacity="0.25"/>
    </g>
    <g id="Group_430" data-name="Group 430" transform="translate(1075 762)">
      <path id="Path_25549-26" data-name="Path 25549" d="M1255.9,671.33c-51.6,65.638-135.078,90.806-239.26,62.525C889.429,699.317,848.5,611.838,892.518,519.968c37.606-78.459,117.1-86.008,239.317-62.525C1269.221,483.844,1329.381,577.9,1255.9,671.33Z" transform="translate(-886.184 -353.683)" fill="none" stroke="#1a1a1a" stroke-miterlimit="10" stroke-width="3" opacity="0.25"/>
      <path id="Path_25550-26" data-name="Path 25550" d="M1229.621,658.51c-44.645,56.776-116.869,78.561-207,54.083C912.569,682.716,877.159,607.041,915.24,527.552c32.524-67.9,101.342-74.374,207-54.094C1241.141,496.238,1293.188,577.719,1229.621,658.51Z" transform="translate(-882.888 -351.364)" fill="none" stroke="#1a1a1a" stroke-miterlimit="10" stroke-width="3" opacity="0.25"/>
      <path id="Path_25551-26" data-name="Path 25551" d="M1216.76,652.032c-41.08,52.238-107.51,72.281-190.451,49.794-101.263-27.5-133.844-97.121-98.807-170.261,29.933-62.469,93.239-68.421,190.451-49.794C1227.353,502.775,1275.279,577.647,1216.76,652.032Z" transform="translate(-881.118 -350.16)" fill="none" stroke="#1a1a1a" stroke-miterlimit="10" stroke-width="3" opacity="0.25"/>
      <path id="Path_25552-26" data-name="Path 25552" d="M1187.109,639.005c-33.826,43-88.543,59.526-156.828,40.99-83.394-22.634-110.214-79.976-81.368-140.2,24.648-51.446,76.785-56.346,156.84-40.99C1195.834,516.094,1235.273,577.77,1187.109,639.005Z" transform="translate(-877.982 -347.704)" fill="none" stroke="#1a1a1a" stroke-miterlimit="10" stroke-width="3" opacity="0.25"/>
      <path id="Path_25553-26" data-name="Path 25553" d="M1160.468,627.236c-26.957,34.267-70.538,47.417-124.938,32.649-66.452-18.107-87.8-63.7-64.812-111.686,19.635-40.978,61.111-44.883,124.926-32.649C1167.416,529.311,1198.809,578.438,1160.468,627.236Z" transform="translate(-874.812 -345.293)" fill="none" stroke="#1a1a1a" stroke-miterlimit="10" stroke-width="3" opacity="0.25"/>
      <path id="Path_25555-26" data-name="Path 25555" d="M1105.536,601.388c-12.743,16.194-33.339,22.419-59.051,15.436-31.4-8.522-41.5-30.114-30.635-52.793,9.28-19.363,28.9-21.219,59.051-15.425C1108.818,555.091,1123.666,578.336,1105.536,601.388Z" transform="translate(-868.249 -340.518)" fill="none" stroke="#1a1a1a" stroke-miterlimit="10" stroke-width="3" opacity="0.25"/>
      <path id="Path_25556-26" data-name="Path 25556" d="M1085.775,590.388c-6.948,8.838-18.209,12.234-32.242,8.42-17.156-4.651-22.634-16.443-16.738-28.824,5.07-10.581,15.844-11.588,32.253-8.431C1087.575,565.107,1095.689,577.793,1085.775,590.388Z" transform="translate(-865.236 -338.639)" fill="none" stroke="#1a1a1a" stroke-miterlimit="10" stroke-width="3" opacity="0.25"/>
    </g>
    <g id="Group_403" data-name="Group 403" transform="translate(274.693 938)">
      <path id="Path_25549-27" data-name="Path 25549" d="M1255.9,671.33c-51.6,65.638-135.078,90.806-239.26,62.525C889.429,699.317,848.5,611.838,892.518,519.968c37.606-78.459,117.1-86.008,239.317-62.525C1269.221,483.844,1329.381,577.9,1255.9,671.33Z" transform="translate(-886.184 -353.683)" fill="none" stroke="#1a1a1a" stroke-miterlimit="10" stroke-width="3" opacity="0.25"/>
      <path id="Path_25550-27" data-name="Path 25550" d="M1229.621,658.51c-44.645,56.776-116.869,78.561-207,54.083C912.569,682.716,877.159,607.041,915.24,527.552c32.524-67.9,101.342-74.374,207-54.094C1241.141,496.238,1293.188,577.719,1229.621,658.51Z" transform="translate(-882.888 -351.364)" fill="none" stroke="#1a1a1a" stroke-miterlimit="10" stroke-width="3" opacity="0.25"/>
      <path id="Path_25551-27" data-name="Path 25551" d="M1216.76,652.032c-41.08,52.238-107.51,72.281-190.451,49.794-101.263-27.5-133.844-97.121-98.807-170.261,29.933-62.469,93.239-68.421,190.451-49.794C1227.353,502.775,1275.279,577.647,1216.76,652.032Z" transform="translate(-881.118 -350.16)" fill="none" stroke="#1a1a1a" stroke-miterlimit="10" stroke-width="3" opacity="0.25"/>
      <path id="Path_25552-27" data-name="Path 25552" d="M1187.109,639.005c-33.826,43-88.543,59.526-156.828,40.99-83.394-22.634-110.214-79.976-81.368-140.2,24.648-51.446,76.785-56.346,156.84-40.99C1195.834,516.094,1235.273,577.77,1187.109,639.005Z" transform="translate(-877.982 -347.704)" fill="none" stroke="#1a1a1a" stroke-miterlimit="10" stroke-width="3" opacity="0.25"/>
      <path id="Path_25553-27" data-name="Path 25553" d="M1160.468,627.236c-26.957,34.267-70.538,47.417-124.938,32.649-66.452-18.107-87.8-63.7-64.812-111.686,19.635-40.978,61.111-44.883,124.926-32.649C1167.416,529.311,1198.809,578.438,1160.468,627.236Z" transform="translate(-874.812 -345.293)" fill="none" stroke="#1a1a1a" stroke-miterlimit="10" stroke-width="3" opacity="0.25"/>
      <path id="Path_25555-27" data-name="Path 25555" d="M1105.536,601.388c-12.743,16.194-33.339,22.419-59.051,15.436-31.4-8.522-41.5-30.114-30.635-52.793,9.28-19.363,28.9-21.219,59.051-15.425C1108.818,555.091,1123.666,578.336,1105.536,601.388Z" transform="translate(-868.249 -340.518)" fill="none" stroke="#1a1a1a" stroke-miterlimit="10" stroke-width="3" opacity="0.25"/>
      <path id="Path_25556-27" data-name="Path 25556" d="M1085.775,590.388c-6.948,8.838-18.209,12.234-32.242,8.42-17.156-4.651-22.634-16.443-16.738-28.824,5.07-10.581,15.844-11.588,32.253-8.431C1087.575,565.107,1095.689,577.793,1085.775,590.388Z" transform="translate(-865.236 -338.639)" fill="none" stroke="#1a1a1a" stroke-miterlimit="10" stroke-width="3" opacity="0.25"/>
    </g>
    <g id="Group_426" data-name="Group 426" transform="translate(1368.693 912)">
      <path id="Path_25549-28" data-name="Path 25549" d="M1255.9,671.33c-51.6,65.638-135.078,90.806-239.26,62.525C889.429,699.317,848.5,611.838,892.518,519.968c37.606-78.459,117.1-86.008,239.317-62.525C1269.221,483.844,1329.381,577.9,1255.9,671.33Z" transform="translate(-886.184 -353.683)" fill="none" stroke="#1a1a1a" stroke-miterlimit="10" stroke-width="3" opacity="0.25"/>
      <path id="Path_25550-28" data-name="Path 25550" d="M1229.621,658.51c-44.645,56.776-116.869,78.561-207,54.083C912.569,682.716,877.159,607.041,915.24,527.552c32.524-67.9,101.342-74.374,207-54.094C1241.141,496.238,1293.188,577.719,1229.621,658.51Z" transform="translate(-882.888 -351.364)" fill="none" stroke="#1a1a1a" stroke-miterlimit="10" stroke-width="3" opacity="0.25"/>
      <path id="Path_25551-28" data-name="Path 25551" d="M1216.76,652.032c-41.08,52.238-107.51,72.281-190.451,49.794-101.263-27.5-133.844-97.121-98.807-170.261,29.933-62.469,93.239-68.421,190.451-49.794C1227.353,502.775,1275.279,577.647,1216.76,652.032Z" transform="translate(-881.118 -350.16)" fill="none" stroke="#1a1a1a" stroke-miterlimit="10" stroke-width="3" opacity="0.25"/>
      <path id="Path_25552-28" data-name="Path 25552" d="M1187.109,639.005c-33.826,43-88.543,59.526-156.828,40.99-83.394-22.634-110.214-79.976-81.368-140.2,24.648-51.446,76.785-56.346,156.84-40.99C1195.834,516.094,1235.273,577.77,1187.109,639.005Z" transform="translate(-877.982 -347.704)" fill="none" stroke="#1a1a1a" stroke-miterlimit="10" stroke-width="3" opacity="0.25"/>
      <path id="Path_25553-28" data-name="Path 25553" d="M1160.468,627.236c-26.957,34.267-70.538,47.417-124.938,32.649-66.452-18.107-87.8-63.7-64.812-111.686,19.635-40.978,61.111-44.883,124.926-32.649C1167.416,529.311,1198.809,578.438,1160.468,627.236Z" transform="translate(-874.812 -345.293)" fill="none" stroke="#1a1a1a" stroke-miterlimit="10" stroke-width="3" opacity="0.25"/>
      <path id="Path_25555-28" data-name="Path 25555" d="M1105.536,601.388c-12.743,16.194-33.339,22.419-59.051,15.436-31.4-8.522-41.5-30.114-30.635-52.793,9.28-19.363,28.9-21.219,59.051-15.425C1108.818,555.091,1123.666,578.336,1105.536,601.388Z" transform="translate(-868.249 -340.518)" fill="none" stroke="#1a1a1a" stroke-miterlimit="10" stroke-width="3" opacity="0.25"/>
      <path id="Path_25556-28" data-name="Path 25556" d="M1085.775,590.388c-6.948,8.838-18.209,12.234-32.242,8.42-17.156-4.651-22.634-16.443-16.738-28.824,5.07-10.581,15.844-11.588,32.253-8.431C1087.575,565.107,1095.689,577.793,1085.775,590.388Z" transform="translate(-865.236 -338.639)" fill="none" stroke="#1a1a1a" stroke-miterlimit="10" stroke-width="3" opacity="0.25"/>
    </g>
    <g id="Group_407" data-name="Group 407" transform="translate(538.693 788)">
      <path id="Path_25549-29" data-name="Path 25549" d="M1255.9,671.33c-51.6,65.638-135.078,90.806-239.26,62.525C889.429,699.317,848.5,611.838,892.518,519.968c37.606-78.459,117.1-86.008,239.317-62.525C1269.221,483.844,1329.381,577.9,1255.9,671.33Z" transform="translate(-886.184 -353.683)" fill="none" stroke="#1a1a1a" stroke-miterlimit="10" stroke-width="3" opacity="0.25"/>
      <path id="Path_25550-29" data-name="Path 25550" d="M1229.621,658.51c-44.645,56.776-116.869,78.561-207,54.083C912.569,682.716,877.159,607.041,915.24,527.552c32.524-67.9,101.342-74.374,207-54.094C1241.141,496.238,1293.188,577.719,1229.621,658.51Z" transform="translate(-882.888 -351.364)" fill="none" stroke="#1a1a1a" stroke-miterlimit="10" stroke-width="3" opacity="0.25"/>
      <path id="Path_25551-29" data-name="Path 25551" d="M1216.76,652.032c-41.08,52.238-107.51,72.281-190.451,49.794-101.263-27.5-133.844-97.121-98.807-170.261,29.933-62.469,93.239-68.421,190.451-49.794C1227.353,502.775,1275.279,577.647,1216.76,652.032Z" transform="translate(-881.118 -350.16)" fill="none" stroke="#1a1a1a" stroke-miterlimit="10" stroke-width="3" opacity="0.25"/>
      <path id="Path_25552-29" data-name="Path 25552" d="M1187.109,639.005c-33.826,43-88.543,59.526-156.828,40.99-83.394-22.634-110.214-79.976-81.368-140.2,24.648-51.446,76.785-56.346,156.84-40.99C1195.834,516.094,1235.273,577.77,1187.109,639.005Z" transform="translate(-877.982 -347.704)" fill="none" stroke="#1a1a1a" stroke-miterlimit="10" stroke-width="3" opacity="0.25"/>
      <path id="Path_25553-29" data-name="Path 25553" d="M1160.468,627.236c-26.957,34.267-70.538,47.417-124.938,32.649-66.452-18.107-87.8-63.7-64.812-111.686,19.635-40.978,61.111-44.883,124.926-32.649C1167.416,529.311,1198.809,578.438,1160.468,627.236Z" transform="translate(-874.812 -345.293)" fill="none" stroke="#1a1a1a" stroke-miterlimit="10" stroke-width="3" opacity="0.25"/>
      <path id="Path_25555-29" data-name="Path 25555" d="M1105.536,601.388c-12.743,16.194-33.339,22.419-59.051,15.436-31.4-8.522-41.5-30.114-30.635-52.793,9.28-19.363,28.9-21.219,59.051-15.425C1108.818,555.091,1123.666,578.336,1105.536,601.388Z" transform="translate(-868.249 -340.518)" fill="none" stroke="#1a1a1a" stroke-miterlimit="10" stroke-width="3" opacity="0.25"/>
      <path id="Path_25556-29" data-name="Path 25556" d="M1085.775,590.388c-6.948,8.838-18.209,12.234-32.242,8.42-17.156-4.651-22.634-16.443-16.738-28.824,5.07-10.581,15.844-11.588,32.253-8.431C1087.575,565.107,1095.689,577.793,1085.775,590.388Z" transform="translate(-865.236 -338.639)" fill="none" stroke="#1a1a1a" stroke-miterlimit="10" stroke-width="3" opacity="0.25"/>
    </g>
    <g id="Group_421" data-name="Group 421" transform="translate(1632.693 762)">
      <path id="Path_25549-30" data-name="Path 25549" d="M1255.9,671.33c-51.6,65.638-135.078,90.806-239.26,62.525C889.429,699.317,848.5,611.838,892.518,519.968c37.606-78.459,117.1-86.008,239.317-62.525C1269.221,483.844,1329.381,577.9,1255.9,671.33Z" transform="translate(-886.184 -353.683)" fill="none" stroke="#1a1a1a" stroke-miterlimit="10" stroke-width="3" opacity="0.25"/>
      <path id="Path_25550-30" data-name="Path 25550" d="M1229.621,658.51c-44.645,56.776-116.869,78.561-207,54.083C912.569,682.716,877.159,607.041,915.24,527.552c32.524-67.9,101.342-74.374,207-54.094C1241.141,496.238,1293.188,577.719,1229.621,658.51Z" transform="translate(-882.888 -351.364)" fill="none" stroke="#1a1a1a" stroke-miterlimit="10" stroke-width="3" opacity="0.25"/>
      <path id="Path_25551-30" data-name="Path 25551" d="M1216.76,652.032c-41.08,52.238-107.51,72.281-190.451,49.794-101.263-27.5-133.844-97.121-98.807-170.261,29.933-62.469,93.239-68.421,190.451-49.794C1227.353,502.775,1275.279,577.647,1216.76,652.032Z" transform="translate(-881.118 -350.16)" fill="none" stroke="#1a1a1a" stroke-miterlimit="10" stroke-width="3" opacity="0.25"/>
      <path id="Path_25552-30" data-name="Path 25552" d="M1187.109,639.005c-33.826,43-88.543,59.526-156.828,40.99-83.394-22.634-110.214-79.976-81.368-140.2,24.648-51.446,76.785-56.346,156.84-40.99C1195.834,516.094,1235.273,577.77,1187.109,639.005Z" transform="translate(-877.982 -347.704)" fill="none" stroke="#1a1a1a" stroke-miterlimit="10" stroke-width="3" opacity="0.25"/>
      <path id="Path_25553-30" data-name="Path 25553" d="M1160.468,627.236c-26.957,34.267-70.538,47.417-124.938,32.649-66.452-18.107-87.8-63.7-64.812-111.686,19.635-40.978,61.111-44.883,124.926-32.649C1167.416,529.311,1198.809,578.438,1160.468,627.236Z" transform="translate(-874.812 -345.293)" fill="none" stroke="#1a1a1a" stroke-miterlimit="10" stroke-width="3" opacity="0.25"/>
      <path id="Path_25555-30" data-name="Path 25555" d="M1105.536,601.388c-12.743,16.194-33.339,22.419-59.051,15.436-31.4-8.522-41.5-30.114-30.635-52.793,9.28-19.363,28.9-21.219,59.051-15.425C1108.818,555.091,1123.666,578.336,1105.536,601.388Z" transform="translate(-868.249 -340.518)" fill="none" stroke="#1a1a1a" stroke-miterlimit="10" stroke-width="3" opacity="0.25"/>
      <path id="Path_25556-30" data-name="Path 25556" d="M1085.775,590.388c-6.948,8.838-18.209,12.234-32.242,8.42-17.156-4.651-22.634-16.443-16.738-28.824,5.07-10.581,15.844-11.588,32.253-8.431C1087.575,565.107,1095.689,577.793,1085.775,590.388Z" transform="translate(-865.236 -338.639)" fill="none" stroke="#1a1a1a" stroke-miterlimit="10" stroke-width="3" opacity="0.25"/>
    </g>
    <g id="Group_411" data-name="Group 411" transform="translate(801.693 938)">
      <path id="Path_25549-31" data-name="Path 25549" d="M1255.9,671.33c-51.6,65.638-135.078,90.806-239.26,62.525C889.429,699.317,848.5,611.838,892.518,519.968c37.606-78.459,117.1-86.008,239.317-62.525C1269.221,483.844,1329.381,577.9,1255.9,671.33Z" transform="translate(-886.184 -353.683)" fill="none" stroke="#1a1a1a" stroke-miterlimit="10" stroke-width="3" opacity="0.25"/>
      <path id="Path_25550-31" data-name="Path 25550" d="M1229.621,658.51c-44.645,56.776-116.869,78.561-207,54.083C912.569,682.716,877.159,607.041,915.24,527.552c32.524-67.9,101.342-74.374,207-54.094C1241.141,496.238,1293.188,577.719,1229.621,658.51Z" transform="translate(-882.888 -351.364)" fill="none" stroke="#1a1a1a" stroke-miterlimit="10" stroke-width="3" opacity="0.25"/>
      <path id="Path_25551-31" data-name="Path 25551" d="M1216.76,652.032c-41.08,52.238-107.51,72.281-190.451,49.794-101.263-27.5-133.844-97.121-98.807-170.261,29.933-62.469,93.239-68.421,190.451-49.794C1227.353,502.775,1275.279,577.647,1216.76,652.032Z" transform="translate(-881.118 -350.16)" fill="none" stroke="#1a1a1a" stroke-miterlimit="10" stroke-width="3" opacity="0.25"/>
      <path id="Path_25552-31" data-name="Path 25552" d="M1187.109,639.005c-33.826,43-88.543,59.526-156.828,40.99-83.394-22.634-110.214-79.976-81.368-140.2,24.648-51.446,76.785-56.346,156.84-40.99C1195.834,516.094,1235.273,577.77,1187.109,639.005Z" transform="translate(-877.982 -347.704)" fill="none" stroke="#1a1a1a" stroke-miterlimit="10" stroke-width="3" opacity="0.25"/>
      <path id="Path_25553-31" data-name="Path 25553" d="M1160.468,627.236c-26.957,34.267-70.538,47.417-124.938,32.649-66.452-18.107-87.8-63.7-64.812-111.686,19.635-40.978,61.111-44.883,124.926-32.649C1167.416,529.311,1198.809,578.438,1160.468,627.236Z" transform="translate(-874.812 -345.293)" fill="none" stroke="#1a1a1a" stroke-miterlimit="10" stroke-width="3" opacity="0.25"/>
      <path id="Path_25555-31" data-name="Path 25555" d="M1105.536,601.388c-12.743,16.194-33.339,22.419-59.051,15.436-31.4-8.522-41.5-30.114-30.635-52.793,9.28-19.363,28.9-21.219,59.051-15.425C1108.818,555.091,1123.666,578.336,1105.536,601.388Z" transform="translate(-868.249 -340.518)" fill="none" stroke="#1a1a1a" stroke-miterlimit="10" stroke-width="3" opacity="0.25"/>
      <path id="Path_25556-31" data-name="Path 25556" d="M1085.775,590.388c-6.948,8.838-18.209,12.234-32.242,8.42-17.156-4.651-22.634-16.443-16.738-28.824,5.07-10.581,15.844-11.588,32.253-8.431C1087.575,565.107,1095.689,577.793,1085.775,590.388Z" transform="translate(-865.236 -338.639)" fill="none" stroke="#1a1a1a" stroke-miterlimit="10" stroke-width="3" opacity="0.25"/>
    </g>
    <g id="Group_416" data-name="Group 416" transform="translate(1895.693 912)">
      <path id="Path_25549-32" data-name="Path 25549" d="M1255.9,671.33c-51.6,65.638-135.078,90.806-239.26,62.525C889.429,699.317,848.5,611.838,892.518,519.968c37.606-78.459,117.1-86.008,239.317-62.525C1269.221,483.844,1329.381,577.9,1255.9,671.33Z" transform="translate(-886.184 -353.683)" fill="none" stroke="#1a1a1a" stroke-miterlimit="10" stroke-width="3" opacity="0.25"/>
      <path id="Path_25550-32" data-name="Path 25550" d="M1229.621,658.51c-44.645,56.776-116.869,78.561-207,54.083C912.569,682.716,877.159,607.041,915.24,527.552c32.524-67.9,101.342-74.374,207-54.094C1241.141,496.238,1293.188,577.719,1229.621,658.51Z" transform="translate(-882.888 -351.364)" fill="none" stroke="#1a1a1a" stroke-miterlimit="10" stroke-width="3" opacity="0.25"/>
      <path id="Path_25551-32" data-name="Path 25551" d="M1216.76,652.032c-41.08,52.238-107.51,72.281-190.451,49.794-101.263-27.5-133.844-97.121-98.807-170.261,29.933-62.469,93.239-68.421,190.451-49.794C1227.353,502.775,1275.279,577.647,1216.76,652.032Z" transform="translate(-881.118 -350.16)" fill="none" stroke="#1a1a1a" stroke-miterlimit="10" stroke-width="3" opacity="0.25"/>
      <path id="Path_25552-32" data-name="Path 25552" d="M1187.109,639.005c-33.826,43-88.543,59.526-156.828,40.99-83.394-22.634-110.214-79.976-81.368-140.2,24.648-51.446,76.785-56.346,156.84-40.99C1195.834,516.094,1235.273,577.77,1187.109,639.005Z" transform="translate(-877.982 -347.704)" fill="none" stroke="#1a1a1a" stroke-miterlimit="10" stroke-width="3" opacity="0.25"/>
      <path id="Path_25553-32" data-name="Path 25553" d="M1160.468,627.236c-26.957,34.267-70.538,47.417-124.938,32.649-66.452-18.107-87.8-63.7-64.812-111.686,19.635-40.978,61.111-44.883,124.926-32.649C1167.416,529.311,1198.809,578.438,1160.468,627.236Z" transform="translate(-874.812 -345.293)" fill="none" stroke="#1a1a1a" stroke-miterlimit="10" stroke-width="3" opacity="0.25"/>
      <path id="Path_25555-32" data-name="Path 25555" d="M1105.536,601.388c-12.743,16.194-33.339,22.419-59.051,15.436-31.4-8.522-41.5-30.114-30.635-52.793,9.28-19.363,28.9-21.219,59.051-15.425C1108.818,555.091,1123.666,578.336,1105.536,601.388Z" transform="translate(-868.249 -340.518)" fill="none" stroke="#1a1a1a" stroke-miterlimit="10" stroke-width="3" opacity="0.25"/>
      <path id="Path_25556-32" data-name="Path 25556" d="M1085.775,590.388c-6.948,8.838-18.209,12.234-32.242,8.42-17.156-4.651-22.634-16.443-16.738-28.824,5.07-10.581,15.844-11.588,32.253-8.431C1087.575,565.107,1095.689,577.793,1085.775,590.388Z" transform="translate(-865.236 -338.639)" fill="none" stroke="#1a1a1a" stroke-miterlimit="10" stroke-width="3" opacity="0.25"/>
    </g>
    <g id="Group_431" data-name="Group 431" transform="translate(296.693 -262)">
      <path id="Path_25549-33" data-name="Path 25549" d="M1255.9,671.33c-51.6,65.638-135.078,90.806-239.26,62.525C889.429,699.317,848.5,611.838,892.518,519.968c37.606-78.459,117.1-86.008,239.317-62.525C1269.221,483.844,1329.381,577.9,1255.9,671.33Z" transform="translate(-886.184 -353.683)" fill="none" stroke="#1a1a1a" stroke-miterlimit="10" stroke-width="3" opacity="0.25"/>
      <path id="Path_25550-33" data-name="Path 25550" d="M1229.621,658.51c-44.645,56.776-116.869,78.561-207,54.083C912.569,682.716,877.159,607.041,915.24,527.552c32.524-67.9,101.342-74.374,207-54.094C1241.141,496.238,1293.188,577.719,1229.621,658.51Z" transform="translate(-882.888 -351.364)" fill="none" stroke="#1a1a1a" stroke-miterlimit="10" stroke-width="3" opacity="0.25"/>
      <path id="Path_25551-33" data-name="Path 25551" d="M1216.76,652.032c-41.08,52.238-107.51,72.281-190.451,49.794-101.263-27.5-133.844-97.121-98.807-170.261,29.933-62.469,93.239-68.421,190.451-49.794C1227.353,502.775,1275.279,577.647,1216.76,652.032Z" transform="translate(-881.118 -350.16)" fill="none" stroke="#1a1a1a" stroke-miterlimit="10" stroke-width="3" opacity="0.25"/>
      <path id="Path_25552-33" data-name="Path 25552" d="M1187.109,639.005c-33.826,43-88.543,59.526-156.828,40.99-83.394-22.634-110.214-79.976-81.368-140.2,24.648-51.446,76.785-56.346,156.84-40.99C1195.834,516.094,1235.273,577.77,1187.109,639.005Z" transform="translate(-877.982 -347.704)" fill="none" stroke="#1a1a1a" stroke-miterlimit="10" stroke-width="3" opacity="0.25"/>
      <path id="Path_25553-33" data-name="Path 25553" d="M1160.468,627.236c-26.957,34.267-70.538,47.417-124.938,32.649-66.452-18.107-87.8-63.7-64.812-111.686,19.635-40.978,61.111-44.883,124.926-32.649C1167.416,529.311,1198.809,578.438,1160.468,627.236Z" transform="translate(-874.812 -345.293)" fill="none" stroke="#1a1a1a" stroke-miterlimit="10" stroke-width="3" opacity="0.25"/>
      <path id="Path_25555-33" data-name="Path 25555" d="M1105.536,601.388c-12.743,16.194-33.339,22.419-59.051,15.436-31.4-8.522-41.5-30.114-30.635-52.793,9.28-19.363,28.9-21.219,59.051-15.425C1108.818,555.091,1123.666,578.336,1105.536,601.388Z" transform="translate(-868.249 -340.518)" fill="none" stroke="#1a1a1a" stroke-miterlimit="10" stroke-width="3" opacity="0.25"/>
      <path id="Path_25556-33" data-name="Path 25556" d="M1085.775,590.388c-6.948,8.838-18.209,12.234-32.242,8.42-17.156-4.651-22.634-16.443-16.738-28.824,5.07-10.581,15.844-11.588,32.253-8.431C1087.575,565.107,1095.689,577.793,1085.775,590.388Z" transform="translate(-865.236 -338.639)" fill="none" stroke="#1a1a1a" stroke-miterlimit="10" stroke-width="3" opacity="0.25"/>
    </g>
    <g id="Group_432" data-name="Group 432" transform="translate(806.693 -262)">
      <path id="Path_25549-34" data-name="Path 25549" d="M1255.9,671.33c-51.6,65.638-135.078,90.806-239.26,62.525C889.429,699.317,848.5,611.838,892.518,519.968c37.606-78.459,117.1-86.008,239.317-62.525C1269.221,483.844,1329.381,577.9,1255.9,671.33Z" transform="translate(-886.184 -353.683)" fill="none" stroke="#1a1a1a" stroke-miterlimit="10" stroke-width="3" opacity="0.25"/>
      <path id="Path_25550-34" data-name="Path 25550" d="M1229.621,658.51c-44.645,56.776-116.869,78.561-207,54.083C912.569,682.716,877.159,607.041,915.24,527.552c32.524-67.9,101.342-74.374,207-54.094C1241.141,496.238,1293.188,577.719,1229.621,658.51Z" transform="translate(-882.888 -351.364)" fill="none" stroke="#1a1a1a" stroke-miterlimit="10" stroke-width="3" opacity="0.25"/>
      <path id="Path_25551-34" data-name="Path 25551" d="M1216.76,652.032c-41.08,52.238-107.51,72.281-190.451,49.794-101.263-27.5-133.844-97.121-98.807-170.261,29.933-62.469,93.239-68.421,190.451-49.794C1227.353,502.775,1275.279,577.647,1216.76,652.032Z" transform="translate(-881.118 -350.16)" fill="none" stroke="#1a1a1a" stroke-miterlimit="10" stroke-width="3" opacity="0.25"/>
      <path id="Path_25552-34" data-name="Path 25552" d="M1187.109,639.005c-33.826,43-88.543,59.526-156.828,40.99-83.394-22.634-110.214-79.976-81.368-140.2,24.648-51.446,76.785-56.346,156.84-40.99C1195.834,516.094,1235.273,577.77,1187.109,639.005Z" transform="translate(-877.982 -347.704)" fill="none" stroke="#1a1a1a" stroke-miterlimit="10" stroke-width="3" opacity="0.25"/>
      <path id="Path_25553-34" data-name="Path 25553" d="M1160.468,627.236c-26.957,34.267-70.538,47.417-124.938,32.649-66.452-18.107-87.8-63.7-64.812-111.686,19.635-40.978,61.111-44.883,124.926-32.649C1167.416,529.311,1198.809,578.438,1160.468,627.236Z" transform="translate(-874.812 -345.293)" fill="none" stroke="#1a1a1a" stroke-miterlimit="10" stroke-width="3" opacity="0.25"/>
      <path id="Path_25555-34" data-name="Path 25555" d="M1105.536,601.388c-12.743,16.194-33.339,22.419-59.051,15.436-31.4-8.522-41.5-30.114-30.635-52.793,9.28-19.363,28.9-21.219,59.051-15.425C1108.818,555.091,1123.666,578.336,1105.536,601.388Z" transform="translate(-868.249 -340.518)" fill="none" stroke="#1a1a1a" stroke-miterlimit="10" stroke-width="3" opacity="0.25"/>
      <path id="Path_25556-34" data-name="Path 25556" d="M1085.775,590.388c-6.948,8.838-18.209,12.234-32.242,8.42-17.156-4.651-22.634-16.443-16.738-28.824,5.07-10.581,15.844-11.588,32.253-8.431C1087.575,565.107,1095.689,577.793,1085.775,590.388Z" transform="translate(-865.236 -338.639)" fill="none" stroke="#1a1a1a" stroke-miterlimit="10" stroke-width="3" opacity="0.25"/>
    </g>
    <g id="Group_433" data-name="Group 433" transform="translate(1347.693 -281)">
      <path id="Path_25549-35" data-name="Path 25549" d="M1255.9,671.33c-51.6,65.638-135.078,90.806-239.26,62.525C889.429,699.317,848.5,611.838,892.518,519.968c37.606-78.459,117.1-86.008,239.317-62.525C1269.221,483.844,1329.381,577.9,1255.9,671.33Z" transform="translate(-886.184 -353.683)" fill="none" stroke="#1a1a1a" stroke-miterlimit="10" stroke-width="3" opacity="0.25"/>
      <path id="Path_25550-35" data-name="Path 25550" d="M1229.621,658.51c-44.645,56.776-116.869,78.561-207,54.083C912.569,682.716,877.159,607.041,915.24,527.552c32.524-67.9,101.342-74.374,207-54.094C1241.141,496.238,1293.188,577.719,1229.621,658.51Z" transform="translate(-882.888 -351.364)" fill="none" stroke="#1a1a1a" stroke-miterlimit="10" stroke-width="3" opacity="0.25"/>
      <path id="Path_25551-35" data-name="Path 25551" d="M1216.76,652.032c-41.08,52.238-107.51,72.281-190.451,49.794-101.263-27.5-133.844-97.121-98.807-170.261,29.933-62.469,93.239-68.421,190.451-49.794C1227.353,502.775,1275.279,577.647,1216.76,652.032Z" transform="translate(-881.118 -350.16)" fill="none" stroke="#1a1a1a" stroke-miterlimit="10" stroke-width="3" opacity="0.25"/>
      <path id="Path_25552-35" data-name="Path 25552" d="M1187.109,639.005c-33.826,43-88.543,59.526-156.828,40.99-83.394-22.634-110.214-79.976-81.368-140.2,24.648-51.446,76.785-56.346,156.84-40.99C1195.834,516.094,1235.273,577.77,1187.109,639.005Z" transform="translate(-877.982 -347.704)" fill="none" stroke="#1a1a1a" stroke-miterlimit="10" stroke-width="3" opacity="0.25"/>
      <path id="Path_25553-35" data-name="Path 25553" d="M1160.468,627.236c-26.957,34.267-70.538,47.417-124.938,32.649-66.452-18.107-87.8-63.7-64.812-111.686,19.635-40.978,61.111-44.883,124.926-32.649C1167.416,529.311,1198.809,578.438,1160.468,627.236Z" transform="translate(-874.812 -345.293)" fill="none" stroke="#1a1a1a" stroke-miterlimit="10" stroke-width="3" opacity="0.25"/>
      <path id="Path_25555-35" data-name="Path 25555" d="M1105.536,601.388c-12.743,16.194-33.339,22.419-59.051,15.436-31.4-8.522-41.5-30.114-30.635-52.793,9.28-19.363,28.9-21.219,59.051-15.425C1108.818,555.091,1123.666,578.336,1105.536,601.388Z" transform="translate(-868.249 -340.518)" fill="none" stroke="#1a1a1a" stroke-miterlimit="10" stroke-width="3" opacity="0.25"/>
      <path id="Path_25556-35" data-name="Path 25556" d="M1085.775,590.388c-6.948,8.838-18.209,12.234-32.242,8.42-17.156-4.651-22.634-16.443-16.738-28.824,5.07-10.581,15.844-11.588,32.253-8.431C1087.575,565.107,1095.689,577.793,1085.775,590.388Z" transform="translate(-865.236 -338.639)" fill="none" stroke="#1a1a1a" stroke-miterlimit="10" stroke-width="3" opacity="0.25"/>
    </g>
  </g>
</svg>
