<svg xmlns="http://www.w3.org/2000/svg" width="227" height="228" viewBox="0 0 227 228">
  <g id="Group_78" data-name="Group 78" transform="translate(-387 -322)">
    <text id="Grid" transform="translate(501 442)" fill="#202124" font-size="16" font-family="Merriweather-Regular, Merriweather"><tspan x="-20.84" y="0">GRID</tspan></text>
    <g id="Path_15" data-name="Path 15" transform="translate(387 322)" fill="none">
      <path d="M113.5,0C176.184,0,227,51.04,227,114S176.184,228,113.5,228,0,176.96,0,114,50.816,0,113.5,0Z" stroke="none"/>
      <path d="M 113.5 25 C 64.70094299316406 25 25 64.92521667480469 25 114 C 25 163.0747985839844 64.70094299316406 203 113.5 203 C 162.2990417480469 203 202 163.0747985839844 202 114 C 202 64.92521667480469 162.2990417480469 25 113.5 25 M 113.5 0 C 176.1843109130859 0 227 51.03952026367188 227 114 C 227 176.9604797363281 176.1843109130859 228 113.5 228 C 50.81568908691406 228 0 176.9604797363281 0 114 C 0 51.03952026367188 50.81568908691406 0 113.5 0 Z" stroke="none" fill="#202124"/>
    </g>
  </g>
</svg>
